<?xml version="1.0" encoding="utf-8" standalone="no"?>
<!DOCTYPE svg PUBLIC "-//W3C//DTD SVG 1.1//EN"
  "http://www.w3.org/Graphics/SVG/1.1/DTD/svg11.dtd">
<svg xmlns:xlink="http://www.w3.org/1999/xlink" width="460.8pt" height="345.6pt" viewBox="0 0 460.8 345.6" xmlns="http://www.w3.org/2000/svg" version="1.1">
 <metadata>
  <rdf:RDF xmlns:dc="http://purl.org/dc/elements/1.1/" xmlns:cc="http://creativecommons.org/ns#" xmlns:rdf="http://www.w3.org/1999/02/22-rdf-syntax-ns#">
   <cc:Work>
    <dc:type rdf:resource="http://purl.org/dc/dcmitype/StillImage"/>
    <dc:date>2025-05-09T18:54:10.684012</dc:date>
    <dc:format>image/svg+xml</dc:format>
    <dc:creator>
     <cc:Agent>
      <dc:title>Matplotlib v3.10.1, https://matplotlib.org/</dc:title>
     </cc:Agent>
    </dc:creator>
   </cc:Work>
  </rdf:RDF>
 </metadata>
 <defs>
  <style type="text/css">*{stroke-linejoin: round; stroke-linecap: butt}</style>
 </defs>
 <g id="figure_1">
  <g id="patch_1">
   <path d="M 0 345.6 
L 460.8 345.6 
L 460.8 0 
L 0 0 
z
" style="fill: #ffffff"/>
  </g>
  <g id="axes_1">
   <g id="patch_2">
    <path d="M 57.6 307.584 
L 414.72 307.584 
L 414.72 41.472 
L 57.6 41.472 
z
" style="fill: #ffffff"/>
   </g>
   <g id="matplotlib.axis_1">
    <g id="xtick_1">
     <g id="line2d_1">
      <defs>
       <path id="m05bc190c5e" d="M 0 0 
L 0 3.5 
" style="stroke: #000000; stroke-width: 0.8"/>
      </defs>
      <g>
       <use xlink:href="#m05bc190c5e" x="73.832727" y="307.584" style="stroke: #000000; stroke-width: 0.8"/>
      </g>
     </g>
     <g id="text_1">
      <!-- 0 -->
      <g transform="translate(70.651477 322.182437) scale(0.1 -0.1)">
       <defs>
        <path id="DejaVuSans-30" d="M 2034 4250 
Q 1547 4250 1301 3770 
Q 1056 3291 1056 2328 
Q 1056 1369 1301 889 
Q 1547 409 2034 409 
Q 2525 409 2770 889 
Q 3016 1369 3016 2328 
Q 3016 3291 2770 3770 
Q 2525 4250 2034 4250 
z
M 2034 4750 
Q 2819 4750 3233 4129 
Q 3647 3509 3647 2328 
Q 3647 1150 3233 529 
Q 2819 -91 2034 -91 
Q 1250 -91 836 529 
Q 422 1150 422 2328 
Q 422 3509 836 4129 
Q 1250 4750 2034 4750 
z
" transform="scale(0.015625)"/>
       </defs>
       <use xlink:href="#DejaVuSans-30"/>
      </g>
     </g>
    </g>
    <g id="xtick_2">
     <g id="line2d_2">
      <g>
       <use xlink:href="#m05bc190c5e" x="133.953939" y="307.584" style="stroke: #000000; stroke-width: 0.8"/>
      </g>
     </g>
     <g id="text_2">
      <!-- 10 -->
      <g transform="translate(127.591439 322.182437) scale(0.1 -0.1)">
       <defs>
        <path id="DejaVuSans-31" d="M 794 531 
L 1825 531 
L 1825 4091 
L 703 3866 
L 703 4441 
L 1819 4666 
L 2450 4666 
L 2450 531 
L 3481 531 
L 3481 0 
L 794 0 
L 794 531 
z
" transform="scale(0.015625)"/>
       </defs>
       <use xlink:href="#DejaVuSans-31"/>
       <use xlink:href="#DejaVuSans-30" transform="translate(63.623047 0)"/>
      </g>
     </g>
    </g>
    <g id="xtick_3">
     <g id="line2d_3">
      <g>
       <use xlink:href="#m05bc190c5e" x="194.075152" y="307.584" style="stroke: #000000; stroke-width: 0.8"/>
      </g>
     </g>
     <g id="text_3">
      <!-- 20 -->
      <g transform="translate(187.712652 322.182437) scale(0.1 -0.1)">
       <defs>
        <path id="DejaVuSans-32" d="M 1228 531 
L 3431 531 
L 3431 0 
L 469 0 
L 469 531 
Q 828 903 1448 1529 
Q 2069 2156 2228 2338 
Q 2531 2678 2651 2914 
Q 2772 3150 2772 3378 
Q 2772 3750 2511 3984 
Q 2250 4219 1831 4219 
Q 1534 4219 1204 4116 
Q 875 4013 500 3803 
L 500 4441 
Q 881 4594 1212 4672 
Q 1544 4750 1819 4750 
Q 2544 4750 2975 4387 
Q 3406 4025 3406 3419 
Q 3406 3131 3298 2873 
Q 3191 2616 2906 2266 
Q 2828 2175 2409 1742 
Q 1991 1309 1228 531 
z
" transform="scale(0.015625)"/>
       </defs>
       <use xlink:href="#DejaVuSans-32"/>
       <use xlink:href="#DejaVuSans-30" transform="translate(63.623047 0)"/>
      </g>
     </g>
    </g>
    <g id="xtick_4">
     <g id="line2d_4">
      <g>
       <use xlink:href="#m05bc190c5e" x="254.196364" y="307.584" style="stroke: #000000; stroke-width: 0.8"/>
      </g>
     </g>
     <g id="text_4">
      <!-- 30 -->
      <g transform="translate(247.833864 322.182437) scale(0.1 -0.1)">
       <defs>
        <path id="DejaVuSans-33" d="M 2597 2516 
Q 3050 2419 3304 2112 
Q 3559 1806 3559 1356 
Q 3559 666 3084 287 
Q 2609 -91 1734 -91 
Q 1441 -91 1130 -33 
Q 819 25 488 141 
L 488 750 
Q 750 597 1062 519 
Q 1375 441 1716 441 
Q 2309 441 2620 675 
Q 2931 909 2931 1356 
Q 2931 1769 2642 2001 
Q 2353 2234 1838 2234 
L 1294 2234 
L 1294 2753 
L 1863 2753 
Q 2328 2753 2575 2939 
Q 2822 3125 2822 3475 
Q 2822 3834 2567 4026 
Q 2313 4219 1838 4219 
Q 1578 4219 1281 4162 
Q 984 4106 628 3988 
L 628 4550 
Q 988 4650 1302 4700 
Q 1616 4750 1894 4750 
Q 2613 4750 3031 4423 
Q 3450 4097 3450 3541 
Q 3450 3153 3228 2886 
Q 3006 2619 2597 2516 
z
" transform="scale(0.015625)"/>
       </defs>
       <use xlink:href="#DejaVuSans-33"/>
       <use xlink:href="#DejaVuSans-30" transform="translate(63.623047 0)"/>
      </g>
     </g>
    </g>
    <g id="xtick_5">
     <g id="line2d_5">
      <g>
       <use xlink:href="#m05bc190c5e" x="314.317576" y="307.584" style="stroke: #000000; stroke-width: 0.8"/>
      </g>
     </g>
     <g id="text_5">
      <!-- 40 -->
      <g transform="translate(307.955076 322.182437) scale(0.1 -0.1)">
       <defs>
        <path id="DejaVuSans-34" d="M 2419 4116 
L 825 1625 
L 2419 1625 
L 2419 4116 
z
M 2253 4666 
L 3047 4666 
L 3047 1625 
L 3713 1625 
L 3713 1100 
L 3047 1100 
L 3047 0 
L 2419 0 
L 2419 1100 
L 313 1100 
L 313 1709 
L 2253 4666 
z
" transform="scale(0.015625)"/>
       </defs>
       <use xlink:href="#DejaVuSans-34"/>
       <use xlink:href="#DejaVuSans-30" transform="translate(63.623047 0)"/>
      </g>
     </g>
    </g>
    <g id="xtick_6">
     <g id="line2d_6">
      <g>
       <use xlink:href="#m05bc190c5e" x="374.438788" y="307.584" style="stroke: #000000; stroke-width: 0.8"/>
      </g>
     </g>
     <g id="text_6">
      <!-- 50 -->
      <g transform="translate(368.076288 322.182437) scale(0.1 -0.1)">
       <defs>
        <path id="DejaVuSans-35" d="M 691 4666 
L 3169 4666 
L 3169 4134 
L 1269 4134 
L 1269 2991 
Q 1406 3038 1543 3061 
Q 1681 3084 1819 3084 
Q 2600 3084 3056 2656 
Q 3513 2228 3513 1497 
Q 3513 744 3044 326 
Q 2575 -91 1722 -91 
Q 1428 -91 1123 -41 
Q 819 9 494 109 
L 494 744 
Q 775 591 1075 516 
Q 1375 441 1709 441 
Q 2250 441 2565 725 
Q 2881 1009 2881 1497 
Q 2881 1984 2565 2268 
Q 2250 2553 1709 2553 
Q 1456 2553 1204 2497 
Q 953 2441 691 2322 
L 691 4666 
z
" transform="scale(0.015625)"/>
       </defs>
       <use xlink:href="#DejaVuSans-35"/>
       <use xlink:href="#DejaVuSans-30" transform="translate(63.623047 0)"/>
      </g>
     </g>
    </g>
    <g id="text_7">
     <!-- [ligand] (uM) -->
     <g transform="translate(203.925625 335.860562) scale(0.1 -0.1)">
      <defs>
       <path id="DejaVuSans-5b" d="M 550 4863 
L 1875 4863 
L 1875 4416 
L 1125 4416 
L 1125 -397 
L 1875 -397 
L 1875 -844 
L 550 -844 
L 550 4863 
z
" transform="scale(0.015625)"/>
       <path id="DejaVuSans-6c" d="M 603 4863 
L 1178 4863 
L 1178 0 
L 603 0 
L 603 4863 
z
" transform="scale(0.015625)"/>
       <path id="DejaVuSans-69" d="M 603 3500 
L 1178 3500 
L 1178 0 
L 603 0 
L 603 3500 
z
M 603 4863 
L 1178 4863 
L 1178 4134 
L 603 4134 
L 603 4863 
z
" transform="scale(0.015625)"/>
       <path id="DejaVuSans-67" d="M 2906 1791 
Q 2906 2416 2648 2759 
Q 2391 3103 1925 3103 
Q 1463 3103 1205 2759 
Q 947 2416 947 1791 
Q 947 1169 1205 825 
Q 1463 481 1925 481 
Q 2391 481 2648 825 
Q 2906 1169 2906 1791 
z
M 3481 434 
Q 3481 -459 3084 -895 
Q 2688 -1331 1869 -1331 
Q 1566 -1331 1297 -1286 
Q 1028 -1241 775 -1147 
L 775 -588 
Q 1028 -725 1275 -790 
Q 1522 -856 1778 -856 
Q 2344 -856 2625 -561 
Q 2906 -266 2906 331 
L 2906 616 
Q 2728 306 2450 153 
Q 2172 0 1784 0 
Q 1141 0 747 490 
Q 353 981 353 1791 
Q 353 2603 747 3093 
Q 1141 3584 1784 3584 
Q 2172 3584 2450 3431 
Q 2728 3278 2906 2969 
L 2906 3500 
L 3481 3500 
L 3481 434 
z
" transform="scale(0.015625)"/>
       <path id="DejaVuSans-61" d="M 2194 1759 
Q 1497 1759 1228 1600 
Q 959 1441 959 1056 
Q 959 750 1161 570 
Q 1363 391 1709 391 
Q 2188 391 2477 730 
Q 2766 1069 2766 1631 
L 2766 1759 
L 2194 1759 
z
M 3341 1997 
L 3341 0 
L 2766 0 
L 2766 531 
Q 2569 213 2275 61 
Q 1981 -91 1556 -91 
Q 1019 -91 701 211 
Q 384 513 384 1019 
Q 384 1609 779 1909 
Q 1175 2209 1959 2209 
L 2766 2209 
L 2766 2266 
Q 2766 2663 2505 2880 
Q 2244 3097 1772 3097 
Q 1472 3097 1187 3025 
Q 903 2953 641 2809 
L 641 3341 
Q 956 3463 1253 3523 
Q 1550 3584 1831 3584 
Q 2591 3584 2966 3190 
Q 3341 2797 3341 1997 
z
" transform="scale(0.015625)"/>
       <path id="DejaVuSans-6e" d="M 3513 2113 
L 3513 0 
L 2938 0 
L 2938 2094 
Q 2938 2591 2744 2837 
Q 2550 3084 2163 3084 
Q 1697 3084 1428 2787 
Q 1159 2491 1159 1978 
L 1159 0 
L 581 0 
L 581 3500 
L 1159 3500 
L 1159 2956 
Q 1366 3272 1645 3428 
Q 1925 3584 2291 3584 
Q 2894 3584 3203 3211 
Q 3513 2838 3513 2113 
z
" transform="scale(0.015625)"/>
       <path id="DejaVuSans-64" d="M 2906 2969 
L 2906 4863 
L 3481 4863 
L 3481 0 
L 2906 0 
L 2906 525 
Q 2725 213 2448 61 
Q 2172 -91 1784 -91 
Q 1150 -91 751 415 
Q 353 922 353 1747 
Q 353 2572 751 3078 
Q 1150 3584 1784 3584 
Q 2172 3584 2448 3432 
Q 2725 3281 2906 2969 
z
M 947 1747 
Q 947 1113 1208 752 
Q 1469 391 1925 391 
Q 2381 391 2643 752 
Q 2906 1113 2906 1747 
Q 2906 2381 2643 2742 
Q 2381 3103 1925 3103 
Q 1469 3103 1208 2742 
Q 947 2381 947 1747 
z
" transform="scale(0.015625)"/>
       <path id="DejaVuSans-5d" d="M 1947 4863 
L 1947 -844 
L 622 -844 
L 622 -397 
L 1369 -397 
L 1369 4416 
L 622 4416 
L 622 4863 
L 1947 4863 
z
" transform="scale(0.015625)"/>
       <path id="DejaVuSans-20" transform="scale(0.015625)"/>
       <path id="DejaVuSans-28" d="M 1984 4856 
Q 1566 4138 1362 3434 
Q 1159 2731 1159 2009 
Q 1159 1288 1364 580 
Q 1569 -128 1984 -844 
L 1484 -844 
Q 1016 -109 783 600 
Q 550 1309 550 2009 
Q 550 2706 781 3412 
Q 1013 4119 1484 4856 
L 1984 4856 
z
" transform="scale(0.015625)"/>
       <path id="DejaVuSans-75" d="M 544 1381 
L 544 3500 
L 1119 3500 
L 1119 1403 
Q 1119 906 1312 657 
Q 1506 409 1894 409 
Q 2359 409 2629 706 
Q 2900 1003 2900 1516 
L 2900 3500 
L 3475 3500 
L 3475 0 
L 2900 0 
L 2900 538 
Q 2691 219 2414 64 
Q 2138 -91 1772 -91 
Q 1169 -91 856 284 
Q 544 659 544 1381 
z
M 1991 3584 
L 1991 3584 
z
" transform="scale(0.015625)"/>
       <path id="DejaVuSans-4d" d="M 628 4666 
L 1569 4666 
L 2759 1491 
L 3956 4666 
L 4897 4666 
L 4897 0 
L 4281 0 
L 4281 4097 
L 3078 897 
L 2444 897 
L 1241 4097 
L 1241 0 
L 628 0 
L 628 4666 
z
" transform="scale(0.015625)"/>
       <path id="DejaVuSans-29" d="M 513 4856 
L 1013 4856 
Q 1481 4119 1714 3412 
Q 1947 2706 1947 2009 
Q 1947 1309 1714 600 
Q 1481 -109 1013 -844 
L 513 -844 
Q 928 -128 1133 580 
Q 1338 1288 1338 2009 
Q 1338 2731 1133 3434 
Q 928 4138 513 4856 
z
" transform="scale(0.015625)"/>
      </defs>
      <use xlink:href="#DejaVuSans-5b"/>
      <use xlink:href="#DejaVuSans-6c" transform="translate(39.013672 0)"/>
      <use xlink:href="#DejaVuSans-69" transform="translate(66.796875 0)"/>
      <use xlink:href="#DejaVuSans-67" transform="translate(94.580078 0)"/>
      <use xlink:href="#DejaVuSans-61" transform="translate(158.056641 0)"/>
      <use xlink:href="#DejaVuSans-6e" transform="translate(219.335938 0)"/>
      <use xlink:href="#DejaVuSans-64" transform="translate(282.714844 0)"/>
      <use xlink:href="#DejaVuSans-5d" transform="translate(346.191406 0)"/>
      <use xlink:href="#DejaVuSans-20" transform="translate(385.205078 0)"/>
      <use xlink:href="#DejaVuSans-28" transform="translate(416.992188 0)"/>
      <use xlink:href="#DejaVuSans-75" transform="translate(456.005859 0)"/>
      <use xlink:href="#DejaVuSans-4d" transform="translate(519.384766 0)"/>
      <use xlink:href="#DejaVuSans-29" transform="translate(605.664062 0)"/>
     </g>
    </g>
   </g>
   <g id="matplotlib.axis_2">
    <g id="ytick_1">
     <g id="line2d_7">
      <defs>
       <path id="m21f6864332" d="M 0 0 
L -3.5 0 
" style="stroke: #000000; stroke-width: 0.8"/>
      </defs>
      <g>
       <use xlink:href="#m21f6864332" x="57.6" y="295.488" style="stroke: #000000; stroke-width: 0.8"/>
      </g>
     </g>
     <g id="text_8">
      <!-- 0.0 -->
      <g transform="translate(34.696875 299.287219) scale(0.1 -0.1)">
       <defs>
        <path id="DejaVuSans-2e" d="M 684 794 
L 1344 794 
L 1344 0 
L 684 0 
L 684 794 
z
" transform="scale(0.015625)"/>
       </defs>
       <use xlink:href="#DejaVuSans-30"/>
       <use xlink:href="#DejaVuSans-2e" transform="translate(63.623047 0)"/>
       <use xlink:href="#DejaVuSans-30" transform="translate(95.410156 0)"/>
      </g>
     </g>
    </g>
    <g id="ytick_2">
     <g id="line2d_8">
      <g>
       <use xlink:href="#m21f6864332" x="57.6" y="247.104" style="stroke: #000000; stroke-width: 0.8"/>
      </g>
     </g>
     <g id="text_9">
      <!-- 0.2 -->
      <g transform="translate(34.696875 250.903219) scale(0.1 -0.1)">
       <use xlink:href="#DejaVuSans-30"/>
       <use xlink:href="#DejaVuSans-2e" transform="translate(63.623047 0)"/>
       <use xlink:href="#DejaVuSans-32" transform="translate(95.410156 0)"/>
      </g>
     </g>
    </g>
    <g id="ytick_3">
     <g id="line2d_9">
      <g>
       <use xlink:href="#m21f6864332" x="57.6" y="198.72" style="stroke: #000000; stroke-width: 0.8"/>
      </g>
     </g>
     <g id="text_10">
      <!-- 0.4 -->
      <g transform="translate(34.696875 202.519219) scale(0.1 -0.1)">
       <use xlink:href="#DejaVuSans-30"/>
       <use xlink:href="#DejaVuSans-2e" transform="translate(63.623047 0)"/>
       <use xlink:href="#DejaVuSans-34" transform="translate(95.410156 0)"/>
      </g>
     </g>
    </g>
    <g id="ytick_4">
     <g id="line2d_10">
      <g>
       <use xlink:href="#m21f6864332" x="57.6" y="150.336" style="stroke: #000000; stroke-width: 0.8"/>
      </g>
     </g>
     <g id="text_11">
      <!-- 0.6 -->
      <g transform="translate(34.696875 154.135219) scale(0.1 -0.1)">
       <defs>
        <path id="DejaVuSans-36" d="M 2113 2584 
Q 1688 2584 1439 2293 
Q 1191 2003 1191 1497 
Q 1191 994 1439 701 
Q 1688 409 2113 409 
Q 2538 409 2786 701 
Q 3034 994 3034 1497 
Q 3034 2003 2786 2293 
Q 2538 2584 2113 2584 
z
M 3366 4563 
L 3366 3988 
Q 3128 4100 2886 4159 
Q 2644 4219 2406 4219 
Q 1781 4219 1451 3797 
Q 1122 3375 1075 2522 
Q 1259 2794 1537 2939 
Q 1816 3084 2150 3084 
Q 2853 3084 3261 2657 
Q 3669 2231 3669 1497 
Q 3669 778 3244 343 
Q 2819 -91 2113 -91 
Q 1303 -91 875 529 
Q 447 1150 447 2328 
Q 447 3434 972 4092 
Q 1497 4750 2381 4750 
Q 2619 4750 2861 4703 
Q 3103 4656 3366 4563 
z
" transform="scale(0.015625)"/>
       </defs>
       <use xlink:href="#DejaVuSans-30"/>
       <use xlink:href="#DejaVuSans-2e" transform="translate(63.623047 0)"/>
       <use xlink:href="#DejaVuSans-36" transform="translate(95.410156 0)"/>
      </g>
     </g>
    </g>
    <g id="ytick_5">
     <g id="line2d_11">
      <g>
       <use xlink:href="#m21f6864332" x="57.6" y="101.952" style="stroke: #000000; stroke-width: 0.8"/>
      </g>
     </g>
     <g id="text_12">
      <!-- 0.8 -->
      <g transform="translate(34.696875 105.751219) scale(0.1 -0.1)">
       <defs>
        <path id="DejaVuSans-38" d="M 2034 2216 
Q 1584 2216 1326 1975 
Q 1069 1734 1069 1313 
Q 1069 891 1326 650 
Q 1584 409 2034 409 
Q 2484 409 2743 651 
Q 3003 894 3003 1313 
Q 3003 1734 2745 1975 
Q 2488 2216 2034 2216 
z
M 1403 2484 
Q 997 2584 770 2862 
Q 544 3141 544 3541 
Q 544 4100 942 4425 
Q 1341 4750 2034 4750 
Q 2731 4750 3128 4425 
Q 3525 4100 3525 3541 
Q 3525 3141 3298 2862 
Q 3072 2584 2669 2484 
Q 3125 2378 3379 2068 
Q 3634 1759 3634 1313 
Q 3634 634 3220 271 
Q 2806 -91 2034 -91 
Q 1263 -91 848 271 
Q 434 634 434 1313 
Q 434 1759 690 2068 
Q 947 2378 1403 2484 
z
M 1172 3481 
Q 1172 3119 1398 2916 
Q 1625 2713 2034 2713 
Q 2441 2713 2670 2916 
Q 2900 3119 2900 3481 
Q 2900 3844 2670 4047 
Q 2441 4250 2034 4250 
Q 1625 4250 1398 4047 
Q 1172 3844 1172 3481 
z
" transform="scale(0.015625)"/>
       </defs>
       <use xlink:href="#DejaVuSans-30"/>
       <use xlink:href="#DejaVuSans-2e" transform="translate(63.623047 0)"/>
       <use xlink:href="#DejaVuSans-38" transform="translate(95.410156 0)"/>
      </g>
     </g>
    </g>
    <g id="ytick_6">
     <g id="line2d_12">
      <g>
       <use xlink:href="#m21f6864332" x="57.6" y="53.568" style="stroke: #000000; stroke-width: 0.8"/>
      </g>
     </g>
     <g id="text_13">
      <!-- 1.0 -->
      <g transform="translate(34.696875 57.367219) scale(0.1 -0.1)">
       <use xlink:href="#DejaVuSans-31"/>
       <use xlink:href="#DejaVuSans-2e" transform="translate(63.623047 0)"/>
       <use xlink:href="#DejaVuSans-30" transform="translate(95.410156 0)"/>
      </g>
     </g>
    </g>
    <g id="text_14">
     <!-- mole fraction -->
     <g transform="translate(28.617187 207.718625) rotate(-90) scale(0.1 -0.1)">
      <defs>
       <path id="DejaVuSans-6d" d="M 3328 2828 
Q 3544 3216 3844 3400 
Q 4144 3584 4550 3584 
Q 5097 3584 5394 3201 
Q 5691 2819 5691 2113 
L 5691 0 
L 5113 0 
L 5113 2094 
Q 5113 2597 4934 2840 
Q 4756 3084 4391 3084 
Q 3944 3084 3684 2787 
Q 3425 2491 3425 1978 
L 3425 0 
L 2847 0 
L 2847 2094 
Q 2847 2600 2669 2842 
Q 2491 3084 2119 3084 
Q 1678 3084 1418 2786 
Q 1159 2488 1159 1978 
L 1159 0 
L 581 0 
L 581 3500 
L 1159 3500 
L 1159 2956 
Q 1356 3278 1631 3431 
Q 1906 3584 2284 3584 
Q 2666 3584 2933 3390 
Q 3200 3197 3328 2828 
z
" transform="scale(0.015625)"/>
       <path id="DejaVuSans-6f" d="M 1959 3097 
Q 1497 3097 1228 2736 
Q 959 2375 959 1747 
Q 959 1119 1226 758 
Q 1494 397 1959 397 
Q 2419 397 2687 759 
Q 2956 1122 2956 1747 
Q 2956 2369 2687 2733 
Q 2419 3097 1959 3097 
z
M 1959 3584 
Q 2709 3584 3137 3096 
Q 3566 2609 3566 1747 
Q 3566 888 3137 398 
Q 2709 -91 1959 -91 
Q 1206 -91 779 398 
Q 353 888 353 1747 
Q 353 2609 779 3096 
Q 1206 3584 1959 3584 
z
" transform="scale(0.015625)"/>
       <path id="DejaVuSans-65" d="M 3597 1894 
L 3597 1613 
L 953 1613 
Q 991 1019 1311 708 
Q 1631 397 2203 397 
Q 2534 397 2845 478 
Q 3156 559 3463 722 
L 3463 178 
Q 3153 47 2828 -22 
Q 2503 -91 2169 -91 
Q 1331 -91 842 396 
Q 353 884 353 1716 
Q 353 2575 817 3079 
Q 1281 3584 2069 3584 
Q 2775 3584 3186 3129 
Q 3597 2675 3597 1894 
z
M 3022 2063 
Q 3016 2534 2758 2815 
Q 2500 3097 2075 3097 
Q 1594 3097 1305 2825 
Q 1016 2553 972 2059 
L 3022 2063 
z
" transform="scale(0.015625)"/>
       <path id="DejaVuSans-66" d="M 2375 4863 
L 2375 4384 
L 1825 4384 
Q 1516 4384 1395 4259 
Q 1275 4134 1275 3809 
L 1275 3500 
L 2222 3500 
L 2222 3053 
L 1275 3053 
L 1275 0 
L 697 0 
L 697 3053 
L 147 3053 
L 147 3500 
L 697 3500 
L 697 3744 
Q 697 4328 969 4595 
Q 1241 4863 1831 4863 
L 2375 4863 
z
" transform="scale(0.015625)"/>
       <path id="DejaVuSans-72" d="M 2631 2963 
Q 2534 3019 2420 3045 
Q 2306 3072 2169 3072 
Q 1681 3072 1420 2755 
Q 1159 2438 1159 1844 
L 1159 0 
L 581 0 
L 581 3500 
L 1159 3500 
L 1159 2956 
Q 1341 3275 1631 3429 
Q 1922 3584 2338 3584 
Q 2397 3584 2469 3576 
Q 2541 3569 2628 3553 
L 2631 2963 
z
" transform="scale(0.015625)"/>
       <path id="DejaVuSans-63" d="M 3122 3366 
L 3122 2828 
Q 2878 2963 2633 3030 
Q 2388 3097 2138 3097 
Q 1578 3097 1268 2742 
Q 959 2388 959 1747 
Q 959 1106 1268 751 
Q 1578 397 2138 397 
Q 2388 397 2633 464 
Q 2878 531 3122 666 
L 3122 134 
Q 2881 22 2623 -34 
Q 2366 -91 2075 -91 
Q 1284 -91 818 406 
Q 353 903 353 1747 
Q 353 2603 823 3093 
Q 1294 3584 2113 3584 
Q 2378 3584 2631 3529 
Q 2884 3475 3122 3366 
z
" transform="scale(0.015625)"/>
       <path id="DejaVuSans-74" d="M 1172 4494 
L 1172 3500 
L 2356 3500 
L 2356 3053 
L 1172 3053 
L 1172 1153 
Q 1172 725 1289 603 
Q 1406 481 1766 481 
L 2356 481 
L 2356 0 
L 1766 0 
Q 1100 0 847 248 
Q 594 497 594 1153 
L 594 3053 
L 172 3053 
L 172 3500 
L 594 3500 
L 594 4494 
L 1172 4494 
z
" transform="scale(0.015625)"/>
      </defs>
      <use xlink:href="#DejaVuSans-6d"/>
      <use xlink:href="#DejaVuSans-6f" transform="translate(97.412109 0)"/>
      <use xlink:href="#DejaVuSans-6c" transform="translate(158.59375 0)"/>
      <use xlink:href="#DejaVuSans-65" transform="translate(186.376953 0)"/>
      <use xlink:href="#DejaVuSans-20" transform="translate(247.900391 0)"/>
      <use xlink:href="#DejaVuSans-66" transform="translate(279.6875 0)"/>
      <use xlink:href="#DejaVuSans-72" transform="translate(314.892578 0)"/>
      <use xlink:href="#DejaVuSans-61" transform="translate(356.005859 0)"/>
      <use xlink:href="#DejaVuSans-63" transform="translate(417.285156 0)"/>
      <use xlink:href="#DejaVuSans-74" transform="translate(472.265625 0)"/>
      <use xlink:href="#DejaVuSans-69" transform="translate(511.474609 0)"/>
      <use xlink:href="#DejaVuSans-6f" transform="translate(539.257812 0)"/>
      <use xlink:href="#DejaVuSans-6e" transform="translate(600.439453 0)"/>
     </g>
    </g>
   </g>
   <g id="line2d_13">
    <defs>
     <path id="mb02e17a681" d="M 0 3 
C 0.795609 3 1.55874 2.683901 2.12132 2.12132 
C 2.683901 1.55874 3 0.795609 3 0 
C 3 -0.795609 2.683901 -1.55874 2.12132 -2.12132 
C 1.55874 -2.683901 0.795609 -3 0 -3 
C -0.795609 -3 -1.55874 -2.683901 -2.12132 -2.12132 
C -2.683901 -1.55874 -3 -0.795609 -3 0 
C -3 0.795609 -2.683901 1.55874 -2.12132 2.12132 
C -1.55874 2.683901 -0.795609 3 0 3 
z
" style="stroke: #808080"/>
    </defs>
    <g clip-path="url(#p446a46636e)">
     <use xlink:href="#mb02e17a681" x="73.832727" y="53.568" style="fill: #808080; stroke: #808080"/>
     <use xlink:href="#mb02e17a681" x="82.324848" y="161.391744" style="fill: #808080; stroke: #808080"/>
     <use xlink:href="#mb02e17a681" x="93.357786" y="255.428503" style="fill: #808080; stroke: #808080"/>
     <use xlink:href="#mb02e17a681" x="121.534617" y="288.409669" style="fill: #808080; stroke: #808080"/>
     <use xlink:href="#mb02e17a681" x="186.725208" y="295.488" style="fill: #808080; stroke: #808080"/>
     <use xlink:href="#mb02e17a681" x="244.818379" y="295.488" style="fill: #808080; stroke: #808080"/>
     <use xlink:href="#mb02e17a681" x="333.820724" y="295.488" style="fill: #808080; stroke: #808080"/>
    </g>
   </g>
   <g id="line2d_14">
    <path d="M 73.832727 53.568 
L 74.433939 53.970024 
L 75.035152 55.194381 
L 75.636364 57.264397 
L 76.237576 60.186218 
L 76.838788 63.947577 
L 78.041212 73.847025 
L 79.243636 86.510274 
L 81.047273 109.196832 
L 86.458182 181.217135 
L 88.261818 201.156026 
L 90.065455 218.115718 
L 91.869091 232.230396 
L 93.071515 240.213923 
L 94.273939 247.186404 
L 95.476364 253.261173 
L 96.678788 258.546364 
L 97.881212 263.141657 
L 99.083636 267.136846 
L 100.286061 270.611546 
L 102.089697 274.997916 
L 103.893333 278.566599 
L 105.69697 281.47719 
L 107.500606 283.857363 
L 109.304242 285.809056 
L 111.107879 287.413691 
L 112.911515 288.736412 
L 114.715152 289.829472 
L 117.12 291.001091 
L 119.524848 291.916215 
L 122.530909 292.787775 
L 125.53697 293.434536 
L 129.144242 293.998083 
L 133.953939 294.503799 
L 139.966061 294.88952 
L 148.38303 295.178142 
L 161.008485 295.363072 
L 185.658182 295.461092 
L 277.042424 295.487477 
L 398.487273 295.487979 
L 398.487273 295.487979 
" clip-path="url(#p446a46636e)" style="fill: none; stroke: #808080; stroke-width: 1.5; stroke-linecap: square"/>
   </g>
   <g id="line2d_15">
    <defs>
     <path id="maf47b4ad90" d="M 0 3 
C 0.795609 3 1.55874 2.683901 2.12132 2.12132 
C 2.683901 1.55874 3 0.795609 3 0 
C 3 -0.795609 2.683901 -1.55874 2.12132 -2.12132 
C 1.55874 -2.683901 0.795609 -3 0 -3 
C -0.795609 -3 -1.55874 -2.683901 -2.12132 -2.12132 
C -2.683901 -1.55874 -3 -0.795609 -3 0 
C -3 0.795609 -2.683901 1.55874 -2.12132 2.12132 
C -1.55874 2.683901 -0.795609 3 0 3 
z
" style="stroke: #ff9933"/>
    </defs>
    <g clip-path="url(#p446a46636e)">
     <use xlink:href="#maf47b4ad90" x="73.832727" y="295.488" style="fill: #ff9933; stroke: #ff9933"/>
     <use xlink:href="#maf47b4ad90" x="82.324848" y="215.509248" style="fill: #ff9933; stroke: #ff9933"/>
     <use xlink:href="#maf47b4ad90" x="93.357786" y="219.752895" style="fill: #ff9933; stroke: #ff9933"/>
     <use xlink:href="#maf47b4ad90" x="121.534617" y="276.411379" style="fill: #ff9933; stroke: #ff9933"/>
     <use xlink:href="#maf47b4ad90" x="186.725208" y="295.488" style="fill: #ff9933; stroke: #ff9933"/>
     <use xlink:href="#maf47b4ad90" x="244.818379" y="295.488" style="fill: #ff9933; stroke: #ff9933"/>
     <use xlink:href="#maf47b4ad90" x="333.820724" y="295.488" style="fill: #ff9933; stroke: #ff9933"/>
    </g>
   </g>
   <g id="line2d_16">
    <path d="M 73.832727 295.488 
L 102.089697 295.477865 
L 272.833939 295.487998 
L 398.487273 295.488 
L 398.487273 295.488 
" clip-path="url(#p446a46636e)" style="fill: none; stroke: #ff9933; stroke-width: 1.5; stroke-linecap: square"/>
   </g>
   <g id="line2d_17">
    <defs>
     <path id="m93036b6019" d="M 0 3 
C 0.795609 3 1.55874 2.683901 2.12132 2.12132 
C 2.683901 1.55874 3 0.795609 3 0 
C 3 -0.795609 2.683901 -1.55874 2.12132 -2.12132 
C 1.55874 -2.683901 0.795609 -3 0 -3 
C -0.795609 -3 -1.55874 -2.683901 -2.12132 -2.12132 
C -2.683901 -1.55874 -3 -0.795609 -3 0 
C -3 0.795609 -2.683901 1.55874 -2.12132 2.12132 
C -1.55874 2.683901 -0.795609 3 0 3 
z
" style="stroke: #ffd700"/>
    </defs>
    <g clip-path="url(#p446a46636e)">
     <use xlink:href="#m93036b6019" x="73.832727" y="295.488" style="fill: #ffd700; stroke: #ffd700"/>
     <use xlink:href="#m93036b6019" x="82.324848" y="274.102272" style="fill: #ffd700; stroke: #ffd700"/>
     <use xlink:href="#m93036b6019" x="93.357786" y="229.052697" style="fill: #ffd700; stroke: #ffd700"/>
     <use xlink:href="#m93036b6019" x="121.534617" y="259.308135" style="fill: #ffd700; stroke: #ffd700"/>
     <use xlink:href="#m93036b6019" x="186.725208" y="295.488" style="fill: #ffd700; stroke: #ffd700"/>
     <use xlink:href="#m93036b6019" x="244.818379" y="295.488" style="fill: #ffd700; stroke: #ffd700"/>
     <use xlink:href="#m93036b6019" x="333.820724" y="295.488" style="fill: #ffd700; stroke: #ffd700"/>
    </g>
   </g>
   <g id="line2d_18">
    <path d="M 73.832727 295.488 
L 74.433939 295.096206 
L 75.035152 293.928768 
L 75.636364 292.009951 
L 76.237576 289.380639 
L 77.44 282.232982 
L 78.642424 273.102257 
L 81.047273 251.970579 
L 82.850909 236.541625 
L 84.053333 227.516441 
L 85.255758 219.87242 
L 86.458182 213.738991 
L 87.660606 209.115605 
L 88.86303 205.912641 
L 89.464242 204.800611 
L 90.065455 203.987951 
L 90.666667 203.453341 
L 91.267879 203.175239 
L 91.869091 203.132313 
L 92.470303 203.303766 
L 93.071515 203.669573 
L 93.672727 204.21065 
L 94.875152 205.747581 
L 96.077576 207.783714 
L 97.881212 211.531648 
L 99.684848 215.841943 
L 102.690909 223.658077 
L 108.101818 237.844431 
L 111.107879 245.138269 
L 114.113939 251.794216 
L 116.518788 256.61919 
L 118.923636 260.995506 
L 121.328485 264.935512 
L 123.733333 268.461367 
L 126.138182 271.601181 
L 128.54303 274.386194 
L 130.947879 276.848747 
L 133.352727 279.020857 
L 135.757576 280.933261 
L 138.763636 283.002287 
L 141.769697 284.761807 
L 144.775758 286.257359 
L 147.781818 287.528693 
L 151.389091 288.806263 
L 154.996364 289.860039 
L 159.204848 290.860932 
L 164.014545 291.766601 
L 169.425455 292.552928 
L 176.038788 293.267902 
L 183.854545 293.86765 
L 193.473939 294.364761 
L 206.099394 294.77063 
L 222.933333 295.072855 
L 248.785455 295.290975 
L 295.078788 295.423521 
L 398.487273 295.477968 
L 398.487273 295.477968 
" clip-path="url(#p446a46636e)" style="fill: none; stroke: #ffd700; stroke-width: 1.5; stroke-linecap: square"/>
   </g>
   <g id="line2d_19">
    <defs>
     <path id="med33dfdd49" d="M 0 3 
C 0.795609 3 1.55874 2.683901 2.12132 2.12132 
C 2.683901 1.55874 3 0.795609 3 0 
C 3 -0.795609 2.683901 -1.55874 2.12132 -2.12132 
C 1.55874 -2.683901 0.795609 -3 0 -3 
C -0.795609 -3 -1.55874 -2.683901 -2.12132 -2.12132 
C -2.683901 -1.55874 -3 -0.795609 -3 0 
C -3 0.795609 -2.683901 1.55874 -2.12132 2.12132 
C -1.55874 2.683901 -0.795609 3 0 3 
z
" style="stroke: #7fff00"/>
    </defs>
    <g clip-path="url(#p446a46636e)">
     <use xlink:href="#med33dfdd49" x="73.832727" y="295.488" style="fill: #7fff00; stroke: #7fff00"/>
     <use xlink:href="#med33dfdd49" x="82.324848" y="289.028736" style="fill: #7fff00; stroke: #7fff00"/>
     <use xlink:href="#med33dfdd49" x="93.357786" y="262.001577" style="fill: #7fff00; stroke: #7fff00"/>
     <use xlink:href="#med33dfdd49" x="121.534617" y="251.435719" style="fill: #7fff00; stroke: #7fff00"/>
     <use xlink:href="#med33dfdd49" x="186.725208" y="282.272855" style="fill: #7fff00; stroke: #7fff00"/>
     <use xlink:href="#med33dfdd49" x="244.818379" y="295.488" style="fill: #7fff00; stroke: #7fff00"/>
     <use xlink:href="#med33dfdd49" x="333.820724" y="295.488" style="fill: #7fff00; stroke: #7fff00"/>
    </g>
   </g>
   <g id="line2d_20">
    <path d="M 73.832727 295.488 
L 75.035152 295.427691 
L 75.636364 295.286211 
L 76.237576 295.015551 
L 76.838788 294.579998 
L 77.44 293.949941 
L 78.041212 293.102969 
L 78.642424 292.024597 
L 79.844848 289.156632 
L 81.047273 285.388824 
L 82.249697 280.867152 
L 84.053333 273.141079 
L 88.261818 254.576766 
L 90.065455 247.710148 
L 91.869091 241.905073 
L 93.071515 238.665366 
L 94.273939 235.928896 
L 95.476364 233.679831 
L 96.678788 231.893897 
L 97.881212 230.541599 
L 99.083636 229.59056 
L 100.286061 229.00717 
L 101.488485 228.757714 
L 102.690909 228.809139 
L 103.893333 229.129546 
L 105.095758 229.688505 
L 106.298182 230.457239 
L 108.101818 231.945068 
L 109.905455 233.760977 
L 112.310303 236.565166 
L 115.316364 240.476833 
L 121.929697 249.64106 
L 126.739394 256.075339 
L 130.346667 260.536325 
L 133.953939 264.611094 
L 136.96 267.695113 
L 139.966061 270.497341 
L 142.972121 273.028366 
L 145.978182 275.304141 
L 148.984242 277.343596 
L 152.591515 279.507464 
L 156.198788 281.395079 
L 159.806061 283.039811 
L 164.014545 284.692594 
L 168.22303 286.100204 
L 173.032727 287.457005 
L 177.842424 288.590657 
L 183.253333 289.648196 
L 189.265455 290.605602 
L 196.48 291.5181 
L 204.89697 292.336341 
L 214.516364 293.035072 
L 225.939394 293.635613 
L 240.368485 294.15771 
L 259.006061 294.590323 
L 284.25697 294.932939 
L 320.930909 295.1871 
L 381.653333 295.359149 
L 398.487273 295.383234 
L 398.487273 295.383234 
" clip-path="url(#p446a46636e)" style="fill: none; stroke: #7fff00; stroke-width: 1.5; stroke-linecap: square"/>
   </g>
   <g id="line2d_21">
    <defs>
     <path id="mdb3aaeabda" d="M 0 3 
C 0.795609 3 1.55874 2.683901 2.12132 2.12132 
C 2.683901 1.55874 3 0.795609 3 0 
C 3 -0.795609 2.683901 -1.55874 2.12132 -2.12132 
C 1.55874 -2.683901 0.795609 -3 0 -3 
C -0.795609 -3 -1.55874 -2.683901 -2.12132 -2.12132 
C -2.683901 -1.55874 -3 -0.795609 -3 0 
C -3 0.795609 -2.683901 1.55874 -2.12132 2.12132 
C -1.55874 2.683901 -0.795609 3 0 3 
z
" style="stroke: #00eeff"/>
    </defs>
    <g clip-path="url(#p446a46636e)">
     <use xlink:href="#mdb3aaeabda" x="73.832727" y="295.488" style="fill: #00eeff; stroke: #00eeff"/>
     <use xlink:href="#mdb3aaeabda" x="82.324848" y="295.488" style="fill: #00eeff; stroke: #00eeff"/>
     <use xlink:href="#mdb3aaeabda" x="93.357786" y="279.341506" style="fill: #00eeff; stroke: #00eeff"/>
     <use xlink:href="#mdb3aaeabda" x="121.534617" y="257.600725" style="fill: #00eeff; stroke: #00eeff"/>
     <use xlink:href="#mdb3aaeabda" x="186.725208" y="274.987572" style="fill: #00eeff; stroke: #00eeff"/>
     <use xlink:href="#mdb3aaeabda" x="244.818379" y="279.565448" style="fill: #00eeff; stroke: #00eeff"/>
     <use xlink:href="#mdb3aaeabda" x="333.820724" y="287.225333" style="fill: #00eeff; stroke: #00eeff"/>
    </g>
   </g>
   <g id="line2d_22">
    <path d="M 73.832727 295.488 
L 76.838788 295.422262 
L 78.041212 295.246257 
L 79.243636 294.865152 
L 80.446061 294.196275 
L 81.648485 293.176833 
L 82.850909 291.773988 
L 84.053333 289.987163 
L 85.255758 287.843973 
L 87.059394 284.069851 
L 89.464242 278.320885 
L 96.077576 261.865656 
L 98.482424 256.620346 
L 100.286061 253.132355 
L 102.089697 250.067984 
L 103.893333 247.445184 
L 105.69697 245.267755 
L 107.500606 243.528168 
L 109.304242 242.20997 
L 110.506667 241.554002 
L 111.709091 241.066867 
L 113.512727 240.632936 
L 115.316364 240.526049 
L 117.12 240.71212 
L 118.923636 241.156606 
L 120.727273 241.825443 
L 123.132121 243.009688 
L 125.53697 244.461828 
L 128.54303 246.554517 
L 132.751515 249.809429 
L 147.781818 261.767871 
L 152.591515 265.175285 
L 156.8 267.907099 
L 161.008485 270.401273 
L 165.21697 272.66443 
L 170.026667 274.98461 
L 174.836364 277.043954 
L 179.646061 278.868456 
L 185.05697 280.672288 
L 190.467879 282.245745 
L 196.48 283.761406 
L 203.093333 285.188492 
L 210.307879 286.50598 
L 218.123636 287.70189 
L 227.141818 288.840925 
L 236.761212 289.830578 
L 248.184242 290.77219 
L 261.410909 291.623471 
L 276.441212 292.363053 
L 294.477576 293.024059 
L 316.722424 293.608008 
L 344.979394 294.113219 
L 381.653333 294.53274 
L 398.487273 294.668829 
L 398.487273 294.668829 
" clip-path="url(#p446a46636e)" style="fill: none; stroke: #00eeff; stroke-width: 1.5; stroke-linecap: square"/>
   </g>
   <g id="line2d_23">
    <defs>
     <path id="m9cf641b2ed" d="M 0 3 
C 0.795609 3 1.55874 2.683901 2.12132 2.12132 
C 2.683901 1.55874 3 0.795609 3 0 
C 3 -0.795609 2.683901 -1.55874 2.12132 -2.12132 
C 1.55874 -2.683901 0.795609 -3 0 -3 
C -0.795609 -3 -1.55874 -2.683901 -2.12132 -2.12132 
C -2.683901 -1.55874 -3 -0.795609 -3 0 
C -3 0.795609 -2.683901 1.55874 -2.12132 2.12132 
C -1.55874 2.683901 -0.795609 3 0 3 
z
" style="stroke: #0331fc"/>
    </defs>
    <g clip-path="url(#p446a46636e)">
     <use xlink:href="#m9cf641b2ed" x="73.832727" y="295.488" style="fill: #0331fc; stroke: #0331fc"/>
     <use xlink:href="#m9cf641b2ed" x="82.324848" y="295.488" style="fill: #0331fc; stroke: #0331fc"/>
     <use xlink:href="#m9cf641b2ed" x="93.357786" y="285.430823" style="fill: #0331fc; stroke: #0331fc"/>
     <use xlink:href="#m9cf641b2ed" x="121.534617" y="268.261705" style="fill: #0331fc; stroke: #0331fc"/>
     <use xlink:href="#m9cf641b2ed" x="186.725208" y="269.629879" style="fill: #0331fc; stroke: #0331fc"/>
     <use xlink:href="#m9cf641b2ed" x="244.818379" y="274.885936" style="fill: #0331fc; stroke: #0331fc"/>
     <use xlink:href="#m9cf641b2ed" x="333.820724" y="283.871896" style="fill: #0331fc; stroke: #0331fc"/>
    </g>
   </g>
   <g id="line2d_24">
    <path d="M 73.832727 295.488 
L 79.844848 295.395118 
L 81.648485 295.1836 
L 83.452121 294.74872 
L 85.255758 294.01655 
L 87.059394 292.942998 
L 88.86303 291.517163 
L 90.666667 289.756095 
L 92.470303 287.696605 
L 94.875152 284.571946 
L 97.881212 280.243717 
L 107.500606 266.008134 
L 110.506667 262.155937 
L 112.911515 259.433905 
L 115.316364 257.065911 
L 117.721212 255.065761 
L 120.126061 253.433093 
L 121.929697 252.443045 
L 123.733333 251.645058 
L 126.138182 250.861838 
L 128.54303 250.373384 
L 130.947879 250.14891 
L 133.352727 250.15679 
L 135.757576 250.365872 
L 138.763636 250.865069 
L 141.769697 251.578911 
L 145.37697 252.652536 
L 150.186667 254.340265 
L 156.8 256.926201 
L 174.836364 264.094827 
L 182.652121 266.904794 
L 189.866667 269.273051 
L 197.081212 271.422328 
L 204.89697 273.515261 
L 212.712727 275.382891 
L 221.129697 277.168218 
L 230.147879 278.852218 
L 239.767273 280.422786 
L 250.589091 281.9529 
L 262.012121 283.340069 
L 274.637576 284.648366 
L 288.465455 285.860257 
L 304.09697 287.006824 
L 322.133333 288.097581 
L 342.574545 289.101538 
L 366.021818 290.023511 
L 393.677576 290.878146 
L 398.487273 291.006351 
L 398.487273 291.006351 
" clip-path="url(#p446a46636e)" style="fill: none; stroke: #0331fc; stroke-width: 1.5; stroke-linecap: square"/>
   </g>
   <g id="line2d_25">
    <defs>
     <path id="m0a2bb25535" d="M 0 3 
C 0.795609 3 1.55874 2.683901 2.12132 2.12132 
C 2.683901 1.55874 3 0.795609 3 0 
C 3 -0.795609 2.683901 -1.55874 2.12132 -2.12132 
C 1.55874 -2.683901 0.795609 -3 0 -3 
C -0.795609 -3 -1.55874 -2.683901 -2.12132 -2.12132 
C -2.683901 -1.55874 -3 -0.795609 -3 0 
C -3 0.795609 -2.683901 1.55874 -2.12132 2.12132 
C -1.55874 2.683901 -0.795609 3 0 3 
z
" style="stroke: #ba1e8c"/>
    </defs>
    <g clip-path="url(#p446a46636e)">
     <use xlink:href="#m0a2bb25535" x="73.832727" y="295.488" style="fill: #ba1e8c; stroke: #ba1e8c"/>
     <use xlink:href="#m0a2bb25535" x="82.324848" y="295.488" style="fill: #ba1e8c; stroke: #ba1e8c"/>
     <use xlink:href="#m0a2bb25535" x="93.357786" y="295.488" style="fill: #ba1e8c; stroke: #ba1e8c"/>
     <use xlink:href="#m0a2bb25535" x="121.534617" y="274.856401" style="fill: #ba1e8c; stroke: #ba1e8c"/>
     <use xlink:href="#m0a2bb25535" x="186.725208" y="273.478333" style="fill: #ba1e8c; stroke: #ba1e8c"/>
     <use xlink:href="#m0a2bb25535" x="244.818379" y="277.977805" style="fill: #ba1e8c; stroke: #ba1e8c"/>
     <use xlink:href="#m0a2bb25535" x="333.820724" y="284.4867" style="fill: #ba1e8c; stroke: #ba1e8c"/>
    </g>
   </g>
   <g id="line2d_26">
    <path d="M 73.832727 295.488 
L 84.053333 295.391508 
L 87.059394 295.152566 
L 89.464242 294.783615 
L 91.869091 294.216494 
L 94.273939 293.430626 
L 96.678788 292.421126 
L 99.083636 291.197136 
L 102.089697 289.398115 
L 105.69697 286.925577 
L 110.506667 283.306847 
L 118.923636 276.938188 
L 123.132121 274.070257 
L 126.739394 271.88256 
L 130.346667 269.973923 
L 133.953939 268.350984 
L 137.561212 267.005597 
L 141.168485 265.919822 
L 144.775758 265.070063 
L 148.38303 264.430193 
L 152.591515 263.913713 
L 157.401212 263.578062 
L 162.210909 263.462693 
L 168.22303 263.558589 
L 174.836364 263.891362 
L 183.253333 264.546544 
L 194.676364 265.67458 
L 220.528485 268.532341 
L 243.975758 271.001363 
L 264.41697 272.922702 
L 284.858182 274.619122 
L 306.501818 276.191963 
L 329.949091 277.67187 
L 355.801212 279.077674 
L 384.659394 280.41841 
L 398.487273 280.989337 
L 398.487273 280.989337 
" clip-path="url(#p446a46636e)" style="fill: none; stroke: #ba1e8c; stroke-width: 1.5; stroke-linecap: square"/>
   </g>
   <g id="line2d_27">
    <defs>
     <path id="m1ee510a799" d="M 0 3 
C 0.795609 3 1.55874 2.683901 2.12132 2.12132 
C 2.683901 1.55874 3 0.795609 3 0 
C 3 -0.795609 2.683901 -1.55874 2.12132 -2.12132 
C 1.55874 -2.683901 0.795609 -3 0 -3 
C -0.795609 -3 -1.55874 -2.683901 -2.12132 -2.12132 
C -2.683901 -1.55874 -3 -0.795609 -3 0 
C -3 0.795609 -2.683901 1.55874 -2.12132 2.12132 
C -1.55874 2.683901 -0.795609 3 0 3 
z
" style="stroke: #b30505"/>
    </defs>
    <g clip-path="url(#p446a46636e)">
     <use xlink:href="#m1ee510a799" x="73.832727" y="295.488" style="fill: #b30505; stroke: #b30505"/>
     <use xlink:href="#m1ee510a799" x="82.324848" y="295.488" style="fill: #b30505; stroke: #b30505"/>
     <use xlink:href="#m1ee510a799" x="93.357786" y="295.488" style="fill: #b30505; stroke: #b30505"/>
     <use xlink:href="#m1ee510a799" x="121.534617" y="245.700267" style="fill: #b30505; stroke: #b30505"/>
     <use xlink:href="#m1ee510a799" x="186.725208" y="135.151361" style="fill: #b30505; stroke: #b30505"/>
     <use xlink:href="#m1ee510a799" x="244.818379" y="107.602811" style="fill: #b30505; stroke: #b30505"/>
     <use xlink:href="#m1ee510a799" x="333.820724" y="84.448071" style="fill: #b30505; stroke: #b30505"/>
    </g>
   </g>
   <g id="line2d_28">
    <path d="M 73.832727 295.488 
L 85.255758 295.397762 
L 88.261818 295.149734 
L 90.666667 294.724597 
L 92.470303 294.216029 
L 94.273939 293.504489 
L 96.077576 292.556825 
L 97.881212 291.344515 
L 99.684848 289.844886 
L 101.488485 288.041966 
L 103.292121 285.926956 
L 105.095758 283.498346 
L 106.899394 280.76168 
L 109.304242 276.655295 
L 111.709091 272.067414 
L 114.715152 265.744879 
L 117.721212 258.894423 
L 121.929697 248.688521 
L 138.763636 207.069247 
L 142.972121 197.592045 
L 147.180606 188.709137 
L 150.787879 181.58964 
L 154.395152 174.92705 
L 158.002424 168.710388 
L 161.609697 162.921459 
L 165.21697 157.537633 
L 168.824242 152.533895 
L 172.431515 147.884317 
L 176.038788 143.56307 
L 179.646061 139.545096 
L 183.854545 135.209001 
L 188.06303 131.217855 
L 192.271515 127.539128 
L 196.48 124.143201 
L 201.289697 120.574175 
L 206.099394 117.303832 
L 210.909091 114.300525 
L 216.32 111.206341 
L 221.730909 108.380031 
L 227.141818 105.791356 
L 233.153939 103.161913 
L 239.767273 100.533957 
L 246.380606 98.148865 
L 253.595152 95.788785 
L 261.410909 93.47986 
L 269.827879 91.24256 
L 278.846061 89.092103 
L 288.465455 87.03905 
L 298.686061 85.089979 
L 309.507879 83.248179 
L 321.532121 81.428395 
L 334.758788 79.658431 
L 349.187879 77.958686 
L 364.819394 76.343013 
L 382.254545 74.769031 
L 398.487273 73.482302 
L 398.487273 73.482302 
" clip-path="url(#p446a46636e)" style="fill: none; stroke: #b30505; stroke-width: 1.5; stroke-linecap: square"/>
   </g>
   <g id="patch_3">
    <path d="M 57.6 307.584 
L 57.6 41.472 
" style="fill: none; stroke: #000000; stroke-width: 0.8; stroke-linejoin: miter; stroke-linecap: square"/>
   </g>
   <g id="patch_4">
    <path d="M 414.72 307.584 
L 414.72 41.472 
" style="fill: none; stroke: #000000; stroke-width: 0.8; stroke-linejoin: miter; stroke-linecap: square"/>
   </g>
   <g id="patch_5">
    <path d="M 57.6 307.584 
L 414.72 307.584 
" style="fill: none; stroke: #000000; stroke-width: 0.8; stroke-linejoin: miter; stroke-linecap: square"/>
   </g>
   <g id="patch_6">
    <path d="M 57.6 41.472 
L 414.72 41.472 
" style="fill: none; stroke: #000000; stroke-width: 0.8; stroke-linejoin: miter; stroke-linecap: square"/>
   </g>
  </g>
 </g>
 <defs>
  <clipPath id="p446a46636e">
   <rect x="57.6" y="41.472" width="357.12" height="266.112"/>
  </clipPath>
 </defs>
</svg>
