<?xml version="1.0" encoding="utf-8" standalone="no"?>
<!DOCTYPE svg PUBLIC "-//W3C//DTD SVG 1.1//EN"
  "http://www.w3.org/Graphics/SVG/1.1/DTD/svg11.dtd">
<svg xmlns:xlink="http://www.w3.org/1999/xlink" width="460.8pt" height="345.6pt" viewBox="0 0 460.8 345.6" xmlns="http://www.w3.org/2000/svg" version="1.1">
 <metadata>
  <rdf:RDF xmlns:dc="http://purl.org/dc/elements/1.1/" xmlns:cc="http://creativecommons.org/ns#" xmlns:rdf="http://www.w3.org/1999/02/22-rdf-syntax-ns#">
   <cc:Work>
    <dc:type rdf:resource="http://purl.org/dc/dcmitype/StillImage"/>
    <dc:date>2025-05-08T22:21:59.127579</dc:date>
    <dc:format>image/svg+xml</dc:format>
    <dc:creator>
     <cc:Agent>
      <dc:title>Matplotlib v3.10.1, https://matplotlib.org/</dc:title>
     </cc:Agent>
    </dc:creator>
   </cc:Work>
  </rdf:RDF>
 </metadata>
 <defs>
  <style type="text/css">*{stroke-linejoin: round; stroke-linecap: butt}</style>
 </defs>
 <g id="figure_1">
  <g id="patch_1">
   <path d="M 0 345.6 
L 460.8 345.6 
L 460.8 0 
L 0 0 
z
" style="fill: #ffffff"/>
  </g>
  <g id="axes_1">
   <g id="patch_2">
    <path d="M 57.6 307.584 
L 414.72 307.584 
L 414.72 41.472 
L 57.6 41.472 
z
" style="fill: #ffffff"/>
   </g>
   <g id="matplotlib.axis_1">
    <g id="xtick_1">
     <g id="line2d_1">
      <defs>
       <path id="me45ed9119b" d="M 0 0 
L 0 3.5 
" style="stroke: #000000; stroke-width: 0.8"/>
      </defs>
      <g>
       <use xlink:href="#me45ed9119b" x="73.832727" y="307.584" style="stroke: #000000; stroke-width: 0.8"/>
      </g>
     </g>
     <g id="text_1">
      <!-- 0 -->
      <g transform="translate(70.651477 322.182437) scale(0.1 -0.1)">
       <defs>
        <path id="DejaVuSans-30" d="M 2034 4250 
Q 1547 4250 1301 3770 
Q 1056 3291 1056 2328 
Q 1056 1369 1301 889 
Q 1547 409 2034 409 
Q 2525 409 2770 889 
Q 3016 1369 3016 2328 
Q 3016 3291 2770 3770 
Q 2525 4250 2034 4250 
z
M 2034 4750 
Q 2819 4750 3233 4129 
Q 3647 3509 3647 2328 
Q 3647 1150 3233 529 
Q 2819 -91 2034 -91 
Q 1250 -91 836 529 
Q 422 1150 422 2328 
Q 422 3509 836 4129 
Q 1250 4750 2034 4750 
z
" transform="scale(0.015625)"/>
       </defs>
       <use xlink:href="#DejaVuSans-30"/>
      </g>
     </g>
    </g>
    <g id="xtick_2">
     <g id="line2d_2">
      <g>
       <use xlink:href="#me45ed9119b" x="133.73209" y="307.584" style="stroke: #000000; stroke-width: 0.8"/>
      </g>
     </g>
     <g id="text_2">
      <!-- 10 -->
      <g transform="translate(127.36959 322.182437) scale(0.1 -0.1)">
       <defs>
        <path id="DejaVuSans-31" d="M 794 531 
L 1825 531 
L 1825 4091 
L 703 3866 
L 703 4441 
L 1819 4666 
L 2450 4666 
L 2450 531 
L 3481 531 
L 3481 0 
L 794 0 
L 794 531 
z
" transform="scale(0.015625)"/>
       </defs>
       <use xlink:href="#DejaVuSans-31"/>
       <use xlink:href="#DejaVuSans-30" transform="translate(63.623047 0)"/>
      </g>
     </g>
    </g>
    <g id="xtick_3">
     <g id="line2d_3">
      <g>
       <use xlink:href="#me45ed9119b" x="193.631453" y="307.584" style="stroke: #000000; stroke-width: 0.8"/>
      </g>
     </g>
     <g id="text_3">
      <!-- 20 -->
      <g transform="translate(187.268953 322.182437) scale(0.1 -0.1)">
       <defs>
        <path id="DejaVuSans-32" d="M 1228 531 
L 3431 531 
L 3431 0 
L 469 0 
L 469 531 
Q 828 903 1448 1529 
Q 2069 2156 2228 2338 
Q 2531 2678 2651 2914 
Q 2772 3150 2772 3378 
Q 2772 3750 2511 3984 
Q 2250 4219 1831 4219 
Q 1534 4219 1204 4116 
Q 875 4013 500 3803 
L 500 4441 
Q 881 4594 1212 4672 
Q 1544 4750 1819 4750 
Q 2544 4750 2975 4387 
Q 3406 4025 3406 3419 
Q 3406 3131 3298 2873 
Q 3191 2616 2906 2266 
Q 2828 2175 2409 1742 
Q 1991 1309 1228 531 
z
" transform="scale(0.015625)"/>
       </defs>
       <use xlink:href="#DejaVuSans-32"/>
       <use xlink:href="#DejaVuSans-30" transform="translate(63.623047 0)"/>
      </g>
     </g>
    </g>
    <g id="xtick_4">
     <g id="line2d_4">
      <g>
       <use xlink:href="#me45ed9119b" x="253.530815" y="307.584" style="stroke: #000000; stroke-width: 0.8"/>
      </g>
     </g>
     <g id="text_4">
      <!-- 30 -->
      <g transform="translate(247.168315 322.182437) scale(0.1 -0.1)">
       <defs>
        <path id="DejaVuSans-33" d="M 2597 2516 
Q 3050 2419 3304 2112 
Q 3559 1806 3559 1356 
Q 3559 666 3084 287 
Q 2609 -91 1734 -91 
Q 1441 -91 1130 -33 
Q 819 25 488 141 
L 488 750 
Q 750 597 1062 519 
Q 1375 441 1716 441 
Q 2309 441 2620 675 
Q 2931 909 2931 1356 
Q 2931 1769 2642 2001 
Q 2353 2234 1838 2234 
L 1294 2234 
L 1294 2753 
L 1863 2753 
Q 2328 2753 2575 2939 
Q 2822 3125 2822 3475 
Q 2822 3834 2567 4026 
Q 2313 4219 1838 4219 
Q 1578 4219 1281 4162 
Q 984 4106 628 3988 
L 628 4550 
Q 988 4650 1302 4700 
Q 1616 4750 1894 4750 
Q 2613 4750 3031 4423 
Q 3450 4097 3450 3541 
Q 3450 3153 3228 2886 
Q 3006 2619 2597 2516 
z
" transform="scale(0.015625)"/>
       </defs>
       <use xlink:href="#DejaVuSans-33"/>
       <use xlink:href="#DejaVuSans-30" transform="translate(63.623047 0)"/>
      </g>
     </g>
    </g>
    <g id="xtick_5">
     <g id="line2d_5">
      <g>
       <use xlink:href="#me45ed9119b" x="313.430178" y="307.584" style="stroke: #000000; stroke-width: 0.8"/>
      </g>
     </g>
     <g id="text_5">
      <!-- 40 -->
      <g transform="translate(307.067678 322.182437) scale(0.1 -0.1)">
       <defs>
        <path id="DejaVuSans-34" d="M 2419 4116 
L 825 1625 
L 2419 1625 
L 2419 4116 
z
M 2253 4666 
L 3047 4666 
L 3047 1625 
L 3713 1625 
L 3713 1100 
L 3047 1100 
L 3047 0 
L 2419 0 
L 2419 1100 
L 313 1100 
L 313 1709 
L 2253 4666 
z
" transform="scale(0.015625)"/>
       </defs>
       <use xlink:href="#DejaVuSans-34"/>
       <use xlink:href="#DejaVuSans-30" transform="translate(63.623047 0)"/>
      </g>
     </g>
    </g>
    <g id="xtick_6">
     <g id="line2d_6">
      <g>
       <use xlink:href="#me45ed9119b" x="373.32954" y="307.584" style="stroke: #000000; stroke-width: 0.8"/>
      </g>
     </g>
     <g id="text_6">
      <!-- 50 -->
      <g transform="translate(366.96704 322.182437) scale(0.1 -0.1)">
       <defs>
        <path id="DejaVuSans-35" d="M 691 4666 
L 3169 4666 
L 3169 4134 
L 1269 4134 
L 1269 2991 
Q 1406 3038 1543 3061 
Q 1681 3084 1819 3084 
Q 2600 3084 3056 2656 
Q 3513 2228 3513 1497 
Q 3513 744 3044 326 
Q 2575 -91 1722 -91 
Q 1428 -91 1123 -41 
Q 819 9 494 109 
L 494 744 
Q 775 591 1075 516 
Q 1375 441 1709 441 
Q 2250 441 2565 725 
Q 2881 1009 2881 1497 
Q 2881 1984 2565 2268 
Q 2250 2553 1709 2553 
Q 1456 2553 1204 2497 
Q 953 2441 691 2322 
L 691 4666 
z
" transform="scale(0.015625)"/>
       </defs>
       <use xlink:href="#DejaVuSans-35"/>
       <use xlink:href="#DejaVuSans-30" transform="translate(63.623047 0)"/>
      </g>
     </g>
    </g>
    <g id="text_7">
     <!-- [ligand] (uM) -->
     <g transform="translate(203.925625 335.860562) scale(0.1 -0.1)">
      <defs>
       <path id="DejaVuSans-5b" d="M 550 4863 
L 1875 4863 
L 1875 4416 
L 1125 4416 
L 1125 -397 
L 1875 -397 
L 1875 -844 
L 550 -844 
L 550 4863 
z
" transform="scale(0.015625)"/>
       <path id="DejaVuSans-6c" d="M 603 4863 
L 1178 4863 
L 1178 0 
L 603 0 
L 603 4863 
z
" transform="scale(0.015625)"/>
       <path id="DejaVuSans-69" d="M 603 3500 
L 1178 3500 
L 1178 0 
L 603 0 
L 603 3500 
z
M 603 4863 
L 1178 4863 
L 1178 4134 
L 603 4134 
L 603 4863 
z
" transform="scale(0.015625)"/>
       <path id="DejaVuSans-67" d="M 2906 1791 
Q 2906 2416 2648 2759 
Q 2391 3103 1925 3103 
Q 1463 3103 1205 2759 
Q 947 2416 947 1791 
Q 947 1169 1205 825 
Q 1463 481 1925 481 
Q 2391 481 2648 825 
Q 2906 1169 2906 1791 
z
M 3481 434 
Q 3481 -459 3084 -895 
Q 2688 -1331 1869 -1331 
Q 1566 -1331 1297 -1286 
Q 1028 -1241 775 -1147 
L 775 -588 
Q 1028 -725 1275 -790 
Q 1522 -856 1778 -856 
Q 2344 -856 2625 -561 
Q 2906 -266 2906 331 
L 2906 616 
Q 2728 306 2450 153 
Q 2172 0 1784 0 
Q 1141 0 747 490 
Q 353 981 353 1791 
Q 353 2603 747 3093 
Q 1141 3584 1784 3584 
Q 2172 3584 2450 3431 
Q 2728 3278 2906 2969 
L 2906 3500 
L 3481 3500 
L 3481 434 
z
" transform="scale(0.015625)"/>
       <path id="DejaVuSans-61" d="M 2194 1759 
Q 1497 1759 1228 1600 
Q 959 1441 959 1056 
Q 959 750 1161 570 
Q 1363 391 1709 391 
Q 2188 391 2477 730 
Q 2766 1069 2766 1631 
L 2766 1759 
L 2194 1759 
z
M 3341 1997 
L 3341 0 
L 2766 0 
L 2766 531 
Q 2569 213 2275 61 
Q 1981 -91 1556 -91 
Q 1019 -91 701 211 
Q 384 513 384 1019 
Q 384 1609 779 1909 
Q 1175 2209 1959 2209 
L 2766 2209 
L 2766 2266 
Q 2766 2663 2505 2880 
Q 2244 3097 1772 3097 
Q 1472 3097 1187 3025 
Q 903 2953 641 2809 
L 641 3341 
Q 956 3463 1253 3523 
Q 1550 3584 1831 3584 
Q 2591 3584 2966 3190 
Q 3341 2797 3341 1997 
z
" transform="scale(0.015625)"/>
       <path id="DejaVuSans-6e" d="M 3513 2113 
L 3513 0 
L 2938 0 
L 2938 2094 
Q 2938 2591 2744 2837 
Q 2550 3084 2163 3084 
Q 1697 3084 1428 2787 
Q 1159 2491 1159 1978 
L 1159 0 
L 581 0 
L 581 3500 
L 1159 3500 
L 1159 2956 
Q 1366 3272 1645 3428 
Q 1925 3584 2291 3584 
Q 2894 3584 3203 3211 
Q 3513 2838 3513 2113 
z
" transform="scale(0.015625)"/>
       <path id="DejaVuSans-64" d="M 2906 2969 
L 2906 4863 
L 3481 4863 
L 3481 0 
L 2906 0 
L 2906 525 
Q 2725 213 2448 61 
Q 2172 -91 1784 -91 
Q 1150 -91 751 415 
Q 353 922 353 1747 
Q 353 2572 751 3078 
Q 1150 3584 1784 3584 
Q 2172 3584 2448 3432 
Q 2725 3281 2906 2969 
z
M 947 1747 
Q 947 1113 1208 752 
Q 1469 391 1925 391 
Q 2381 391 2643 752 
Q 2906 1113 2906 1747 
Q 2906 2381 2643 2742 
Q 2381 3103 1925 3103 
Q 1469 3103 1208 2742 
Q 947 2381 947 1747 
z
" transform="scale(0.015625)"/>
       <path id="DejaVuSans-5d" d="M 1947 4863 
L 1947 -844 
L 622 -844 
L 622 -397 
L 1369 -397 
L 1369 4416 
L 622 4416 
L 622 4863 
L 1947 4863 
z
" transform="scale(0.015625)"/>
       <path id="DejaVuSans-20" transform="scale(0.015625)"/>
       <path id="DejaVuSans-28" d="M 1984 4856 
Q 1566 4138 1362 3434 
Q 1159 2731 1159 2009 
Q 1159 1288 1364 580 
Q 1569 -128 1984 -844 
L 1484 -844 
Q 1016 -109 783 600 
Q 550 1309 550 2009 
Q 550 2706 781 3412 
Q 1013 4119 1484 4856 
L 1984 4856 
z
" transform="scale(0.015625)"/>
       <path id="DejaVuSans-75" d="M 544 1381 
L 544 3500 
L 1119 3500 
L 1119 1403 
Q 1119 906 1312 657 
Q 1506 409 1894 409 
Q 2359 409 2629 706 
Q 2900 1003 2900 1516 
L 2900 3500 
L 3475 3500 
L 3475 0 
L 2900 0 
L 2900 538 
Q 2691 219 2414 64 
Q 2138 -91 1772 -91 
Q 1169 -91 856 284 
Q 544 659 544 1381 
z
M 1991 3584 
L 1991 3584 
z
" transform="scale(0.015625)"/>
       <path id="DejaVuSans-4d" d="M 628 4666 
L 1569 4666 
L 2759 1491 
L 3956 4666 
L 4897 4666 
L 4897 0 
L 4281 0 
L 4281 4097 
L 3078 897 
L 2444 897 
L 1241 4097 
L 1241 0 
L 628 0 
L 628 4666 
z
" transform="scale(0.015625)"/>
       <path id="DejaVuSans-29" d="M 513 4856 
L 1013 4856 
Q 1481 4119 1714 3412 
Q 1947 2706 1947 2009 
Q 1947 1309 1714 600 
Q 1481 -109 1013 -844 
L 513 -844 
Q 928 -128 1133 580 
Q 1338 1288 1338 2009 
Q 1338 2731 1133 3434 
Q 928 4138 513 4856 
z
" transform="scale(0.015625)"/>
      </defs>
      <use xlink:href="#DejaVuSans-5b"/>
      <use xlink:href="#DejaVuSans-6c" transform="translate(39.013672 0)"/>
      <use xlink:href="#DejaVuSans-69" transform="translate(66.796875 0)"/>
      <use xlink:href="#DejaVuSans-67" transform="translate(94.580078 0)"/>
      <use xlink:href="#DejaVuSans-61" transform="translate(158.056641 0)"/>
      <use xlink:href="#DejaVuSans-6e" transform="translate(219.335938 0)"/>
      <use xlink:href="#DejaVuSans-64" transform="translate(282.714844 0)"/>
      <use xlink:href="#DejaVuSans-5d" transform="translate(346.191406 0)"/>
      <use xlink:href="#DejaVuSans-20" transform="translate(385.205078 0)"/>
      <use xlink:href="#DejaVuSans-28" transform="translate(416.992188 0)"/>
      <use xlink:href="#DejaVuSans-75" transform="translate(456.005859 0)"/>
      <use xlink:href="#DejaVuSans-4d" transform="translate(519.384766 0)"/>
      <use xlink:href="#DejaVuSans-29" transform="translate(605.664062 0)"/>
     </g>
    </g>
   </g>
   <g id="matplotlib.axis_2">
    <g id="ytick_1">
     <g id="line2d_7">
      <defs>
       <path id="mb6fc678e81" d="M 0 0 
L -3.5 0 
" style="stroke: #000000; stroke-width: 0.8"/>
      </defs>
      <g>
       <use xlink:href="#mb6fc678e81" x="57.6" y="295.488" style="stroke: #000000; stroke-width: 0.8"/>
      </g>
     </g>
     <g id="text_8">
      <!-- 0.0 -->
      <g transform="translate(34.696875 299.287219) scale(0.1 -0.1)">
       <defs>
        <path id="DejaVuSans-2e" d="M 684 794 
L 1344 794 
L 1344 0 
L 684 0 
L 684 794 
z
" transform="scale(0.015625)"/>
       </defs>
       <use xlink:href="#DejaVuSans-30"/>
       <use xlink:href="#DejaVuSans-2e" transform="translate(63.623047 0)"/>
       <use xlink:href="#DejaVuSans-30" transform="translate(95.410156 0)"/>
      </g>
     </g>
    </g>
    <g id="ytick_2">
     <g id="line2d_8">
      <g>
       <use xlink:href="#mb6fc678e81" x="57.6" y="247.104" style="stroke: #000000; stroke-width: 0.8"/>
      </g>
     </g>
     <g id="text_9">
      <!-- 0.2 -->
      <g transform="translate(34.696875 250.903219) scale(0.1 -0.1)">
       <use xlink:href="#DejaVuSans-30"/>
       <use xlink:href="#DejaVuSans-2e" transform="translate(63.623047 0)"/>
       <use xlink:href="#DejaVuSans-32" transform="translate(95.410156 0)"/>
      </g>
     </g>
    </g>
    <g id="ytick_3">
     <g id="line2d_9">
      <g>
       <use xlink:href="#mb6fc678e81" x="57.6" y="198.72" style="stroke: #000000; stroke-width: 0.8"/>
      </g>
     </g>
     <g id="text_10">
      <!-- 0.4 -->
      <g transform="translate(34.696875 202.519219) scale(0.1 -0.1)">
       <use xlink:href="#DejaVuSans-30"/>
       <use xlink:href="#DejaVuSans-2e" transform="translate(63.623047 0)"/>
       <use xlink:href="#DejaVuSans-34" transform="translate(95.410156 0)"/>
      </g>
     </g>
    </g>
    <g id="ytick_4">
     <g id="line2d_10">
      <g>
       <use xlink:href="#mb6fc678e81" x="57.6" y="150.336" style="stroke: #000000; stroke-width: 0.8"/>
      </g>
     </g>
     <g id="text_11">
      <!-- 0.6 -->
      <g transform="translate(34.696875 154.135219) scale(0.1 -0.1)">
       <defs>
        <path id="DejaVuSans-36" d="M 2113 2584 
Q 1688 2584 1439 2293 
Q 1191 2003 1191 1497 
Q 1191 994 1439 701 
Q 1688 409 2113 409 
Q 2538 409 2786 701 
Q 3034 994 3034 1497 
Q 3034 2003 2786 2293 
Q 2538 2584 2113 2584 
z
M 3366 4563 
L 3366 3988 
Q 3128 4100 2886 4159 
Q 2644 4219 2406 4219 
Q 1781 4219 1451 3797 
Q 1122 3375 1075 2522 
Q 1259 2794 1537 2939 
Q 1816 3084 2150 3084 
Q 2853 3084 3261 2657 
Q 3669 2231 3669 1497 
Q 3669 778 3244 343 
Q 2819 -91 2113 -91 
Q 1303 -91 875 529 
Q 447 1150 447 2328 
Q 447 3434 972 4092 
Q 1497 4750 2381 4750 
Q 2619 4750 2861 4703 
Q 3103 4656 3366 4563 
z
" transform="scale(0.015625)"/>
       </defs>
       <use xlink:href="#DejaVuSans-30"/>
       <use xlink:href="#DejaVuSans-2e" transform="translate(63.623047 0)"/>
       <use xlink:href="#DejaVuSans-36" transform="translate(95.410156 0)"/>
      </g>
     </g>
    </g>
    <g id="ytick_5">
     <g id="line2d_11">
      <g>
       <use xlink:href="#mb6fc678e81" x="57.6" y="101.952" style="stroke: #000000; stroke-width: 0.8"/>
      </g>
     </g>
     <g id="text_12">
      <!-- 0.8 -->
      <g transform="translate(34.696875 105.751219) scale(0.1 -0.1)">
       <defs>
        <path id="DejaVuSans-38" d="M 2034 2216 
Q 1584 2216 1326 1975 
Q 1069 1734 1069 1313 
Q 1069 891 1326 650 
Q 1584 409 2034 409 
Q 2484 409 2743 651 
Q 3003 894 3003 1313 
Q 3003 1734 2745 1975 
Q 2488 2216 2034 2216 
z
M 1403 2484 
Q 997 2584 770 2862 
Q 544 3141 544 3541 
Q 544 4100 942 4425 
Q 1341 4750 2034 4750 
Q 2731 4750 3128 4425 
Q 3525 4100 3525 3541 
Q 3525 3141 3298 2862 
Q 3072 2584 2669 2484 
Q 3125 2378 3379 2068 
Q 3634 1759 3634 1313 
Q 3634 634 3220 271 
Q 2806 -91 2034 -91 
Q 1263 -91 848 271 
Q 434 634 434 1313 
Q 434 1759 690 2068 
Q 947 2378 1403 2484 
z
M 1172 3481 
Q 1172 3119 1398 2916 
Q 1625 2713 2034 2713 
Q 2441 2713 2670 2916 
Q 2900 3119 2900 3481 
Q 2900 3844 2670 4047 
Q 2441 4250 2034 4250 
Q 1625 4250 1398 4047 
Q 1172 3844 1172 3481 
z
" transform="scale(0.015625)"/>
       </defs>
       <use xlink:href="#DejaVuSans-30"/>
       <use xlink:href="#DejaVuSans-2e" transform="translate(63.623047 0)"/>
       <use xlink:href="#DejaVuSans-38" transform="translate(95.410156 0)"/>
      </g>
     </g>
    </g>
    <g id="ytick_6">
     <g id="line2d_12">
      <g>
       <use xlink:href="#mb6fc678e81" x="57.6" y="53.568" style="stroke: #000000; stroke-width: 0.8"/>
      </g>
     </g>
     <g id="text_13">
      <!-- 1.0 -->
      <g transform="translate(34.696875 57.367219) scale(0.1 -0.1)">
       <use xlink:href="#DejaVuSans-31"/>
       <use xlink:href="#DejaVuSans-2e" transform="translate(63.623047 0)"/>
       <use xlink:href="#DejaVuSans-30" transform="translate(95.410156 0)"/>
      </g>
     </g>
    </g>
    <g id="text_14">
     <!-- mole fraction -->
     <g transform="translate(28.617187 207.718625) rotate(-90) scale(0.1 -0.1)">
      <defs>
       <path id="DejaVuSans-6d" d="M 3328 2828 
Q 3544 3216 3844 3400 
Q 4144 3584 4550 3584 
Q 5097 3584 5394 3201 
Q 5691 2819 5691 2113 
L 5691 0 
L 5113 0 
L 5113 2094 
Q 5113 2597 4934 2840 
Q 4756 3084 4391 3084 
Q 3944 3084 3684 2787 
Q 3425 2491 3425 1978 
L 3425 0 
L 2847 0 
L 2847 2094 
Q 2847 2600 2669 2842 
Q 2491 3084 2119 3084 
Q 1678 3084 1418 2786 
Q 1159 2488 1159 1978 
L 1159 0 
L 581 0 
L 581 3500 
L 1159 3500 
L 1159 2956 
Q 1356 3278 1631 3431 
Q 1906 3584 2284 3584 
Q 2666 3584 2933 3390 
Q 3200 3197 3328 2828 
z
" transform="scale(0.015625)"/>
       <path id="DejaVuSans-6f" d="M 1959 3097 
Q 1497 3097 1228 2736 
Q 959 2375 959 1747 
Q 959 1119 1226 758 
Q 1494 397 1959 397 
Q 2419 397 2687 759 
Q 2956 1122 2956 1747 
Q 2956 2369 2687 2733 
Q 2419 3097 1959 3097 
z
M 1959 3584 
Q 2709 3584 3137 3096 
Q 3566 2609 3566 1747 
Q 3566 888 3137 398 
Q 2709 -91 1959 -91 
Q 1206 -91 779 398 
Q 353 888 353 1747 
Q 353 2609 779 3096 
Q 1206 3584 1959 3584 
z
" transform="scale(0.015625)"/>
       <path id="DejaVuSans-65" d="M 3597 1894 
L 3597 1613 
L 953 1613 
Q 991 1019 1311 708 
Q 1631 397 2203 397 
Q 2534 397 2845 478 
Q 3156 559 3463 722 
L 3463 178 
Q 3153 47 2828 -22 
Q 2503 -91 2169 -91 
Q 1331 -91 842 396 
Q 353 884 353 1716 
Q 353 2575 817 3079 
Q 1281 3584 2069 3584 
Q 2775 3584 3186 3129 
Q 3597 2675 3597 1894 
z
M 3022 2063 
Q 3016 2534 2758 2815 
Q 2500 3097 2075 3097 
Q 1594 3097 1305 2825 
Q 1016 2553 972 2059 
L 3022 2063 
z
" transform="scale(0.015625)"/>
       <path id="DejaVuSans-66" d="M 2375 4863 
L 2375 4384 
L 1825 4384 
Q 1516 4384 1395 4259 
Q 1275 4134 1275 3809 
L 1275 3500 
L 2222 3500 
L 2222 3053 
L 1275 3053 
L 1275 0 
L 697 0 
L 697 3053 
L 147 3053 
L 147 3500 
L 697 3500 
L 697 3744 
Q 697 4328 969 4595 
Q 1241 4863 1831 4863 
L 2375 4863 
z
" transform="scale(0.015625)"/>
       <path id="DejaVuSans-72" d="M 2631 2963 
Q 2534 3019 2420 3045 
Q 2306 3072 2169 3072 
Q 1681 3072 1420 2755 
Q 1159 2438 1159 1844 
L 1159 0 
L 581 0 
L 581 3500 
L 1159 3500 
L 1159 2956 
Q 1341 3275 1631 3429 
Q 1922 3584 2338 3584 
Q 2397 3584 2469 3576 
Q 2541 3569 2628 3553 
L 2631 2963 
z
" transform="scale(0.015625)"/>
       <path id="DejaVuSans-63" d="M 3122 3366 
L 3122 2828 
Q 2878 2963 2633 3030 
Q 2388 3097 2138 3097 
Q 1578 3097 1268 2742 
Q 959 2388 959 1747 
Q 959 1106 1268 751 
Q 1578 397 2138 397 
Q 2388 397 2633 464 
Q 2878 531 3122 666 
L 3122 134 
Q 2881 22 2623 -34 
Q 2366 -91 2075 -91 
Q 1284 -91 818 406 
Q 353 903 353 1747 
Q 353 2603 823 3093 
Q 1294 3584 2113 3584 
Q 2378 3584 2631 3529 
Q 2884 3475 3122 3366 
z
" transform="scale(0.015625)"/>
       <path id="DejaVuSans-74" d="M 1172 4494 
L 1172 3500 
L 2356 3500 
L 2356 3053 
L 1172 3053 
L 1172 1153 
Q 1172 725 1289 603 
Q 1406 481 1766 481 
L 2356 481 
L 2356 0 
L 1766 0 
Q 1100 0 847 248 
Q 594 497 594 1153 
L 594 3053 
L 172 3053 
L 172 3500 
L 594 3500 
L 594 4494 
L 1172 4494 
z
" transform="scale(0.015625)"/>
      </defs>
      <use xlink:href="#DejaVuSans-6d"/>
      <use xlink:href="#DejaVuSans-6f" transform="translate(97.412109 0)"/>
      <use xlink:href="#DejaVuSans-6c" transform="translate(158.59375 0)"/>
      <use xlink:href="#DejaVuSans-65" transform="translate(186.376953 0)"/>
      <use xlink:href="#DejaVuSans-20" transform="translate(247.900391 0)"/>
      <use xlink:href="#DejaVuSans-66" transform="translate(279.6875 0)"/>
      <use xlink:href="#DejaVuSans-72" transform="translate(314.892578 0)"/>
      <use xlink:href="#DejaVuSans-61" transform="translate(356.005859 0)"/>
      <use xlink:href="#DejaVuSans-63" transform="translate(417.285156 0)"/>
      <use xlink:href="#DejaVuSans-74" transform="translate(472.265625 0)"/>
      <use xlink:href="#DejaVuSans-69" transform="translate(511.474609 0)"/>
      <use xlink:href="#DejaVuSans-6f" transform="translate(539.257812 0)"/>
      <use xlink:href="#DejaVuSans-6e" transform="translate(600.439453 0)"/>
     </g>
    </g>
   </g>
   <g id="line2d_13">
    <defs>
     <path id="mad47ac2dc9" d="M 0 3 
C 0.795609 3 1.55874 2.683901 2.12132 2.12132 
C 2.683901 1.55874 3 0.795609 3 0 
C 3 -0.795609 2.683901 -1.55874 2.12132 -2.12132 
C 1.55874 -2.683901 0.795609 -3 0 -3 
C -0.795609 -3 -1.55874 -2.683901 -2.12132 -2.12132 
C -2.683901 -1.55874 -3 -0.795609 -3 0 
C -3 0.795609 -2.683901 1.55874 -2.12132 2.12132 
C -1.55874 2.683901 -0.795609 3 0 3 
z
" style="stroke: #808080"/>
    </defs>
    <g clip-path="url(#p091e1f53e0)">
     <use xlink:href="#mad47ac2dc9" x="73.832727" y="53.568" style="fill: #808080; stroke: #808080"/>
     <use xlink:href="#mad47ac2dc9" x="83.229739" y="143.489664" style="fill: #808080; stroke: #808080"/>
     <use xlink:href="#mad47ac2dc9" x="94.928538" y="242.855715" style="fill: #808080; stroke: #808080"/>
     <use xlink:href="#mad47ac2dc9" x="125.782194" y="285.793189" style="fill: #808080; stroke: #808080"/>
     <use xlink:href="#mad47ac2dc9" x="190.068252" y="295.488" style="fill: #808080; stroke: #808080"/>
     <use xlink:href="#mad47ac2dc9" x="245.419293" y="295.488" style="fill: #808080; stroke: #808080"/>
     <use xlink:href="#mad47ac2dc9" x="333.685678" y="295.488" style="fill: #808080; stroke: #808080"/>
    </g>
   </g>
   <g id="line2d_14">
    <path d="M 73.832727 53.568 
L 76.228702 82.601053 
L 78.624676 108.704313 
L 81.020651 131.947843 
L 83.416625 152.474533 
L 85.213606 166.205262 
L 87.010587 178.617282 
L 88.807568 189.814001 
L 90.604549 199.899997 
L 92.40153 208.977657 
L 94.198511 217.144786 
L 95.995491 224.493058 
L 97.792472 231.107146 
L 99.589453 237.064355 
L 101.386434 242.434634 
L 103.782409 248.789649 
L 106.178383 254.342874 
L 108.574358 259.20602 
L 110.970332 263.474107 
L 113.366307 267.227732 
L 115.762281 270.535167 
L 118.158256 273.454255 
L 120.55423 276.034084 
L 122.950205 278.316426 
L 125.346179 280.33697 
L 128.341147 282.540783 
L 131.336115 284.434026 
L 134.331084 286.059523 
L 137.326052 287.453686 
L 140.920013 288.865031 
L 144.513975 290.034211 
L 148.706931 291.144053 
L 152.899886 292.02955 
L 157.691835 292.822017 
L 163.082778 293.495713 
L 169.671707 294.087049 
L 177.458625 294.556591 
L 187.641516 294.932732 
L 201.41837 295.202516 
L 222.98214 295.37845 
L 266.708675 295.467168 
L 398.487273 295.487383 
L 398.487273 295.487383 
" clip-path="url(#p091e1f53e0)" style="fill: none; stroke: #808080; stroke-width: 1.5; stroke-linecap: square"/>
   </g>
   <g id="line2d_15">
    <defs>
     <path id="m412677ce61" d="M 0 3 
C 0.795609 3 1.55874 2.683901 2.12132 2.12132 
C 2.683901 1.55874 3 0.795609 3 0 
C 3 -0.795609 2.683901 -1.55874 2.12132 -2.12132 
C 1.55874 -2.683901 0.795609 -3 0 -3 
C -0.795609 -3 -1.55874 -2.683901 -2.12132 -2.12132 
C -2.683901 -1.55874 -3 -0.795609 -3 0 
C -3 0.795609 -2.683901 1.55874 -2.12132 2.12132 
C -1.55874 2.683901 -0.795609 3 0 3 
z
" style="stroke: #ff9933"/>
    </defs>
    <g clip-path="url(#p091e1f53e0)">
     <use xlink:href="#m412677ce61" x="73.832727" y="295.488" style="fill: #ff9933; stroke: #ff9933"/>
     <use xlink:href="#m412677ce61" x="83.229739" y="220.00896" style="fill: #ff9933; stroke: #ff9933"/>
     <use xlink:href="#m412677ce61" x="94.928538" y="208.256331" style="fill: #ff9933; stroke: #ff9933"/>
     <use xlink:href="#m412677ce61" x="125.782194" y="263.358534" style="fill: #ff9933; stroke: #ff9933"/>
     <use xlink:href="#m412677ce61" x="190.068252" y="289.870681" style="fill: #ff9933; stroke: #ff9933"/>
     <use xlink:href="#m412677ce61" x="245.419293" y="295.488" style="fill: #ff9933; stroke: #ff9933"/>
     <use xlink:href="#m412677ce61" x="333.685678" y="295.488" style="fill: #ff9933; stroke: #ff9933"/>
    </g>
   </g>
   <g id="line2d_16">
    <path d="M 73.832727 295.488 
L 75.629708 274.695962 
L 76.827695 263.006702 
L 78.025683 252.893817 
L 79.22367 244.221523 
L 80.421657 236.857916 
L 81.619644 230.676356 
L 82.817632 225.556624 
L 84.015619 221.385784 
L 85.213606 218.058754 
L 86.411593 215.478602 
L 87.609581 213.556613 
L 88.807568 212.212156 
L 90.005555 211.372397 
L 91.203542 210.971911 
L 92.40153 210.952209 
L 93.599517 211.261232 
L 94.797504 211.852813 
L 95.995491 212.686153 
L 97.792472 214.312006 
L 99.589453 216.298428 
L 101.985428 219.363371 
L 104.980396 223.646572 
L 109.173351 230.093193 
L 119.356243 245.887881 
L 123.549198 251.944327 
L 127.14316 256.804287 
L 130.737122 261.320151 
L 134.331084 265.470548 
L 137.925045 269.245982 
L 141.519007 272.647182 
L 144.513975 275.202241 
L 147.508943 277.513203 
L 151.102905 279.98136 
L 154.696867 282.140298 
L 158.290829 284.017351 
L 161.88479 285.640946 
L 165.478752 287.039348 
L 169.671707 288.422324 
L 173.864663 289.575656 
L 178.656612 290.658399 
L 184.047555 291.631462 
L 190.037491 292.472306 
L 196.626421 293.173814 
L 204.413338 293.780989 
L 213.997236 294.298282 
L 225.977108 294.714091 
L 242.149936 295.038884 
L 266.109681 295.272838 
L 306.841248 295.415621 
L 398.487273 295.477454 
L 398.487273 295.477454 
" clip-path="url(#p091e1f53e0)" style="fill: none; stroke: #ff9933; stroke-width: 1.5; stroke-linecap: square"/>
   </g>
   <g id="line2d_17">
    <defs>
     <path id="mc3073646e1" d="M 0 3 
C 0.795609 3 1.55874 2.683901 2.12132 2.12132 
C 2.683901 1.55874 3 0.795609 3 0 
C 3 -0.795609 2.683901 -1.55874 2.12132 -2.12132 
C 1.55874 -2.683901 0.795609 -3 0 -3 
C -0.795609 -3 -1.55874 -2.683901 -2.12132 -2.12132 
C -2.683901 -1.55874 -3 -0.795609 -3 0 
C -3 0.795609 -2.683901 1.55874 -2.12132 2.12132 
C -1.55874 2.683901 -0.795609 3 0 3 
z
" style="stroke: #ffd700"/>
    </defs>
    <g clip-path="url(#p091e1f53e0)">
     <use xlink:href="#mc3073646e1" x="73.832727" y="295.488" style="fill: #ffd700; stroke: #ffd700"/>
     <use xlink:href="#mc3073646e1" x="83.229739" y="281.069568" style="fill: #ffd700; stroke: #ffd700"/>
     <use xlink:href="#mc3073646e1" x="94.928538" y="236.490678" style="fill: #ffd700; stroke: #ffd700"/>
     <use xlink:href="#mc3073646e1" x="125.782194" y="242.655159" style="fill: #ffd700; stroke: #ffd700"/>
     <use xlink:href="#mc3073646e1" x="190.068252" y="285.115429" style="fill: #ffd700; stroke: #ffd700"/>
     <use xlink:href="#mc3073646e1" x="245.419293" y="295.488" style="fill: #ffd700; stroke: #ffd700"/>
     <use xlink:href="#mc3073646e1" x="333.685678" y="295.488" style="fill: #ffd700; stroke: #ffd700"/>
    </g>
   </g>
   <g id="line2d_18">
    <path d="M 73.832727 295.488 
L 74.431721 295.343968 
L 75.030715 294.929941 
L 75.629708 294.272 
L 76.827695 292.321944 
L 78.025683 289.675493 
L 79.22367 286.493208 
L 81.020651 281.01652 
L 84.015619 270.929871 
L 88.208574 256.808577 
L 90.604549 249.436318 
L 93.000523 242.824811 
L 94.797504 238.422684 
L 96.594485 234.51608 
L 98.391466 231.106489 
L 100.188447 228.185727 
L 101.985428 225.738965 
L 103.782409 223.746971 
L 105.579389 222.187725 
L 107.37637 221.037566 
L 108.574358 220.48597 
L 109.772345 220.097927 
L 111.569326 219.806354 
L 113.366307 219.841265 
L 115.163287 220.177975 
L 116.960268 220.792083 
L 118.757249 221.659513 
L 120.55423 222.756544 
L 122.950205 224.536127 
L 125.346179 226.628301 
L 128.341147 229.603198 
L 131.935109 233.571497 
L 136.727058 239.281807 
L 148.706931 253.778926 
L 152.899886 258.45785 
L 157.092841 262.790042 
L 160.686803 266.197927 
L 164.280765 269.314263 
L 167.874727 272.141252 
L 171.468688 274.688965 
L 175.06265 276.972822 
L 178.656612 279.011518 
L 182.250574 280.825402 
L 186.443529 282.685195 
L 190.636484 284.299536 
L 195.428433 285.88276 
L 200.220382 287.226123 
L 205.611325 288.495752 
L 211.601261 289.658001 
L 218.190191 290.692329 
L 225.378115 291.59018 
L 233.764025 292.403933 
L 243.347924 293.104341 
L 254.728802 293.708851 
L 269.104649 294.234027 
L 287.074458 294.654908 
L 311.633197 294.989602 
L 347.572814 295.233635 
L 398.487273 295.376572 
L 398.487273 295.376572 
" clip-path="url(#p091e1f53e0)" style="fill: none; stroke: #ffd700; stroke-width: 1.5; stroke-linecap: square"/>
   </g>
   <g id="line2d_19">
    <defs>
     <path id="m392e124b0d" d="M 0 3 
C 0.795609 3 1.55874 2.683901 2.12132 2.12132 
C 2.683901 1.55874 3 0.795609 3 0 
C 3 -0.795609 2.683901 -1.55874 2.12132 -2.12132 
C 1.55874 -2.683901 0.795609 -3 0 -3 
C -0.795609 -3 -1.55874 -2.683901 -2.12132 -2.12132 
C -2.683901 -1.55874 -3 -0.795609 -3 0 
C -3 0.795609 -2.683901 1.55874 -2.12132 2.12132 
C -1.55874 2.683901 -0.795609 3 0 3 
z
" style="stroke: #7fff00"/>
    </defs>
    <g clip-path="url(#p091e1f53e0)">
     <use xlink:href="#m392e124b0d" x="73.832727" y="295.488" style="fill: #7fff00; stroke: #7fff00"/>
     <use xlink:href="#m392e124b0d" x="83.229739" y="295.488" style="fill: #7fff00; stroke: #7fff00"/>
     <use xlink:href="#m392e124b0d" x="94.928538" y="269.728534" style="fill: #7fff00; stroke: #7fff00"/>
     <use xlink:href="#m392e124b0d" x="125.782194" y="245.382135" style="fill: #7fff00; stroke: #7fff00"/>
     <use xlink:href="#m392e124b0d" x="190.068252" y="275.445803" style="fill: #7fff00; stroke: #7fff00"/>
     <use xlink:href="#m392e124b0d" x="245.419293" y="285.101976" style="fill: #7fff00; stroke: #7fff00"/>
     <use xlink:href="#m392e124b0d" x="333.685678" y="291.088883" style="fill: #7fff00; stroke: #7fff00"/>
    </g>
   </g>
   <g id="line2d_20">
    <path d="M 73.832727 295.488 
L 76.228702 295.390656 
L 77.426689 295.180166 
L 78.624676 294.804732 
L 79.822664 294.239028 
L 81.020651 293.468936 
L 82.218638 292.489448 
L 84.015619 290.633996 
L 85.8126 288.343109 
L 87.609581 285.664255 
L 90.005555 281.589268 
L 93.000523 275.894453 
L 97.193479 267.300565 
L 103.782409 253.782479 
L 106.777377 248.096408 
L 109.772345 242.895798 
L 112.168319 239.155266 
L 114.564294 235.832739 
L 116.960268 232.95845 
L 118.757249 231.109453 
L 120.55423 229.529188 
L 122.351211 228.2197 
L 124.148192 227.180187 
L 125.945173 226.407127 
L 127.742154 225.894438 
L 129.539135 225.633673 
L 131.336115 225.614236 
L 133.133096 225.823648 
L 134.930077 226.247822 
L 136.727058 226.871366 
L 139.123033 227.984461 
L 141.519007 229.382188 
L 143.914982 231.023062 
L 146.90995 233.353411 
L 150.503911 236.457848 
L 155.29586 240.921261 
L 169.072714 253.954253 
L 173.864663 258.114505 
L 178.656612 261.963796 
L 182.849567 265.057669 
L 187.042523 267.892746 
L 191.235478 270.475372 
L 195.428433 272.817546 
L 200.220382 275.219709 
L 205.012331 277.353554 
L 209.80428 279.245427 
L 215.195223 281.116477 
L 220.586166 282.747995 
L 226.576102 284.317571 
L 233.165032 285.791683 
L 240.352955 287.147039 
L 248.139873 288.370114 
L 256.525783 289.455897 
L 266.109681 290.462873 
L 276.891567 291.363386 
L 289.470433 292.178732 
L 303.84628 292.882807 
L 321.217095 293.504723 
L 342.780865 294.042489 
L 370.334572 294.492187 
L 398.487273 294.785817 
L 398.487273 294.785817 
" clip-path="url(#p091e1f53e0)" style="fill: none; stroke: #7fff00; stroke-width: 1.5; stroke-linecap: square"/>
   </g>
   <g id="line2d_21">
    <defs>
     <path id="mf1c548b508" d="M 0 3 
C 0.795609 3 1.55874 2.683901 2.12132 2.12132 
C 2.683901 1.55874 3 0.795609 3 0 
C 3 -0.795609 2.683901 -1.55874 2.12132 -2.12132 
C 1.55874 -2.683901 0.795609 -3 0 -3 
C -0.795609 -3 -1.55874 -2.683901 -2.12132 -2.12132 
C -2.683901 -1.55874 -3 -0.795609 -3 0 
C -3 0.795609 -2.683901 1.55874 -2.12132 2.12132 
C -1.55874 2.683901 -0.795609 3 0 3 
z
" style="stroke: #00eeff"/>
    </defs>
    <g clip-path="url(#p091e1f53e0)">
     <use xlink:href="#mf1c548b508" x="73.832727" y="295.488" style="fill: #00eeff; stroke: #00eeff"/>
     <use xlink:href="#mf1c548b508" x="83.229739" y="295.488" style="fill: #00eeff; stroke: #00eeff"/>
     <use xlink:href="#mf1c548b508" x="94.928538" y="284.07482" style="fill: #00eeff; stroke: #00eeff"/>
     <use xlink:href="#mf1c548b508" x="125.782194" y="261.054175" style="fill: #00eeff; stroke: #00eeff"/>
     <use xlink:href="#mf1c548b508" x="190.068252" y="267.513124" style="fill: #00eeff; stroke: #00eeff"/>
     <use xlink:href="#mf1c548b508" x="245.419293" y="278.458193" style="fill: #00eeff; stroke: #00eeff"/>
     <use xlink:href="#mf1c548b508" x="333.685678" y="285.690331" style="fill: #00eeff; stroke: #00eeff"/>
    </g>
   </g>
   <g id="line2d_22">
    <path d="M 73.832727 295.488 
L 87.609581 295.382534 
L 95.396498 295.077085 
L 103.782409 294.514644 
L 133.73209 292.241759 
L 142.118001 291.991053 
L 151.102905 291.96619 
L 161.88479 292.17869 
L 180.453593 292.815415 
L 208.606293 293.734692 
L 232.566038 294.273245 
L 261.317732 294.684309 
L 300.252318 295.00059 
L 358.3547 295.229419 
L 398.487273 295.310353 
L 398.487273 295.310353 
" clip-path="url(#p091e1f53e0)" style="fill: none; stroke: #00eeff; stroke-width: 1.5; stroke-linecap: square"/>
   </g>
   <g id="line2d_23">
    <defs>
     <path id="m75c950e99d" d="M 0 3 
C 0.795609 3 1.55874 2.683901 2.12132 2.12132 
C 2.683901 1.55874 3 0.795609 3 0 
C 3 -0.795609 2.683901 -1.55874 2.12132 -2.12132 
C 1.55874 -2.683901 0.795609 -3 0 -3 
C -0.795609 -3 -1.55874 -2.683901 -2.12132 -2.12132 
C -2.683901 -1.55874 -3 -0.795609 -3 0 
C -3 0.795609 -2.683901 1.55874 -2.12132 2.12132 
C -1.55874 2.683901 -0.795609 3 0 3 
z
" style="stroke: #0331fc"/>
    </defs>
    <g clip-path="url(#p091e1f53e0)">
     <use xlink:href="#m75c950e99d" x="73.832727" y="295.488" style="fill: #0331fc; stroke: #0331fc"/>
     <use xlink:href="#m75c950e99d" x="83.229739" y="295.488" style="fill: #0331fc; stroke: #0331fc"/>
     <use xlink:href="#m75c950e99d" x="94.928538" y="289.601922" style="fill: #0331fc; stroke: #0331fc"/>
     <use xlink:href="#m75c950e99d" x="125.782194" y="273.020675" style="fill: #0331fc; stroke: #0331fc"/>
     <use xlink:href="#m75c950e99d" x="190.068252" y="264.767358" style="fill: #0331fc; stroke: #0331fc"/>
     <use xlink:href="#m75c950e99d" x="245.419293" y="273.824558" style="fill: #0331fc; stroke: #0331fc"/>
     <use xlink:href="#m75c950e99d" x="333.685678" y="282.08182" style="fill: #0331fc; stroke: #0331fc"/>
    </g>
   </g>
   <g id="line2d_24">
    <path d="M 73.832727 295.488 
L 84.614613 295.384125 
L 88.208574 295.130251 
L 91.203542 294.708329 
L 93.599517 294.185176 
L 95.995491 293.463924 
L 98.391466 292.519223 
L 100.78744 291.331829 
L 103.183415 289.889355 
L 105.579389 288.186737 
L 107.975364 286.226445 
L 110.371338 284.018475 
L 113.366307 280.937203 
L 116.361275 277.544991 
L 119.955236 273.153294 
L 125.945173 265.399179 
L 132.534103 256.934869 
L 136.128064 252.637887 
L 139.123033 249.336227 
L 142.118001 246.341258 
L 145.112969 243.688056 
L 147.508943 241.826306 
L 149.904918 240.202042 
L 152.300892 238.815367 
L 154.696867 237.662216 
L 157.092841 236.735031 
L 159.488816 236.023458 
L 161.88479 235.515025 
L 164.280765 235.195766 
L 167.275733 235.039974 
L 170.270701 235.126488 
L 173.265669 235.425423 
L 176.859631 236.023966 
L 180.453593 236.840115 
L 184.646548 238.010957 
L 190.037491 239.772746 
L 196.626421 242.179834 
L 208.606293 246.853817 
L 222.383147 252.1536 
L 231.967045 255.595497 
L 240.951949 258.584881 
L 249.936853 261.333072 
L 258.921758 263.844486 
L 267.906662 266.131728 
L 277.49056 268.34301 
L 287.673452 270.457924 
L 298.455337 272.461893 
L 309.836216 274.345603 
L 321.816089 276.104251 
L 334.993948 277.809528 
L 349.369795 279.436121 
L 364.94363 280.966273 
L 381.715451 282.389008 
L 398.487273 283.617806 
L 398.487273 283.617806 
" clip-path="url(#p091e1f53e0)" style="fill: none; stroke: #0331fc; stroke-width: 1.5; stroke-linecap: square"/>
   </g>
   <g id="line2d_25">
    <defs>
     <path id="m7c5c2e51ac" d="M 0 3 
C 0.795609 3 1.55874 2.683901 2.12132 2.12132 
C 2.683901 1.55874 3 0.795609 3 0 
C 3 -0.795609 2.683901 -1.55874 2.12132 -2.12132 
C 1.55874 -2.683901 0.795609 -3 0 -3 
C -0.795609 -3 -1.55874 -2.683901 -2.12132 -2.12132 
C -2.683901 -1.55874 -3 -0.795609 -3 0 
C -3 0.795609 -2.683901 1.55874 -2.12132 2.12132 
C -1.55874 2.683901 -0.795609 3 0 3 
z
" style="stroke: #ba1e8c"/>
    </defs>
    <g clip-path="url(#p091e1f53e0)">
     <use xlink:href="#m7c5c2e51ac" x="73.832727" y="295.488" style="fill: #ba1e8c; stroke: #ba1e8c"/>
     <use xlink:href="#m7c5c2e51ac" x="83.229739" y="295.488" style="fill: #ba1e8c; stroke: #ba1e8c"/>
     <use xlink:href="#m7c5c2e51ac" x="94.928538" y="295.488" style="fill: #ba1e8c; stroke: #ba1e8c"/>
     <use xlink:href="#m7c5c2e51ac" x="125.782194" y="280.430602" style="fill: #ba1e8c; stroke: #ba1e8c"/>
     <use xlink:href="#m7c5c2e51ac" x="190.068252" y="266.659086" style="fill: #ba1e8c; stroke: #ba1e8c"/>
     <use xlink:href="#m7c5c2e51ac" x="245.419293" y="275.214469" style="fill: #ba1e8c; stroke: #ba1e8c"/>
     <use xlink:href="#m7c5c2e51ac" x="333.685678" y="276.975929" style="fill: #ba1e8c; stroke: #ba1e8c"/>
    </g>
   </g>
   <g id="line2d_26">
    <path d="M 73.832727 295.488 
L 98.99046 295.380078 
L 107.37637 295.099764 
L 114.564294 294.632548 
L 121.752217 293.926764 
L 129.539135 292.92551 
L 143.914982 290.779299 
L 154.097873 289.375352 
L 162.483784 288.442203 
L 170.869695 287.743891 
L 179.255606 287.266629 
L 188.839504 286.947519 
L 200.220382 286.804707 
L 214.596229 286.866292 
L 234.962013 287.201477 
L 282.282509 288.283847 
L 334.993948 289.379391 
L 387.106394 290.230382 
L 398.487273 290.389197 
L 398.487273 290.389197 
" clip-path="url(#p091e1f53e0)" style="fill: none; stroke: #ba1e8c; stroke-width: 1.5; stroke-linecap: square"/>
   </g>
   <g id="line2d_27">
    <defs>
     <path id="me26715dbbe" d="M 0 3 
C 0.795609 3 1.55874 2.683901 2.12132 2.12132 
C 2.683901 1.55874 3 0.795609 3 0 
C 3 -0.795609 2.683901 -1.55874 2.12132 -2.12132 
C 1.55874 -2.683901 0.795609 -3 0 -3 
C -0.795609 -3 -1.55874 -2.683901 -2.12132 -2.12132 
C -2.683901 -1.55874 -3 -0.795609 -3 0 
C -3 0.795609 -2.683901 1.55874 -2.12132 2.12132 
C -1.55874 2.683901 -0.795609 3 0 3 
z
" style="stroke: #b30505"/>
    </defs>
    <g clip-path="url(#p091e1f53e0)">
     <use xlink:href="#me26715dbbe" x="73.832727" y="295.488" style="fill: #b30505; stroke: #b30505"/>
     <use xlink:href="#me26715dbbe" x="83.229739" y="295.488" style="fill: #b30505; stroke: #b30505"/>
     <use xlink:href="#me26715dbbe" x="94.928538" y="295.488" style="fill: #b30505; stroke: #b30505"/>
     <use xlink:href="#me26715dbbe" x="125.782194" y="270.289531" style="fill: #b30505; stroke: #b30505"/>
     <use xlink:href="#me26715dbbe" x="190.068252" y="177.124518" style="fill: #b30505; stroke: #b30505"/>
     <use xlink:href="#me26715dbbe" x="245.419293" y="122.920804" style="fill: #b30505; stroke: #b30505"/>
     <use xlink:href="#me26715dbbe" x="333.685678" y="99.683037" style="fill: #b30505; stroke: #b30505"/>
    </g>
   </g>
   <g id="line2d_28">
    <path d="M 73.832727 295.488 
L 94.198511 295.379348 
L 98.99046 295.120684 
L 102.584421 294.716526 
L 105.579389 294.170831 
L 108.574358 293.372711 
L 110.970332 292.511108 
L 113.366307 291.417324 
L 115.762281 290.061886 
L 118.158256 288.418428 
L 120.55423 286.464978 
L 122.950205 284.185102 
L 125.346179 281.568806 
L 127.742154 278.613152 
L 130.138128 275.322508 
L 132.534103 271.708446 
L 135.529071 266.764553 
L 138.524039 261.393038 
L 142.118001 254.467935 
L 146.310956 245.877906 
L 152.300892 233.02715 
L 164.280765 207.198882 
L 169.671707 196.188861 
L 174.463656 186.929177 
L 178.656612 179.286583 
L 182.849567 172.0943 
L 187.042523 165.356518 
L 191.235478 159.066014 
L 195.428433 153.207583 
L 199.621389 147.760785 
L 203.814344 142.702074 
L 208.0073 138.006382 
L 212.200255 133.648259 
L 216.39321 129.602663 
L 220.586166 125.845482 
L 225.378115 121.875474 
L 230.170064 118.22057 
L 234.962013 114.851559 
L 239.753962 111.741816 
L 245.144904 108.523309 
L 250.535847 105.571631 
L 255.92679 102.859381 
L 261.916726 100.097111 
L 267.906662 97.571122 
L 274.495592 95.034891 
L 281.683516 92.523993 
L 288.871439 90.247995 
L 296.658356 88.014623 
L 305.044267 85.845473 
L 314.029171 83.75723 
L 323.613069 81.762068 
L 333.795961 79.86817 
L 345.17684 77.986873 
L 357.156713 76.23468 
L 370.334572 74.535227 
L 384.710419 72.909697 
L 398.487273 71.539419 
L 398.487273 71.539419 
" clip-path="url(#p091e1f53e0)" style="fill: none; stroke: #b30505; stroke-width: 1.5; stroke-linecap: square"/>
   </g>
   <g id="patch_3">
    <path d="M 57.6 307.584 
L 57.6 41.472 
" style="fill: none; stroke: #000000; stroke-width: 0.8; stroke-linejoin: miter; stroke-linecap: square"/>
   </g>
   <g id="patch_4">
    <path d="M 414.72 307.584 
L 414.72 41.472 
" style="fill: none; stroke: #000000; stroke-width: 0.8; stroke-linejoin: miter; stroke-linecap: square"/>
   </g>
   <g id="patch_5">
    <path d="M 57.6 307.584 
L 414.72 307.584 
" style="fill: none; stroke: #000000; stroke-width: 0.8; stroke-linejoin: miter; stroke-linecap: square"/>
   </g>
   <g id="patch_6">
    <path d="M 57.6 41.472 
L 414.72 41.472 
" style="fill: none; stroke: #000000; stroke-width: 0.8; stroke-linejoin: miter; stroke-linecap: square"/>
   </g>
  </g>
 </g>
 <defs>
  <clipPath id="p091e1f53e0">
   <rect x="57.6" y="41.472" width="357.12" height="266.112"/>
  </clipPath>
 </defs>
</svg>
