<?xml version="1.0" encoding="utf-8" standalone="no"?>
<!DOCTYPE svg PUBLIC "-//W3C//DTD SVG 1.1//EN"
  "http://www.w3.org/Graphics/SVG/1.1/DTD/svg11.dtd">
<svg xmlns:xlink="http://www.w3.org/1999/xlink" width="460.8pt" height="345.6pt" viewBox="0 0 460.8 345.6" xmlns="http://www.w3.org/2000/svg" version="1.1">
 <metadata>
  <rdf:RDF xmlns:dc="http://purl.org/dc/elements/1.1/" xmlns:cc="http://creativecommons.org/ns#" xmlns:rdf="http://www.w3.org/1999/02/22-rdf-syntax-ns#">
   <cc:Work>
    <dc:type rdf:resource="http://purl.org/dc/dcmitype/StillImage"/>
    <dc:date>2025-05-08T23:18:18.740427</dc:date>
    <dc:format>image/svg+xml</dc:format>
    <dc:creator>
     <cc:Agent>
      <dc:title>Matplotlib v3.10.1, https://matplotlib.org/</dc:title>
     </cc:Agent>
    </dc:creator>
   </cc:Work>
  </rdf:RDF>
 </metadata>
 <defs>
  <style type="text/css">*{stroke-linejoin: round; stroke-linecap: butt}</style>
 </defs>
 <g id="figure_1">
  <g id="patch_1">
   <path d="M 0 345.6 
L 460.8 345.6 
L 460.8 0 
L 0 0 
z
" style="fill: #ffffff"/>
  </g>
  <g id="axes_1">
   <g id="patch_2">
    <path d="M 57.6 307.584 
L 414.72 307.584 
L 414.72 41.472 
L 57.6 41.472 
z
" style="fill: #ffffff"/>
   </g>
   <g id="matplotlib.axis_1">
    <g id="xtick_1">
     <g id="line2d_1">
      <defs>
       <path id="m164c84e6c4" d="M 0 0 
L 0 3.5 
" style="stroke: #000000; stroke-width: 0.8"/>
      </defs>
      <g>
       <use xlink:href="#m164c84e6c4" x="73.832727" y="307.584" style="stroke: #000000; stroke-width: 0.8"/>
      </g>
     </g>
     <g id="text_1">
      <!-- 0 -->
      <g transform="translate(70.651477 322.182437) scale(0.1 -0.1)">
       <defs>
        <path id="DejaVuSans-30" d="M 2034 4250 
Q 1547 4250 1301 3770 
Q 1056 3291 1056 2328 
Q 1056 1369 1301 889 
Q 1547 409 2034 409 
Q 2525 409 2770 889 
Q 3016 1369 3016 2328 
Q 3016 3291 2770 3770 
Q 2525 4250 2034 4250 
z
M 2034 4750 
Q 2819 4750 3233 4129 
Q 3647 3509 3647 2328 
Q 3647 1150 3233 529 
Q 2819 -91 2034 -91 
Q 1250 -91 836 529 
Q 422 1150 422 2328 
Q 422 3509 836 4129 
Q 1250 4750 2034 4750 
z
" transform="scale(0.015625)"/>
       </defs>
       <use xlink:href="#DejaVuSans-30"/>
      </g>
     </g>
    </g>
    <g id="xtick_2">
     <g id="line2d_2">
      <g>
       <use xlink:href="#m164c84e6c4" x="133.621778" y="307.584" style="stroke: #000000; stroke-width: 0.8"/>
      </g>
     </g>
     <g id="text_2">
      <!-- 10 -->
      <g transform="translate(127.259278 322.182437) scale(0.1 -0.1)">
       <defs>
        <path id="DejaVuSans-31" d="M 794 531 
L 1825 531 
L 1825 4091 
L 703 3866 
L 703 4441 
L 1819 4666 
L 2450 4666 
L 2450 531 
L 3481 531 
L 3481 0 
L 794 0 
L 794 531 
z
" transform="scale(0.015625)"/>
       </defs>
       <use xlink:href="#DejaVuSans-31"/>
       <use xlink:href="#DejaVuSans-30" transform="translate(63.623047 0)"/>
      </g>
     </g>
    </g>
    <g id="xtick_3">
     <g id="line2d_3">
      <g>
       <use xlink:href="#m164c84e6c4" x="193.410829" y="307.584" style="stroke: #000000; stroke-width: 0.8"/>
      </g>
     </g>
     <g id="text_3">
      <!-- 20 -->
      <g transform="translate(187.048329 322.182437) scale(0.1 -0.1)">
       <defs>
        <path id="DejaVuSans-32" d="M 1228 531 
L 3431 531 
L 3431 0 
L 469 0 
L 469 531 
Q 828 903 1448 1529 
Q 2069 2156 2228 2338 
Q 2531 2678 2651 2914 
Q 2772 3150 2772 3378 
Q 2772 3750 2511 3984 
Q 2250 4219 1831 4219 
Q 1534 4219 1204 4116 
Q 875 4013 500 3803 
L 500 4441 
Q 881 4594 1212 4672 
Q 1544 4750 1819 4750 
Q 2544 4750 2975 4387 
Q 3406 4025 3406 3419 
Q 3406 3131 3298 2873 
Q 3191 2616 2906 2266 
Q 2828 2175 2409 1742 
Q 1991 1309 1228 531 
z
" transform="scale(0.015625)"/>
       </defs>
       <use xlink:href="#DejaVuSans-32"/>
       <use xlink:href="#DejaVuSans-30" transform="translate(63.623047 0)"/>
      </g>
     </g>
    </g>
    <g id="xtick_4">
     <g id="line2d_4">
      <g>
       <use xlink:href="#m164c84e6c4" x="253.199879" y="307.584" style="stroke: #000000; stroke-width: 0.8"/>
      </g>
     </g>
     <g id="text_4">
      <!-- 30 -->
      <g transform="translate(246.837379 322.182437) scale(0.1 -0.1)">
       <defs>
        <path id="DejaVuSans-33" d="M 2597 2516 
Q 3050 2419 3304 2112 
Q 3559 1806 3559 1356 
Q 3559 666 3084 287 
Q 2609 -91 1734 -91 
Q 1441 -91 1130 -33 
Q 819 25 488 141 
L 488 750 
Q 750 597 1062 519 
Q 1375 441 1716 441 
Q 2309 441 2620 675 
Q 2931 909 2931 1356 
Q 2931 1769 2642 2001 
Q 2353 2234 1838 2234 
L 1294 2234 
L 1294 2753 
L 1863 2753 
Q 2328 2753 2575 2939 
Q 2822 3125 2822 3475 
Q 2822 3834 2567 4026 
Q 2313 4219 1838 4219 
Q 1578 4219 1281 4162 
Q 984 4106 628 3988 
L 628 4550 
Q 988 4650 1302 4700 
Q 1616 4750 1894 4750 
Q 2613 4750 3031 4423 
Q 3450 4097 3450 3541 
Q 3450 3153 3228 2886 
Q 3006 2619 2597 2516 
z
" transform="scale(0.015625)"/>
       </defs>
       <use xlink:href="#DejaVuSans-33"/>
       <use xlink:href="#DejaVuSans-30" transform="translate(63.623047 0)"/>
      </g>
     </g>
    </g>
    <g id="xtick_5">
     <g id="line2d_5">
      <g>
       <use xlink:href="#m164c84e6c4" x="312.98893" y="307.584" style="stroke: #000000; stroke-width: 0.8"/>
      </g>
     </g>
     <g id="text_5">
      <!-- 40 -->
      <g transform="translate(306.62643 322.182437) scale(0.1 -0.1)">
       <defs>
        <path id="DejaVuSans-34" d="M 2419 4116 
L 825 1625 
L 2419 1625 
L 2419 4116 
z
M 2253 4666 
L 3047 4666 
L 3047 1625 
L 3713 1625 
L 3713 1100 
L 3047 1100 
L 3047 0 
L 2419 0 
L 2419 1100 
L 313 1100 
L 313 1709 
L 2253 4666 
z
" transform="scale(0.015625)"/>
       </defs>
       <use xlink:href="#DejaVuSans-34"/>
       <use xlink:href="#DejaVuSans-30" transform="translate(63.623047 0)"/>
      </g>
     </g>
    </g>
    <g id="xtick_6">
     <g id="line2d_6">
      <g>
       <use xlink:href="#m164c84e6c4" x="372.777981" y="307.584" style="stroke: #000000; stroke-width: 0.8"/>
      </g>
     </g>
     <g id="text_6">
      <!-- 50 -->
      <g transform="translate(366.415481 322.182437) scale(0.1 -0.1)">
       <defs>
        <path id="DejaVuSans-35" d="M 691 4666 
L 3169 4666 
L 3169 4134 
L 1269 4134 
L 1269 2991 
Q 1406 3038 1543 3061 
Q 1681 3084 1819 3084 
Q 2600 3084 3056 2656 
Q 3513 2228 3513 1497 
Q 3513 744 3044 326 
Q 2575 -91 1722 -91 
Q 1428 -91 1123 -41 
Q 819 9 494 109 
L 494 744 
Q 775 591 1075 516 
Q 1375 441 1709 441 
Q 2250 441 2565 725 
Q 2881 1009 2881 1497 
Q 2881 1984 2565 2268 
Q 2250 2553 1709 2553 
Q 1456 2553 1204 2497 
Q 953 2441 691 2322 
L 691 4666 
z
" transform="scale(0.015625)"/>
       </defs>
       <use xlink:href="#DejaVuSans-35"/>
       <use xlink:href="#DejaVuSans-30" transform="translate(63.623047 0)"/>
      </g>
     </g>
    </g>
    <g id="text_7">
     <!-- [ligand] (uM) -->
     <g transform="translate(203.925625 335.860562) scale(0.1 -0.1)">
      <defs>
       <path id="DejaVuSans-5b" d="M 550 4863 
L 1875 4863 
L 1875 4416 
L 1125 4416 
L 1125 -397 
L 1875 -397 
L 1875 -844 
L 550 -844 
L 550 4863 
z
" transform="scale(0.015625)"/>
       <path id="DejaVuSans-6c" d="M 603 4863 
L 1178 4863 
L 1178 0 
L 603 0 
L 603 4863 
z
" transform="scale(0.015625)"/>
       <path id="DejaVuSans-69" d="M 603 3500 
L 1178 3500 
L 1178 0 
L 603 0 
L 603 3500 
z
M 603 4863 
L 1178 4863 
L 1178 4134 
L 603 4134 
L 603 4863 
z
" transform="scale(0.015625)"/>
       <path id="DejaVuSans-67" d="M 2906 1791 
Q 2906 2416 2648 2759 
Q 2391 3103 1925 3103 
Q 1463 3103 1205 2759 
Q 947 2416 947 1791 
Q 947 1169 1205 825 
Q 1463 481 1925 481 
Q 2391 481 2648 825 
Q 2906 1169 2906 1791 
z
M 3481 434 
Q 3481 -459 3084 -895 
Q 2688 -1331 1869 -1331 
Q 1566 -1331 1297 -1286 
Q 1028 -1241 775 -1147 
L 775 -588 
Q 1028 -725 1275 -790 
Q 1522 -856 1778 -856 
Q 2344 -856 2625 -561 
Q 2906 -266 2906 331 
L 2906 616 
Q 2728 306 2450 153 
Q 2172 0 1784 0 
Q 1141 0 747 490 
Q 353 981 353 1791 
Q 353 2603 747 3093 
Q 1141 3584 1784 3584 
Q 2172 3584 2450 3431 
Q 2728 3278 2906 2969 
L 2906 3500 
L 3481 3500 
L 3481 434 
z
" transform="scale(0.015625)"/>
       <path id="DejaVuSans-61" d="M 2194 1759 
Q 1497 1759 1228 1600 
Q 959 1441 959 1056 
Q 959 750 1161 570 
Q 1363 391 1709 391 
Q 2188 391 2477 730 
Q 2766 1069 2766 1631 
L 2766 1759 
L 2194 1759 
z
M 3341 1997 
L 3341 0 
L 2766 0 
L 2766 531 
Q 2569 213 2275 61 
Q 1981 -91 1556 -91 
Q 1019 -91 701 211 
Q 384 513 384 1019 
Q 384 1609 779 1909 
Q 1175 2209 1959 2209 
L 2766 2209 
L 2766 2266 
Q 2766 2663 2505 2880 
Q 2244 3097 1772 3097 
Q 1472 3097 1187 3025 
Q 903 2953 641 2809 
L 641 3341 
Q 956 3463 1253 3523 
Q 1550 3584 1831 3584 
Q 2591 3584 2966 3190 
Q 3341 2797 3341 1997 
z
" transform="scale(0.015625)"/>
       <path id="DejaVuSans-6e" d="M 3513 2113 
L 3513 0 
L 2938 0 
L 2938 2094 
Q 2938 2591 2744 2837 
Q 2550 3084 2163 3084 
Q 1697 3084 1428 2787 
Q 1159 2491 1159 1978 
L 1159 0 
L 581 0 
L 581 3500 
L 1159 3500 
L 1159 2956 
Q 1366 3272 1645 3428 
Q 1925 3584 2291 3584 
Q 2894 3584 3203 3211 
Q 3513 2838 3513 2113 
z
" transform="scale(0.015625)"/>
       <path id="DejaVuSans-64" d="M 2906 2969 
L 2906 4863 
L 3481 4863 
L 3481 0 
L 2906 0 
L 2906 525 
Q 2725 213 2448 61 
Q 2172 -91 1784 -91 
Q 1150 -91 751 415 
Q 353 922 353 1747 
Q 353 2572 751 3078 
Q 1150 3584 1784 3584 
Q 2172 3584 2448 3432 
Q 2725 3281 2906 2969 
z
M 947 1747 
Q 947 1113 1208 752 
Q 1469 391 1925 391 
Q 2381 391 2643 752 
Q 2906 1113 2906 1747 
Q 2906 2381 2643 2742 
Q 2381 3103 1925 3103 
Q 1469 3103 1208 2742 
Q 947 2381 947 1747 
z
" transform="scale(0.015625)"/>
       <path id="DejaVuSans-5d" d="M 1947 4863 
L 1947 -844 
L 622 -844 
L 622 -397 
L 1369 -397 
L 1369 4416 
L 622 4416 
L 622 4863 
L 1947 4863 
z
" transform="scale(0.015625)"/>
       <path id="DejaVuSans-20" transform="scale(0.015625)"/>
       <path id="DejaVuSans-28" d="M 1984 4856 
Q 1566 4138 1362 3434 
Q 1159 2731 1159 2009 
Q 1159 1288 1364 580 
Q 1569 -128 1984 -844 
L 1484 -844 
Q 1016 -109 783 600 
Q 550 1309 550 2009 
Q 550 2706 781 3412 
Q 1013 4119 1484 4856 
L 1984 4856 
z
" transform="scale(0.015625)"/>
       <path id="DejaVuSans-75" d="M 544 1381 
L 544 3500 
L 1119 3500 
L 1119 1403 
Q 1119 906 1312 657 
Q 1506 409 1894 409 
Q 2359 409 2629 706 
Q 2900 1003 2900 1516 
L 2900 3500 
L 3475 3500 
L 3475 0 
L 2900 0 
L 2900 538 
Q 2691 219 2414 64 
Q 2138 -91 1772 -91 
Q 1169 -91 856 284 
Q 544 659 544 1381 
z
M 1991 3584 
L 1991 3584 
z
" transform="scale(0.015625)"/>
       <path id="DejaVuSans-4d" d="M 628 4666 
L 1569 4666 
L 2759 1491 
L 3956 4666 
L 4897 4666 
L 4897 0 
L 4281 0 
L 4281 4097 
L 3078 897 
L 2444 897 
L 1241 4097 
L 1241 0 
L 628 0 
L 628 4666 
z
" transform="scale(0.015625)"/>
       <path id="DejaVuSans-29" d="M 513 4856 
L 1013 4856 
Q 1481 4119 1714 3412 
Q 1947 2706 1947 2009 
Q 1947 1309 1714 600 
Q 1481 -109 1013 -844 
L 513 -844 
Q 928 -128 1133 580 
Q 1338 1288 1338 2009 
Q 1338 2731 1133 3434 
Q 928 4138 513 4856 
z
" transform="scale(0.015625)"/>
      </defs>
      <use xlink:href="#DejaVuSans-5b"/>
      <use xlink:href="#DejaVuSans-6c" transform="translate(39.013672 0)"/>
      <use xlink:href="#DejaVuSans-69" transform="translate(66.796875 0)"/>
      <use xlink:href="#DejaVuSans-67" transform="translate(94.580078 0)"/>
      <use xlink:href="#DejaVuSans-61" transform="translate(158.056641 0)"/>
      <use xlink:href="#DejaVuSans-6e" transform="translate(219.335938 0)"/>
      <use xlink:href="#DejaVuSans-64" transform="translate(282.714844 0)"/>
      <use xlink:href="#DejaVuSans-5d" transform="translate(346.191406 0)"/>
      <use xlink:href="#DejaVuSans-20" transform="translate(385.205078 0)"/>
      <use xlink:href="#DejaVuSans-28" transform="translate(416.992188 0)"/>
      <use xlink:href="#DejaVuSans-75" transform="translate(456.005859 0)"/>
      <use xlink:href="#DejaVuSans-4d" transform="translate(519.384766 0)"/>
      <use xlink:href="#DejaVuSans-29" transform="translate(605.664062 0)"/>
     </g>
    </g>
   </g>
   <g id="matplotlib.axis_2">
    <g id="ytick_1">
     <g id="line2d_7">
      <defs>
       <path id="m6883cb2574" d="M 0 0 
L -3.5 0 
" style="stroke: #000000; stroke-width: 0.8"/>
      </defs>
      <g>
       <use xlink:href="#m6883cb2574" x="57.6" y="295.488" style="stroke: #000000; stroke-width: 0.8"/>
      </g>
     </g>
     <g id="text_8">
      <!-- 0.0 -->
      <g transform="translate(34.696875 299.287219) scale(0.1 -0.1)">
       <defs>
        <path id="DejaVuSans-2e" d="M 684 794 
L 1344 794 
L 1344 0 
L 684 0 
L 684 794 
z
" transform="scale(0.015625)"/>
       </defs>
       <use xlink:href="#DejaVuSans-30"/>
       <use xlink:href="#DejaVuSans-2e" transform="translate(63.623047 0)"/>
       <use xlink:href="#DejaVuSans-30" transform="translate(95.410156 0)"/>
      </g>
     </g>
    </g>
    <g id="ytick_2">
     <g id="line2d_8">
      <g>
       <use xlink:href="#m6883cb2574" x="57.6" y="247.104" style="stroke: #000000; stroke-width: 0.8"/>
      </g>
     </g>
     <g id="text_9">
      <!-- 0.2 -->
      <g transform="translate(34.696875 250.903219) scale(0.1 -0.1)">
       <use xlink:href="#DejaVuSans-30"/>
       <use xlink:href="#DejaVuSans-2e" transform="translate(63.623047 0)"/>
       <use xlink:href="#DejaVuSans-32" transform="translate(95.410156 0)"/>
      </g>
     </g>
    </g>
    <g id="ytick_3">
     <g id="line2d_9">
      <g>
       <use xlink:href="#m6883cb2574" x="57.6" y="198.72" style="stroke: #000000; stroke-width: 0.8"/>
      </g>
     </g>
     <g id="text_10">
      <!-- 0.4 -->
      <g transform="translate(34.696875 202.519219) scale(0.1 -0.1)">
       <use xlink:href="#DejaVuSans-30"/>
       <use xlink:href="#DejaVuSans-2e" transform="translate(63.623047 0)"/>
       <use xlink:href="#DejaVuSans-34" transform="translate(95.410156 0)"/>
      </g>
     </g>
    </g>
    <g id="ytick_4">
     <g id="line2d_10">
      <g>
       <use xlink:href="#m6883cb2574" x="57.6" y="150.336" style="stroke: #000000; stroke-width: 0.8"/>
      </g>
     </g>
     <g id="text_11">
      <!-- 0.6 -->
      <g transform="translate(34.696875 154.135219) scale(0.1 -0.1)">
       <defs>
        <path id="DejaVuSans-36" d="M 2113 2584 
Q 1688 2584 1439 2293 
Q 1191 2003 1191 1497 
Q 1191 994 1439 701 
Q 1688 409 2113 409 
Q 2538 409 2786 701 
Q 3034 994 3034 1497 
Q 3034 2003 2786 2293 
Q 2538 2584 2113 2584 
z
M 3366 4563 
L 3366 3988 
Q 3128 4100 2886 4159 
Q 2644 4219 2406 4219 
Q 1781 4219 1451 3797 
Q 1122 3375 1075 2522 
Q 1259 2794 1537 2939 
Q 1816 3084 2150 3084 
Q 2853 3084 3261 2657 
Q 3669 2231 3669 1497 
Q 3669 778 3244 343 
Q 2819 -91 2113 -91 
Q 1303 -91 875 529 
Q 447 1150 447 2328 
Q 447 3434 972 4092 
Q 1497 4750 2381 4750 
Q 2619 4750 2861 4703 
Q 3103 4656 3366 4563 
z
" transform="scale(0.015625)"/>
       </defs>
       <use xlink:href="#DejaVuSans-30"/>
       <use xlink:href="#DejaVuSans-2e" transform="translate(63.623047 0)"/>
       <use xlink:href="#DejaVuSans-36" transform="translate(95.410156 0)"/>
      </g>
     </g>
    </g>
    <g id="ytick_5">
     <g id="line2d_11">
      <g>
       <use xlink:href="#m6883cb2574" x="57.6" y="101.952" style="stroke: #000000; stroke-width: 0.8"/>
      </g>
     </g>
     <g id="text_12">
      <!-- 0.8 -->
      <g transform="translate(34.696875 105.751219) scale(0.1 -0.1)">
       <defs>
        <path id="DejaVuSans-38" d="M 2034 2216 
Q 1584 2216 1326 1975 
Q 1069 1734 1069 1313 
Q 1069 891 1326 650 
Q 1584 409 2034 409 
Q 2484 409 2743 651 
Q 3003 894 3003 1313 
Q 3003 1734 2745 1975 
Q 2488 2216 2034 2216 
z
M 1403 2484 
Q 997 2584 770 2862 
Q 544 3141 544 3541 
Q 544 4100 942 4425 
Q 1341 4750 2034 4750 
Q 2731 4750 3128 4425 
Q 3525 4100 3525 3541 
Q 3525 3141 3298 2862 
Q 3072 2584 2669 2484 
Q 3125 2378 3379 2068 
Q 3634 1759 3634 1313 
Q 3634 634 3220 271 
Q 2806 -91 2034 -91 
Q 1263 -91 848 271 
Q 434 634 434 1313 
Q 434 1759 690 2068 
Q 947 2378 1403 2484 
z
M 1172 3481 
Q 1172 3119 1398 2916 
Q 1625 2713 2034 2713 
Q 2441 2713 2670 2916 
Q 2900 3119 2900 3481 
Q 2900 3844 2670 4047 
Q 2441 4250 2034 4250 
Q 1625 4250 1398 4047 
Q 1172 3844 1172 3481 
z
" transform="scale(0.015625)"/>
       </defs>
       <use xlink:href="#DejaVuSans-30"/>
       <use xlink:href="#DejaVuSans-2e" transform="translate(63.623047 0)"/>
       <use xlink:href="#DejaVuSans-38" transform="translate(95.410156 0)"/>
      </g>
     </g>
    </g>
    <g id="ytick_6">
     <g id="line2d_12">
      <g>
       <use xlink:href="#m6883cb2574" x="57.6" y="53.568" style="stroke: #000000; stroke-width: 0.8"/>
      </g>
     </g>
     <g id="text_13">
      <!-- 1.0 -->
      <g transform="translate(34.696875 57.367219) scale(0.1 -0.1)">
       <use xlink:href="#DejaVuSans-31"/>
       <use xlink:href="#DejaVuSans-2e" transform="translate(63.623047 0)"/>
       <use xlink:href="#DejaVuSans-30" transform="translate(95.410156 0)"/>
      </g>
     </g>
    </g>
    <g id="text_14">
     <!-- mole fraction -->
     <g transform="translate(28.617187 207.718625) rotate(-90) scale(0.1 -0.1)">
      <defs>
       <path id="DejaVuSans-6d" d="M 3328 2828 
Q 3544 3216 3844 3400 
Q 4144 3584 4550 3584 
Q 5097 3584 5394 3201 
Q 5691 2819 5691 2113 
L 5691 0 
L 5113 0 
L 5113 2094 
Q 5113 2597 4934 2840 
Q 4756 3084 4391 3084 
Q 3944 3084 3684 2787 
Q 3425 2491 3425 1978 
L 3425 0 
L 2847 0 
L 2847 2094 
Q 2847 2600 2669 2842 
Q 2491 3084 2119 3084 
Q 1678 3084 1418 2786 
Q 1159 2488 1159 1978 
L 1159 0 
L 581 0 
L 581 3500 
L 1159 3500 
L 1159 2956 
Q 1356 3278 1631 3431 
Q 1906 3584 2284 3584 
Q 2666 3584 2933 3390 
Q 3200 3197 3328 2828 
z
" transform="scale(0.015625)"/>
       <path id="DejaVuSans-6f" d="M 1959 3097 
Q 1497 3097 1228 2736 
Q 959 2375 959 1747 
Q 959 1119 1226 758 
Q 1494 397 1959 397 
Q 2419 397 2687 759 
Q 2956 1122 2956 1747 
Q 2956 2369 2687 2733 
Q 2419 3097 1959 3097 
z
M 1959 3584 
Q 2709 3584 3137 3096 
Q 3566 2609 3566 1747 
Q 3566 888 3137 398 
Q 2709 -91 1959 -91 
Q 1206 -91 779 398 
Q 353 888 353 1747 
Q 353 2609 779 3096 
Q 1206 3584 1959 3584 
z
" transform="scale(0.015625)"/>
       <path id="DejaVuSans-65" d="M 3597 1894 
L 3597 1613 
L 953 1613 
Q 991 1019 1311 708 
Q 1631 397 2203 397 
Q 2534 397 2845 478 
Q 3156 559 3463 722 
L 3463 178 
Q 3153 47 2828 -22 
Q 2503 -91 2169 -91 
Q 1331 -91 842 396 
Q 353 884 353 1716 
Q 353 2575 817 3079 
Q 1281 3584 2069 3584 
Q 2775 3584 3186 3129 
Q 3597 2675 3597 1894 
z
M 3022 2063 
Q 3016 2534 2758 2815 
Q 2500 3097 2075 3097 
Q 1594 3097 1305 2825 
Q 1016 2553 972 2059 
L 3022 2063 
z
" transform="scale(0.015625)"/>
       <path id="DejaVuSans-66" d="M 2375 4863 
L 2375 4384 
L 1825 4384 
Q 1516 4384 1395 4259 
Q 1275 4134 1275 3809 
L 1275 3500 
L 2222 3500 
L 2222 3053 
L 1275 3053 
L 1275 0 
L 697 0 
L 697 3053 
L 147 3053 
L 147 3500 
L 697 3500 
L 697 3744 
Q 697 4328 969 4595 
Q 1241 4863 1831 4863 
L 2375 4863 
z
" transform="scale(0.015625)"/>
       <path id="DejaVuSans-72" d="M 2631 2963 
Q 2534 3019 2420 3045 
Q 2306 3072 2169 3072 
Q 1681 3072 1420 2755 
Q 1159 2438 1159 1844 
L 1159 0 
L 581 0 
L 581 3500 
L 1159 3500 
L 1159 2956 
Q 1341 3275 1631 3429 
Q 1922 3584 2338 3584 
Q 2397 3584 2469 3576 
Q 2541 3569 2628 3553 
L 2631 2963 
z
" transform="scale(0.015625)"/>
       <path id="DejaVuSans-63" d="M 3122 3366 
L 3122 2828 
Q 2878 2963 2633 3030 
Q 2388 3097 2138 3097 
Q 1578 3097 1268 2742 
Q 959 2388 959 1747 
Q 959 1106 1268 751 
Q 1578 397 2138 397 
Q 2388 397 2633 464 
Q 2878 531 3122 666 
L 3122 134 
Q 2881 22 2623 -34 
Q 2366 -91 2075 -91 
Q 1284 -91 818 406 
Q 353 903 353 1747 
Q 353 2603 823 3093 
Q 1294 3584 2113 3584 
Q 2378 3584 2631 3529 
Q 2884 3475 3122 3366 
z
" transform="scale(0.015625)"/>
       <path id="DejaVuSans-74" d="M 1172 4494 
L 1172 3500 
L 2356 3500 
L 2356 3053 
L 1172 3053 
L 1172 1153 
Q 1172 725 1289 603 
Q 1406 481 1766 481 
L 2356 481 
L 2356 0 
L 1766 0 
Q 1100 0 847 248 
Q 594 497 594 1153 
L 594 3053 
L 172 3053 
L 172 3500 
L 594 3500 
L 594 4494 
L 1172 4494 
z
" transform="scale(0.015625)"/>
      </defs>
      <use xlink:href="#DejaVuSans-6d"/>
      <use xlink:href="#DejaVuSans-6f" transform="translate(97.412109 0)"/>
      <use xlink:href="#DejaVuSans-6c" transform="translate(158.59375 0)"/>
      <use xlink:href="#DejaVuSans-65" transform="translate(186.376953 0)"/>
      <use xlink:href="#DejaVuSans-20" transform="translate(247.900391 0)"/>
      <use xlink:href="#DejaVuSans-66" transform="translate(279.6875 0)"/>
      <use xlink:href="#DejaVuSans-72" transform="translate(314.892578 0)"/>
      <use xlink:href="#DejaVuSans-61" transform="translate(356.005859 0)"/>
      <use xlink:href="#DejaVuSans-63" transform="translate(417.285156 0)"/>
      <use xlink:href="#DejaVuSans-74" transform="translate(472.265625 0)"/>
      <use xlink:href="#DejaVuSans-69" transform="translate(511.474609 0)"/>
      <use xlink:href="#DejaVuSans-6f" transform="translate(539.257812 0)"/>
      <use xlink:href="#DejaVuSans-6e" transform="translate(600.439453 0)"/>
     </g>
    </g>
   </g>
   <g id="line2d_13">
    <defs>
     <path id="m229bd6ac59" d="M 0 3 
C 0.795609 3 1.55874 2.683901 2.12132 2.12132 
C 2.683901 1.55874 3 0.795609 3 0 
C 3 -0.795609 2.683901 -1.55874 2.12132 -2.12132 
C 1.55874 -2.683901 0.795609 -3 0 -3 
C -0.795609 -3 -1.55874 -2.683901 -2.12132 -2.12132 
C -2.683901 -1.55874 -3 -0.795609 -3 0 
C -3 0.795609 -2.683901 1.55874 -2.12132 2.12132 
C -1.55874 2.683901 -0.795609 3 0 3 
z
" style="stroke: #808080"/>
    </defs>
    <g clip-path="url(#pc275e631ad)">
     <use xlink:href="#m229bd6ac59" x="73.832727" y="53.568" style="fill: #808080; stroke: #808080"/>
     <use xlink:href="#m229bd6ac59" x="82.550569" y="156.601728" style="fill: #808080; stroke: #808080"/>
     <use xlink:href="#m229bd6ac59" x="91.098347" y="266.269921" style="fill: #808080; stroke: #808080"/>
     <use xlink:href="#m229bd6ac59" x="125.868916" y="284.871655" style="fill: #808080; stroke: #808080"/>
     <use xlink:href="#m229bd6ac59" x="189.227429" y="295.488" style="fill: #808080; stroke: #808080"/>
     <use xlink:href="#m229bd6ac59" x="244.496445" y="295.488" style="fill: #808080; stroke: #808080"/>
     <use xlink:href="#m229bd6ac59" x="333.557259" y="295.488" style="fill: #808080; stroke: #808080"/>
    </g>
   </g>
   <g id="line2d_14">
    <path d="M 73.832727 53.568 
L 75.626399 84.253912 
L 77.42007 111.89203 
L 79.213742 136.405394 
L 81.007413 157.896418 
L 82.801085 176.578659 
L 84.594756 192.723109 
L 86.388428 206.620192 
L 88.182099 218.555302 
L 89.975771 228.794657 
L 91.769442 237.578346 
L 93.563114 245.118012 
L 95.356786 251.597334 
L 97.150457 257.174011 
L 98.944129 261.982462 
L 100.7378 266.136712 
L 102.531472 269.73321 
L 104.325143 272.853418 
L 106.118815 275.566109 
L 107.912486 277.929369 
L 109.706158 279.992309 
L 112.09772 282.346678 
L 114.489282 284.321967 
L 116.880844 285.983991 
L 119.272406 287.386059 
L 122.261858 288.838406 
L 125.251311 290.019621 
L 128.240763 290.982868 
L 131.828106 291.909523 
L 136.01334 292.744438 
L 140.796464 293.454902 
L 146.177479 294.029158 
L 152.754274 294.50771 
L 161.124741 294.88851 
L 172.484661 295.171732 
L 189.823486 295.360727 
L 223.305354 295.460715 
L 344.677127 295.487454 
L 398.487273 295.487841 
L 398.487273 295.487841 
" clip-path="url(#pc275e631ad)" style="fill: none; stroke: #808080; stroke-width: 1.5; stroke-linecap: square"/>
   </g>
   <g id="line2d_15">
    <defs>
     <path id="m09e8f148d9" d="M 0 3 
C 0.795609 3 1.55874 2.683901 2.12132 2.12132 
C 2.683901 1.55874 3 0.795609 3 0 
C 3 -0.795609 2.683901 -1.55874 2.12132 -2.12132 
C 1.55874 -2.683901 0.795609 -3 0 -3 
C -0.795609 -3 -1.55874 -2.683901 -2.12132 -2.12132 
C -2.683901 -1.55874 -3 -0.795609 -3 0 
C -3 0.795609 -2.683901 1.55874 -2.12132 2.12132 
C -1.55874 2.683901 -0.795609 3 0 3 
z
" style="stroke: #ff9933"/>
    </defs>
    <g clip-path="url(#pc275e631ad)">
     <use xlink:href="#m09e8f148d9" x="73.832727" y="295.488" style="fill: #ff9933; stroke: #ff9933"/>
     <use xlink:href="#m09e8f148d9" x="82.550569" y="215.823744" style="fill: #ff9933; stroke: #ff9933"/>
     <use xlink:href="#m09e8f148d9" x="91.098347" y="225.788852" style="fill: #ff9933; stroke: #ff9933"/>
     <use xlink:href="#m09e8f148d9" x="125.868916" y="262.847728" style="fill: #ff9933; stroke: #ff9933"/>
     <use xlink:href="#m09e8f148d9" x="189.227429" y="291.755098" style="fill: #ff9933; stroke: #ff9933"/>
     <use xlink:href="#m09e8f148d9" x="244.496445" y="295.488" style="fill: #ff9933; stroke: #ff9933"/>
     <use xlink:href="#m09e8f148d9" x="333.557259" y="295.488" style="fill: #ff9933; stroke: #ff9933"/>
    </g>
   </g>
   <g id="line2d_16">
    <path d="M 73.832727 295.488 
L 75.028508 275.911936 
L 76.224289 259.781301 
L 77.42007 246.729169 
L 78.615851 236.38478 
L 79.811632 228.389153 
L 81.007413 222.405735 
L 82.203194 218.126817 
L 82.801085 216.539093 
L 83.398975 215.276646 
L 83.996866 214.310106 
L 84.594756 213.612086 
L 85.192647 213.157126 
L 85.790537 212.921612 
L 86.388428 212.883701 
L 86.986318 213.023233 
L 87.584209 213.321636 
L 88.77999 214.328178 
L 89.975771 215.783079 
L 91.171552 217.585718 
L 92.965224 220.762646 
L 95.356786 225.549943 
L 106.118815 247.870871 
L 109.108267 253.305201 
L 112.09772 258.26101 
L 115.087172 262.73721 
L 118.076625 266.751196 
L 121.066077 270.330302 
L 124.05553 273.506684 
L 127.044982 276.314292 
L 130.034435 278.787094 
L 133.023887 280.958042 
L 136.01334 282.858476 
L 139.002793 284.517782 
L 142.590136 286.228875 
L 146.177479 287.674738 
L 149.764822 288.893626 
L 153.950055 290.073597 
L 158.733179 291.158998 
L 163.516303 292.018645 
L 168.897318 292.773908 
L 175.474114 293.46547 
L 183.24669 294.045656 
L 192.812938 294.521994 
L 205.368639 294.901958 
L 222.707464 295.179604 
L 249.612536 295.36203 
L 302.824792 295.459338 
L 398.487273 295.484178 
L 398.487273 295.484178 
" clip-path="url(#pc275e631ad)" style="fill: none; stroke: #ff9933; stroke-width: 1.5; stroke-linecap: square"/>
   </g>
   <g id="line2d_17">
    <defs>
     <path id="mae3a81dd61" d="M 0 3 
C 0.795609 3 1.55874 2.683901 2.12132 2.12132 
C 2.683901 1.55874 3 0.795609 3 0 
C 3 -0.795609 2.683901 -1.55874 2.12132 -2.12132 
C 1.55874 -2.683901 0.795609 -3 0 -3 
C -0.795609 -3 -1.55874 -2.683901 -2.12132 -2.12132 
C -2.683901 -1.55874 -3 -0.795609 -3 0 
C -3 0.795609 -2.683901 1.55874 -2.12132 2.12132 
C -1.55874 2.683901 -0.795609 3 0 3 
z
" style="stroke: #ffd700"/>
    </defs>
    <g clip-path="url(#pc275e631ad)">
     <use xlink:href="#mae3a81dd61" x="73.832727" y="295.488" style="fill: #ffd700; stroke: #ffd700"/>
     <use xlink:href="#mae3a81dd61" x="82.550569" y="276.811776" style="fill: #ffd700; stroke: #ffd700"/>
     <use xlink:href="#mae3a81dd61" x="91.098347" y="229.596796" style="fill: #ffd700; stroke: #ffd700"/>
     <use xlink:href="#mae3a81dd61" x="125.868916" y="242.773537" style="fill: #ffd700; stroke: #ffd700"/>
     <use xlink:href="#mae3a81dd61" x="189.227429" y="286.592" style="fill: #ffd700; stroke: #ffd700"/>
     <use xlink:href="#mae3a81dd61" x="244.496445" y="295.488" style="fill: #ffd700; stroke: #ffd700"/>
     <use xlink:href="#mae3a81dd61" x="333.557259" y="295.488" style="fill: #ffd700; stroke: #ffd700"/>
    </g>
   </g>
   <g id="line2d_18">
    <path d="M 73.832727 295.488 
L 74.430618 295.180466 
L 75.028508 294.312269 
L 75.626399 292.961043 
L 76.82218 289.09251 
L 78.017961 284.084891 
L 79.811632 275.33835 
L 84.594756 251.231087 
L 86.388428 243.395596 
L 88.182099 236.586712 
L 89.975771 230.862881 
L 91.171552 227.645689 
L 92.367333 224.890843 
L 93.563114 222.577333 
L 94.758895 220.680436 
L 95.954676 219.173264 
L 97.150457 218.027923 
L 98.346238 217.216359 
L 99.542019 216.710967 
L 100.7378 216.485008 
L 101.933581 216.512885 
L 103.129362 216.770316 
L 104.325143 217.234427 
L 105.520924 217.883783 
L 107.314596 219.161787 
L 109.108267 220.750277 
L 111.499829 223.257097 
L 113.891391 226.105228 
L 116.880844 229.999782 
L 121.663968 236.650542 
L 130.034435 248.344661 
L 134.219669 253.817432 
L 137.807012 258.193166 
L 141.394355 262.239792 
L 144.981698 265.941196 
L 148.569041 269.295912 
L 152.156384 272.313267 
L 155.743727 275.010097 
L 159.33107 277.408046 
L 162.918413 279.531417 
L 166.505756 281.405532 
L 170.093099 283.055547 
L 174.278332 284.729493 
L 178.463566 286.166991 
L 183.24669 287.561665 
L 188.029814 288.732217 
L 193.410829 289.826504 
L 199.389734 290.816715 
L 205.966529 291.687327 
L 213.739106 292.487866 
L 222.707464 293.181992 
L 233.469493 293.783464 
L 246.623084 294.28708 
L 263.364018 294.69687 
L 286.083857 295.018133 
L 319.565726 295.251571 
L 376.963214 295.40122 
L 398.487273 295.42567 
L 398.487273 295.42567 
" clip-path="url(#pc275e631ad)" style="fill: none; stroke: #ffd700; stroke-width: 1.5; stroke-linecap: square"/>
   </g>
   <g id="line2d_19">
    <defs>
     <path id="m4b2215c9dc" d="M 0 3 
C 0.795609 3 1.55874 2.683901 2.12132 2.12132 
C 2.683901 1.55874 3 0.795609 3 0 
C 3 -0.795609 2.683901 -1.55874 2.12132 -2.12132 
C 1.55874 -2.683901 0.795609 -3 0 -3 
C -0.795609 -3 -1.55874 -2.683901 -2.12132 -2.12132 
C -2.683901 -1.55874 -3 -0.795609 -3 0 
C -3 0.795609 -2.683901 1.55874 -2.12132 2.12132 
C -1.55874 2.683901 -0.795609 3 0 3 
z
" style="stroke: #7fff00"/>
    </defs>
    <g clip-path="url(#pc275e631ad)">
     <use xlink:href="#m4b2215c9dc" x="73.832727" y="295.488" style="fill: #7fff00; stroke: #7fff00"/>
     <use xlink:href="#m4b2215c9dc" x="82.550569" y="290.794752" style="fill: #7fff00; stroke: #7fff00"/>
     <use xlink:href="#m4b2215c9dc" x="91.098347" y="257.077374" style="fill: #7fff00; stroke: #7fff00"/>
     <use xlink:href="#m4b2215c9dc" x="125.868916" y="244.822152" style="fill: #7fff00; stroke: #7fff00"/>
     <use xlink:href="#m4b2215c9dc" x="189.227429" y="277.810942" style="fill: #7fff00; stroke: #7fff00"/>
     <use xlink:href="#m4b2215c9dc" x="244.496445" y="287.610344" style="fill: #7fff00; stroke: #7fff00"/>
     <use xlink:href="#m4b2215c9dc" x="333.557259" y="289.448445" style="fill: #7fff00; stroke: #7fff00"/>
    </g>
   </g>
   <g id="line2d_20">
    <path d="M 73.832727 295.488 
L 75.626399 295.381019 
L 76.82218 295.036734 
L 78.017961 294.361554 
L 79.213742 293.312643 
L 80.409523 291.882058 
L 81.605304 290.086728 
L 82.801085 287.960167 
L 84.594756 284.246028 
L 86.986318 278.573656 
L 90.573661 269.293378 
L 94.758895 258.539021 
L 97.748348 251.511679 
L 100.13991 246.482269 
L 102.531472 242.060856 
L 104.325143 239.167922 
L 106.118815 236.64537 
L 107.912486 234.492829 
L 109.706158 232.704583 
L 111.499829 231.270634 
L 113.293501 230.177577 
L 115.087172 229.409326 
L 116.880844 228.94773 
L 118.674515 228.773082 
L 120.468187 228.864574 
L 122.261858 229.200683 
L 124.05553 229.759517 
L 125.849201 230.519121 
L 128.240763 231.806704 
L 130.632325 233.362376 
L 133.621778 235.611153 
L 137.209121 238.641894 
L 141.992245 243.030646 
L 155.743727 255.897139 
L 160.526851 260.000243 
L 165.309975 263.789604 
L 169.495208 266.828346 
L 173.680442 269.605793 
L 177.865676 272.128546 
L 182.050909 274.409023 
L 186.236143 276.463125 
L 191.019267 278.556175 
L 195.802391 280.403816 
L 201.183405 282.222123 
L 206.56442 283.798945 
L 212.543325 285.306828 
L 219.120121 286.713436 
L 226.294807 287.997076 
L 234.067383 289.146069 
L 242.43785 290.157305 
L 252.004098 291.08643 
L 262.766128 291.908895 
L 275.321828 292.645361 
L 290.269091 293.296021 
L 308.803697 293.868272 
L 332.121426 294.349947 
L 362.613842 294.741266 
L 398.487273 295.010377 
L 398.487273 295.010377 
" clip-path="url(#pc275e631ad)" style="fill: none; stroke: #7fff00; stroke-width: 1.5; stroke-linecap: square"/>
   </g>
   <g id="line2d_21">
    <defs>
     <path id="m03f05049e5" d="M 0 3 
C 0.795609 3 1.55874 2.683901 2.12132 2.12132 
C 2.683901 1.55874 3 0.795609 3 0 
C 3 -0.795609 2.683901 -1.55874 2.12132 -2.12132 
C 1.55874 -2.683901 0.795609 -3 0 -3 
C -0.795609 -3 -1.55874 -2.683901 -2.12132 -2.12132 
C -2.683901 -1.55874 -3 -0.795609 -3 0 
C -3 0.795609 -2.683901 1.55874 -2.12132 2.12132 
C -1.55874 2.683901 -0.795609 3 0 3 
z
" style="stroke: #00eeff"/>
    </defs>
    <g clip-path="url(#pc275e631ad)">
     <use xlink:href="#m03f05049e5" x="73.832727" y="295.488" style="fill: #00eeff; stroke: #00eeff"/>
     <use xlink:href="#m03f05049e5" x="82.550569" y="295.488" style="fill: #00eeff; stroke: #00eeff"/>
     <use xlink:href="#m03f05049e5" x="91.098347" y="277.716129" style="fill: #00eeff; stroke: #00eeff"/>
     <use xlink:href="#m03f05049e5" x="125.868916" y="261.389987" style="fill: #00eeff; stroke: #00eeff"/>
     <use xlink:href="#m03f05049e5" x="189.227429" y="267.618277" style="fill: #00eeff; stroke: #00eeff"/>
     <use xlink:href="#m03f05049e5" x="244.496445" y="280.93996" style="fill: #00eeff; stroke: #00eeff"/>
     <use xlink:href="#m03f05049e5" x="333.557259" y="284.368917" style="fill: #00eeff; stroke: #00eeff"/>
    </g>
   </g>
   <g id="line2d_22">
    <path d="M 73.832727 295.488 
L 78.615851 295.388686 
L 81.007413 295.073538 
L 82.801085 294.613521 
L 84.594756 293.920877 
L 86.388428 292.977329 
L 88.182099 291.780133 
L 89.975771 290.339203 
L 92.367333 288.073405 
L 94.758895 285.472827 
L 97.748348 281.865186 
L 101.933581 276.421858 
L 109.108267 267.055128 
L 112.69561 262.776453 
L 115.685063 259.564838 
L 118.076625 257.270442 
L 120.468187 255.243224 
L 122.859749 253.4961 
L 125.251311 252.034918 
L 127.642873 250.859151 
L 130.034435 249.962692 
L 132.425997 249.334717 
L 134.817559 248.960569 
L 137.209121 248.822649 
L 139.600683 248.90126 
L 141.992245 249.175398 
L 144.981698 249.760098 
L 147.97115 250.574467 
L 151.558493 251.797847 
L 155.743727 253.482761 
L 161.124741 255.918422 
L 170.690989 260.560641 
L 180.257238 265.122842 
L 187.431924 268.300093 
L 194.008719 270.97115 
L 200.585515 273.396804 
L 207.16231 275.580289 
L 213.739106 277.534494 
L 220.913792 279.425885 
L 228.088478 281.09137 
L 235.861055 282.670551 
L 244.231522 284.143724 
L 253.199879 285.498521 
L 263.364018 286.799526 
L 274.126047 287.953209 
L 286.083857 289.016443 
L 299.835339 290.01316 
L 315.380492 290.914044 
L 333.317207 291.728674 
L 354.841266 292.473681 
L 380.550558 293.129556 
L 398.487273 293.479493 
L 398.487273 293.479493 
" clip-path="url(#pc275e631ad)" style="fill: none; stroke: #00eeff; stroke-width: 1.5; stroke-linecap: square"/>
   </g>
   <g id="line2d_23">
    <defs>
     <path id="maadbc7ce56" d="M 0 3 
C 0.795609 3 1.55874 2.683901 2.12132 2.12132 
C 2.683901 1.55874 3 0.795609 3 0 
C 3 -0.795609 2.683901 -1.55874 2.12132 -2.12132 
C 1.55874 -2.683901 0.795609 -3 0 -3 
C -0.795609 -3 -1.55874 -2.683901 -2.12132 -2.12132 
C -2.683901 -1.55874 -3 -0.795609 -3 0 
C -3 0.795609 -2.683901 1.55874 -2.12132 2.12132 
C -1.55874 2.683901 -0.795609 3 0 3 
z
" style="stroke: #0331fc"/>
    </defs>
    <g clip-path="url(#pc275e631ad)">
     <use xlink:href="#maadbc7ce56" x="73.832727" y="295.488" style="fill: #0331fc; stroke: #0331fc"/>
     <use xlink:href="#maadbc7ce56" x="82.550569" y="295.488" style="fill: #0331fc; stroke: #0331fc"/>
     <use xlink:href="#maadbc7ce56" x="91.098347" y="286.698077" style="fill: #0331fc; stroke: #0331fc"/>
     <use xlink:href="#maadbc7ce56" x="125.868916" y="274.212835" style="fill: #0331fc; stroke: #0331fc"/>
     <use xlink:href="#maadbc7ce56" x="189.227429" y="265.065933" style="fill: #0331fc; stroke: #0331fc"/>
     <use xlink:href="#maadbc7ce56" x="244.496445" y="276.239997" style="fill: #0331fc; stroke: #0331fc"/>
     <use xlink:href="#maadbc7ce56" x="333.557259" y="280.04798" style="fill: #0331fc; stroke: #0331fc"/>
    </g>
   </g>
   <g id="line2d_24">
    <path d="M 73.832727 295.488 
L 82.801085 295.398462 
L 86.388428 295.128105 
L 89.37788 294.664077 
L 91.769442 294.092621 
L 94.161005 293.32089 
L 96.552567 292.338837 
L 98.944129 291.145917 
L 101.933581 289.371154 
L 104.923034 287.311374 
L 108.510377 284.527957 
L 112.69561 280.974194 
L 126.447092 269.01181 
L 130.034435 266.276919 
L 133.621778 263.835082 
L 136.611231 262.051089 
L 139.600683 260.507832 
L 142.590136 259.208817 
L 145.579588 258.150762 
L 148.569041 257.32488 
L 151.558493 256.718179 
L 154.547946 256.314693 
L 158.135289 256.073554 
L 161.722632 256.066828 
L 165.907865 256.311817 
L 170.093099 256.782011 
L 174.876223 257.537065 
L 180.855128 258.721295 
L 188.627705 260.515687 
L 202.379186 263.975723 
L 217.92434 267.815908 
L 229.284259 270.3943 
L 240.046288 272.614862 
L 250.808317 274.615766 
L 262.168237 276.501702 
L 274.126047 278.258094 
L 286.681748 279.878296 
L 300.43323 281.424379 
L 315.380492 282.874365 
L 331.523536 284.214765 
L 349.460251 285.478048 
L 369.788528 286.677244 
L 392.508368 287.785603 
L 398.487273 288.043422 
L 398.487273 288.043422 
" clip-path="url(#pc275e631ad)" style="fill: none; stroke: #0331fc; stroke-width: 1.5; stroke-linecap: square"/>
   </g>
   <g id="line2d_25">
    <defs>
     <path id="m66adf79722" d="M 0 3 
C 0.795609 3 1.55874 2.683901 2.12132 2.12132 
C 2.683901 1.55874 3 0.795609 3 0 
C 3 -0.795609 2.683901 -1.55874 2.12132 -2.12132 
C 1.55874 -2.683901 0.795609 -3 0 -3 
C -0.795609 -3 -1.55874 -2.683901 -2.12132 -2.12132 
C -2.683901 -1.55874 -3 -0.795609 -3 0 
C -3 0.795609 -2.683901 1.55874 -2.12132 2.12132 
C -1.55874 2.683901 -0.795609 3 0 3 
z
" style="stroke: #ba1e8c"/>
    </defs>
    <g clip-path="url(#pc275e631ad)">
     <use xlink:href="#m66adf79722" x="73.832727" y="295.488" style="fill: #ba1e8c; stroke: #ba1e8c"/>
     <use xlink:href="#m66adf79722" x="82.550569" y="295.488" style="fill: #ba1e8c; stroke: #ba1e8c"/>
     <use xlink:href="#m66adf79722" x="91.098347" y="289.757463" style="fill: #ba1e8c; stroke: #ba1e8c"/>
     <use xlink:href="#m66adf79722" x="125.868916" y="280.822438" style="fill: #ba1e8c; stroke: #ba1e8c"/>
     <use xlink:href="#m66adf79722" x="189.227429" y="262.956741" style="fill: #ba1e8c; stroke: #ba1e8c"/>
     <use xlink:href="#m66adf79722" x="244.496445" y="277.459374" style="fill: #ba1e8c; stroke: #ba1e8c"/>
     <use xlink:href="#m66adf79722" x="333.557259" y="277.402501" style="fill: #ba1e8c; stroke: #ba1e8c"/>
    </g>
   </g>
   <g id="line2d_26">
    <path d="M 73.832727 295.488 
L 89.975771 295.380606 
L 95.356786 295.0909 
L 99.542019 294.645839 
L 103.129362 294.069013 
L 106.716705 293.290772 
L 110.304048 292.304335 
L 114.489282 290.899554 
L 118.674515 289.251517 
L 123.457639 287.133816 
L 130.632325 283.685485 
L 140.796464 278.808631 
L 146.177479 276.458228 
L 150.960603 274.581129 
L 155.743727 272.93057 
L 160.526851 271.515378 
L 165.309975 270.331828 
L 170.093099 269.367458 
L 175.474114 268.522169 
L 180.855128 267.902181 
L 186.834033 267.440509 
L 193.410829 267.162797 
L 200.585515 267.080307 
L 208.955982 267.206436 
L 219.120121 267.589725 
L 232.273712 268.324507 
L 252.004098 269.677916 
L 312.39104 273.936375 
L 341.089784 275.678391 
L 370.984309 277.266498 
L 398.487273 278.543917 
L 398.487273 278.543917 
" clip-path="url(#pc275e631ad)" style="fill: none; stroke: #ba1e8c; stroke-width: 1.5; stroke-linecap: square"/>
   </g>
   <g id="line2d_27">
    <defs>
     <path id="m58eaeed105" d="M 0 3 
C 0.795609 3 1.55874 2.683901 2.12132 2.12132 
C 2.683901 1.55874 3 0.795609 3 0 
C 3 -0.795609 2.683901 -1.55874 2.12132 -2.12132 
C 1.55874 -2.683901 0.795609 -3 0 -3 
C -0.795609 -3 -1.55874 -2.683901 -2.12132 -2.12132 
C -2.683901 -1.55874 -3 -0.795609 -3 0 
C -3 0.795609 -2.683901 1.55874 -2.12132 2.12132 
C -1.55874 2.683901 -0.795609 3 0 3 
z
" style="stroke: #b30505"/>
    </defs>
    <g clip-path="url(#pc275e631ad)">
     <use xlink:href="#m58eaeed105" x="73.832727" y="295.488" style="fill: #b30505; stroke: #b30505"/>
     <use xlink:href="#m58eaeed105" x="82.550569" y="295.488" style="fill: #b30505; stroke: #b30505"/>
     <use xlink:href="#m58eaeed105" x="91.098347" y="289.079388" style="fill: #b30505; stroke: #b30505"/>
     <use xlink:href="#m58eaeed105" x="125.868916" y="270.243667" style="fill: #b30505; stroke: #b30505"/>
     <use xlink:href="#m58eaeed105" x="189.227429" y="174.69701" style="fill: #b30505; stroke: #b30505"/>
     <use xlink:href="#m58eaeed105" x="244.496445" y="113.270325" style="fill: #b30505; stroke: #b30505"/>
     <use xlink:href="#m58eaeed105" x="333.557259" y="104.252157" style="fill: #b30505; stroke: #b30505"/>
    </g>
   </g>
   <g id="line2d_28">
    <path d="M 73.832727 295.488 
L 91.171552 295.386331 
L 95.356786 295.153974 
L 98.944129 294.737842 
L 101.933581 294.164636 
L 104.325143 293.515328 
L 106.716705 292.664318 
L 109.108267 291.584091 
L 111.499829 290.250481 
L 113.891391 288.643756 
L 116.282953 286.749467 
L 118.674515 284.559038 
L 121.066077 282.070064 
L 123.457639 279.28632 
L 126.447092 275.40739 
L 129.436544 271.113965 
L 132.425997 266.44752 
L 136.01334 260.42579 
L 140.198574 252.9401 
L 145.579588 242.830436 
L 162.918413 209.868823 
L 168.299427 200.301018 
L 173.082551 192.237947 
L 177.865676 184.629094 
L 182.050909 178.356223 
L 186.236143 172.442956 
L 190.421376 166.882555 
L 194.60661 161.663468 
L 198.791843 156.770917 
L 202.977077 152.188143 
L 207.16231 147.897341 
L 211.945434 143.327803 
L 216.728559 139.089103 
L 221.511683 135.155334 
L 226.294807 131.501908 
L 231.077931 128.105784 
L 236.458945 124.566131 
L 241.83996 121.297164 
L 247.220974 118.273542 
L 253.199879 115.173958 
L 259.178785 112.320966 
L 265.75558 109.437786 
L 272.332376 106.793541 
L 279.507062 104.151342 
L 287.279638 101.541856 
L 295.052215 99.16446 
L 303.422682 96.832489 
L 312.39104 94.564446 
L 321.957288 92.374587 
L 332.121426 90.273309 
L 343.481346 88.162171 
L 355.439156 86.172362 
L 368.592747 84.21839 
L 382.344229 82.39916 
L 397.889382 80.574888 
L 398.487273 80.509103 
L 398.487273 80.509103 
" clip-path="url(#pc275e631ad)" style="fill: none; stroke: #b30505; stroke-width: 1.5; stroke-linecap: square"/>
   </g>
   <g id="patch_3">
    <path d="M 57.6 307.584 
L 57.6 41.472 
" style="fill: none; stroke: #000000; stroke-width: 0.8; stroke-linejoin: miter; stroke-linecap: square"/>
   </g>
   <g id="patch_4">
    <path d="M 414.72 307.584 
L 414.72 41.472 
" style="fill: none; stroke: #000000; stroke-width: 0.8; stroke-linejoin: miter; stroke-linecap: square"/>
   </g>
   <g id="patch_5">
    <path d="M 57.6 307.584 
L 414.72 307.584 
" style="fill: none; stroke: #000000; stroke-width: 0.8; stroke-linejoin: miter; stroke-linecap: square"/>
   </g>
   <g id="patch_6">
    <path d="M 57.6 41.472 
L 414.72 41.472 
" style="fill: none; stroke: #000000; stroke-width: 0.8; stroke-linejoin: miter; stroke-linecap: square"/>
   </g>
  </g>
 </g>
 <defs>
  <clipPath id="pc275e631ad">
   <rect x="57.6" y="41.472" width="357.12" height="266.112"/>
  </clipPath>
 </defs>
</svg>
