<?xml version="1.0" encoding="utf-8" standalone="no"?>
<!DOCTYPE svg PUBLIC "-//W3C//DTD SVG 1.1//EN"
  "http://www.w3.org/Graphics/SVG/1.1/DTD/svg11.dtd">
<svg xmlns:xlink="http://www.w3.org/1999/xlink" width="460.8pt" height="345.6pt" viewBox="0 0 460.8 345.6" xmlns="http://www.w3.org/2000/svg" version="1.1">
 <metadata>
  <rdf:RDF xmlns:dc="http://purl.org/dc/elements/1.1/" xmlns:cc="http://creativecommons.org/ns#" xmlns:rdf="http://www.w3.org/1999/02/22-rdf-syntax-ns#">
   <cc:Work>
    <dc:type rdf:resource="http://purl.org/dc/dcmitype/StillImage"/>
    <dc:date>2025-05-09T18:44:42.365814</dc:date>
    <dc:format>image/svg+xml</dc:format>
    <dc:creator>
     <cc:Agent>
      <dc:title>Matplotlib v3.10.1, https://matplotlib.org/</dc:title>
     </cc:Agent>
    </dc:creator>
   </cc:Work>
  </rdf:RDF>
 </metadata>
 <defs>
  <style type="text/css">*{stroke-linejoin: round; stroke-linecap: butt}</style>
 </defs>
 <g id="figure_1">
  <g id="patch_1">
   <path d="M 0 345.6 
L 460.8 345.6 
L 460.8 0 
L 0 0 
z
" style="fill: #ffffff"/>
  </g>
  <g id="axes_1">
   <g id="patch_2">
    <path d="M 57.6 307.584 
L 414.72 307.584 
L 414.72 41.472 
L 57.6 41.472 
z
" style="fill: #ffffff"/>
   </g>
   <g id="matplotlib.axis_1">
    <g id="xtick_1">
     <g id="line2d_1">
      <defs>
       <path id="m12d3b036a1" d="M 0 0 
L 0 3.5 
" style="stroke: #000000; stroke-width: 0.8"/>
      </defs>
      <g>
       <use xlink:href="#m12d3b036a1" x="73.832727" y="307.584" style="stroke: #000000; stroke-width: 0.8"/>
      </g>
     </g>
     <g id="text_1">
      <!-- 0 -->
      <g transform="translate(70.651477 322.182437) scale(0.1 -0.1)">
       <defs>
        <path id="DejaVuSans-30" d="M 2034 4250 
Q 1547 4250 1301 3770 
Q 1056 3291 1056 2328 
Q 1056 1369 1301 889 
Q 1547 409 2034 409 
Q 2525 409 2770 889 
Q 3016 1369 3016 2328 
Q 3016 3291 2770 3770 
Q 2525 4250 2034 4250 
z
M 2034 4750 
Q 2819 4750 3233 4129 
Q 3647 3509 3647 2328 
Q 3647 1150 3233 529 
Q 2819 -91 2034 -91 
Q 1250 -91 836 529 
Q 422 1150 422 2328 
Q 422 3509 836 4129 
Q 1250 4750 2034 4750 
z
" transform="scale(0.015625)"/>
       </defs>
       <use xlink:href="#DejaVuSans-30"/>
      </g>
     </g>
    </g>
    <g id="xtick_2">
     <g id="line2d_2">
      <g>
       <use xlink:href="#m12d3b036a1" x="133.953939" y="307.584" style="stroke: #000000; stroke-width: 0.8"/>
      </g>
     </g>
     <g id="text_2">
      <!-- 10 -->
      <g transform="translate(127.591439 322.182437) scale(0.1 -0.1)">
       <defs>
        <path id="DejaVuSans-31" d="M 794 531 
L 1825 531 
L 1825 4091 
L 703 3866 
L 703 4441 
L 1819 4666 
L 2450 4666 
L 2450 531 
L 3481 531 
L 3481 0 
L 794 0 
L 794 531 
z
" transform="scale(0.015625)"/>
       </defs>
       <use xlink:href="#DejaVuSans-31"/>
       <use xlink:href="#DejaVuSans-30" transform="translate(63.623047 0)"/>
      </g>
     </g>
    </g>
    <g id="xtick_3">
     <g id="line2d_3">
      <g>
       <use xlink:href="#m12d3b036a1" x="194.075152" y="307.584" style="stroke: #000000; stroke-width: 0.8"/>
      </g>
     </g>
     <g id="text_3">
      <!-- 20 -->
      <g transform="translate(187.712652 322.182437) scale(0.1 -0.1)">
       <defs>
        <path id="DejaVuSans-32" d="M 1228 531 
L 3431 531 
L 3431 0 
L 469 0 
L 469 531 
Q 828 903 1448 1529 
Q 2069 2156 2228 2338 
Q 2531 2678 2651 2914 
Q 2772 3150 2772 3378 
Q 2772 3750 2511 3984 
Q 2250 4219 1831 4219 
Q 1534 4219 1204 4116 
Q 875 4013 500 3803 
L 500 4441 
Q 881 4594 1212 4672 
Q 1544 4750 1819 4750 
Q 2544 4750 2975 4387 
Q 3406 4025 3406 3419 
Q 3406 3131 3298 2873 
Q 3191 2616 2906 2266 
Q 2828 2175 2409 1742 
Q 1991 1309 1228 531 
z
" transform="scale(0.015625)"/>
       </defs>
       <use xlink:href="#DejaVuSans-32"/>
       <use xlink:href="#DejaVuSans-30" transform="translate(63.623047 0)"/>
      </g>
     </g>
    </g>
    <g id="xtick_4">
     <g id="line2d_4">
      <g>
       <use xlink:href="#m12d3b036a1" x="254.196364" y="307.584" style="stroke: #000000; stroke-width: 0.8"/>
      </g>
     </g>
     <g id="text_4">
      <!-- 30 -->
      <g transform="translate(247.833864 322.182437) scale(0.1 -0.1)">
       <defs>
        <path id="DejaVuSans-33" d="M 2597 2516 
Q 3050 2419 3304 2112 
Q 3559 1806 3559 1356 
Q 3559 666 3084 287 
Q 2609 -91 1734 -91 
Q 1441 -91 1130 -33 
Q 819 25 488 141 
L 488 750 
Q 750 597 1062 519 
Q 1375 441 1716 441 
Q 2309 441 2620 675 
Q 2931 909 2931 1356 
Q 2931 1769 2642 2001 
Q 2353 2234 1838 2234 
L 1294 2234 
L 1294 2753 
L 1863 2753 
Q 2328 2753 2575 2939 
Q 2822 3125 2822 3475 
Q 2822 3834 2567 4026 
Q 2313 4219 1838 4219 
Q 1578 4219 1281 4162 
Q 984 4106 628 3988 
L 628 4550 
Q 988 4650 1302 4700 
Q 1616 4750 1894 4750 
Q 2613 4750 3031 4423 
Q 3450 4097 3450 3541 
Q 3450 3153 3228 2886 
Q 3006 2619 2597 2516 
z
" transform="scale(0.015625)"/>
       </defs>
       <use xlink:href="#DejaVuSans-33"/>
       <use xlink:href="#DejaVuSans-30" transform="translate(63.623047 0)"/>
      </g>
     </g>
    </g>
    <g id="xtick_5">
     <g id="line2d_5">
      <g>
       <use xlink:href="#m12d3b036a1" x="314.317576" y="307.584" style="stroke: #000000; stroke-width: 0.8"/>
      </g>
     </g>
     <g id="text_5">
      <!-- 40 -->
      <g transform="translate(307.955076 322.182437) scale(0.1 -0.1)">
       <defs>
        <path id="DejaVuSans-34" d="M 2419 4116 
L 825 1625 
L 2419 1625 
L 2419 4116 
z
M 2253 4666 
L 3047 4666 
L 3047 1625 
L 3713 1625 
L 3713 1100 
L 3047 1100 
L 3047 0 
L 2419 0 
L 2419 1100 
L 313 1100 
L 313 1709 
L 2253 4666 
z
" transform="scale(0.015625)"/>
       </defs>
       <use xlink:href="#DejaVuSans-34"/>
       <use xlink:href="#DejaVuSans-30" transform="translate(63.623047 0)"/>
      </g>
     </g>
    </g>
    <g id="xtick_6">
     <g id="line2d_6">
      <g>
       <use xlink:href="#m12d3b036a1" x="374.438788" y="307.584" style="stroke: #000000; stroke-width: 0.8"/>
      </g>
     </g>
     <g id="text_6">
      <!-- 50 -->
      <g transform="translate(368.076288 322.182437) scale(0.1 -0.1)">
       <defs>
        <path id="DejaVuSans-35" d="M 691 4666 
L 3169 4666 
L 3169 4134 
L 1269 4134 
L 1269 2991 
Q 1406 3038 1543 3061 
Q 1681 3084 1819 3084 
Q 2600 3084 3056 2656 
Q 3513 2228 3513 1497 
Q 3513 744 3044 326 
Q 2575 -91 1722 -91 
Q 1428 -91 1123 -41 
Q 819 9 494 109 
L 494 744 
Q 775 591 1075 516 
Q 1375 441 1709 441 
Q 2250 441 2565 725 
Q 2881 1009 2881 1497 
Q 2881 1984 2565 2268 
Q 2250 2553 1709 2553 
Q 1456 2553 1204 2497 
Q 953 2441 691 2322 
L 691 4666 
z
" transform="scale(0.015625)"/>
       </defs>
       <use xlink:href="#DejaVuSans-35"/>
       <use xlink:href="#DejaVuSans-30" transform="translate(63.623047 0)"/>
      </g>
     </g>
    </g>
    <g id="text_7">
     <!-- [ligand] (uM) -->
     <g transform="translate(203.925625 335.860562) scale(0.1 -0.1)">
      <defs>
       <path id="DejaVuSans-5b" d="M 550 4863 
L 1875 4863 
L 1875 4416 
L 1125 4416 
L 1125 -397 
L 1875 -397 
L 1875 -844 
L 550 -844 
L 550 4863 
z
" transform="scale(0.015625)"/>
       <path id="DejaVuSans-6c" d="M 603 4863 
L 1178 4863 
L 1178 0 
L 603 0 
L 603 4863 
z
" transform="scale(0.015625)"/>
       <path id="DejaVuSans-69" d="M 603 3500 
L 1178 3500 
L 1178 0 
L 603 0 
L 603 3500 
z
M 603 4863 
L 1178 4863 
L 1178 4134 
L 603 4134 
L 603 4863 
z
" transform="scale(0.015625)"/>
       <path id="DejaVuSans-67" d="M 2906 1791 
Q 2906 2416 2648 2759 
Q 2391 3103 1925 3103 
Q 1463 3103 1205 2759 
Q 947 2416 947 1791 
Q 947 1169 1205 825 
Q 1463 481 1925 481 
Q 2391 481 2648 825 
Q 2906 1169 2906 1791 
z
M 3481 434 
Q 3481 -459 3084 -895 
Q 2688 -1331 1869 -1331 
Q 1566 -1331 1297 -1286 
Q 1028 -1241 775 -1147 
L 775 -588 
Q 1028 -725 1275 -790 
Q 1522 -856 1778 -856 
Q 2344 -856 2625 -561 
Q 2906 -266 2906 331 
L 2906 616 
Q 2728 306 2450 153 
Q 2172 0 1784 0 
Q 1141 0 747 490 
Q 353 981 353 1791 
Q 353 2603 747 3093 
Q 1141 3584 1784 3584 
Q 2172 3584 2450 3431 
Q 2728 3278 2906 2969 
L 2906 3500 
L 3481 3500 
L 3481 434 
z
" transform="scale(0.015625)"/>
       <path id="DejaVuSans-61" d="M 2194 1759 
Q 1497 1759 1228 1600 
Q 959 1441 959 1056 
Q 959 750 1161 570 
Q 1363 391 1709 391 
Q 2188 391 2477 730 
Q 2766 1069 2766 1631 
L 2766 1759 
L 2194 1759 
z
M 3341 1997 
L 3341 0 
L 2766 0 
L 2766 531 
Q 2569 213 2275 61 
Q 1981 -91 1556 -91 
Q 1019 -91 701 211 
Q 384 513 384 1019 
Q 384 1609 779 1909 
Q 1175 2209 1959 2209 
L 2766 2209 
L 2766 2266 
Q 2766 2663 2505 2880 
Q 2244 3097 1772 3097 
Q 1472 3097 1187 3025 
Q 903 2953 641 2809 
L 641 3341 
Q 956 3463 1253 3523 
Q 1550 3584 1831 3584 
Q 2591 3584 2966 3190 
Q 3341 2797 3341 1997 
z
" transform="scale(0.015625)"/>
       <path id="DejaVuSans-6e" d="M 3513 2113 
L 3513 0 
L 2938 0 
L 2938 2094 
Q 2938 2591 2744 2837 
Q 2550 3084 2163 3084 
Q 1697 3084 1428 2787 
Q 1159 2491 1159 1978 
L 1159 0 
L 581 0 
L 581 3500 
L 1159 3500 
L 1159 2956 
Q 1366 3272 1645 3428 
Q 1925 3584 2291 3584 
Q 2894 3584 3203 3211 
Q 3513 2838 3513 2113 
z
" transform="scale(0.015625)"/>
       <path id="DejaVuSans-64" d="M 2906 2969 
L 2906 4863 
L 3481 4863 
L 3481 0 
L 2906 0 
L 2906 525 
Q 2725 213 2448 61 
Q 2172 -91 1784 -91 
Q 1150 -91 751 415 
Q 353 922 353 1747 
Q 353 2572 751 3078 
Q 1150 3584 1784 3584 
Q 2172 3584 2448 3432 
Q 2725 3281 2906 2969 
z
M 947 1747 
Q 947 1113 1208 752 
Q 1469 391 1925 391 
Q 2381 391 2643 752 
Q 2906 1113 2906 1747 
Q 2906 2381 2643 2742 
Q 2381 3103 1925 3103 
Q 1469 3103 1208 2742 
Q 947 2381 947 1747 
z
" transform="scale(0.015625)"/>
       <path id="DejaVuSans-5d" d="M 1947 4863 
L 1947 -844 
L 622 -844 
L 622 -397 
L 1369 -397 
L 1369 4416 
L 622 4416 
L 622 4863 
L 1947 4863 
z
" transform="scale(0.015625)"/>
       <path id="DejaVuSans-20" transform="scale(0.015625)"/>
       <path id="DejaVuSans-28" d="M 1984 4856 
Q 1566 4138 1362 3434 
Q 1159 2731 1159 2009 
Q 1159 1288 1364 580 
Q 1569 -128 1984 -844 
L 1484 -844 
Q 1016 -109 783 600 
Q 550 1309 550 2009 
Q 550 2706 781 3412 
Q 1013 4119 1484 4856 
L 1984 4856 
z
" transform="scale(0.015625)"/>
       <path id="DejaVuSans-75" d="M 544 1381 
L 544 3500 
L 1119 3500 
L 1119 1403 
Q 1119 906 1312 657 
Q 1506 409 1894 409 
Q 2359 409 2629 706 
Q 2900 1003 2900 1516 
L 2900 3500 
L 3475 3500 
L 3475 0 
L 2900 0 
L 2900 538 
Q 2691 219 2414 64 
Q 2138 -91 1772 -91 
Q 1169 -91 856 284 
Q 544 659 544 1381 
z
M 1991 3584 
L 1991 3584 
z
" transform="scale(0.015625)"/>
       <path id="DejaVuSans-4d" d="M 628 4666 
L 1569 4666 
L 2759 1491 
L 3956 4666 
L 4897 4666 
L 4897 0 
L 4281 0 
L 4281 4097 
L 3078 897 
L 2444 897 
L 1241 4097 
L 1241 0 
L 628 0 
L 628 4666 
z
" transform="scale(0.015625)"/>
       <path id="DejaVuSans-29" d="M 513 4856 
L 1013 4856 
Q 1481 4119 1714 3412 
Q 1947 2706 1947 2009 
Q 1947 1309 1714 600 
Q 1481 -109 1013 -844 
L 513 -844 
Q 928 -128 1133 580 
Q 1338 1288 1338 2009 
Q 1338 2731 1133 3434 
Q 928 4138 513 4856 
z
" transform="scale(0.015625)"/>
      </defs>
      <use xlink:href="#DejaVuSans-5b"/>
      <use xlink:href="#DejaVuSans-6c" transform="translate(39.013672 0)"/>
      <use xlink:href="#DejaVuSans-69" transform="translate(66.796875 0)"/>
      <use xlink:href="#DejaVuSans-67" transform="translate(94.580078 0)"/>
      <use xlink:href="#DejaVuSans-61" transform="translate(158.056641 0)"/>
      <use xlink:href="#DejaVuSans-6e" transform="translate(219.335938 0)"/>
      <use xlink:href="#DejaVuSans-64" transform="translate(282.714844 0)"/>
      <use xlink:href="#DejaVuSans-5d" transform="translate(346.191406 0)"/>
      <use xlink:href="#DejaVuSans-20" transform="translate(385.205078 0)"/>
      <use xlink:href="#DejaVuSans-28" transform="translate(416.992188 0)"/>
      <use xlink:href="#DejaVuSans-75" transform="translate(456.005859 0)"/>
      <use xlink:href="#DejaVuSans-4d" transform="translate(519.384766 0)"/>
      <use xlink:href="#DejaVuSans-29" transform="translate(605.664062 0)"/>
     </g>
    </g>
   </g>
   <g id="matplotlib.axis_2">
    <g id="ytick_1">
     <g id="line2d_7">
      <defs>
       <path id="mf2086815ae" d="M 0 0 
L -3.5 0 
" style="stroke: #000000; stroke-width: 0.8"/>
      </defs>
      <g>
       <use xlink:href="#mf2086815ae" x="57.6" y="295.488" style="stroke: #000000; stroke-width: 0.8"/>
      </g>
     </g>
     <g id="text_8">
      <!-- 0.0 -->
      <g transform="translate(34.696875 299.287219) scale(0.1 -0.1)">
       <defs>
        <path id="DejaVuSans-2e" d="M 684 794 
L 1344 794 
L 1344 0 
L 684 0 
L 684 794 
z
" transform="scale(0.015625)"/>
       </defs>
       <use xlink:href="#DejaVuSans-30"/>
       <use xlink:href="#DejaVuSans-2e" transform="translate(63.623047 0)"/>
       <use xlink:href="#DejaVuSans-30" transform="translate(95.410156 0)"/>
      </g>
     </g>
    </g>
    <g id="ytick_2">
     <g id="line2d_8">
      <g>
       <use xlink:href="#mf2086815ae" x="57.6" y="247.104" style="stroke: #000000; stroke-width: 0.8"/>
      </g>
     </g>
     <g id="text_9">
      <!-- 0.2 -->
      <g transform="translate(34.696875 250.903219) scale(0.1 -0.1)">
       <use xlink:href="#DejaVuSans-30"/>
       <use xlink:href="#DejaVuSans-2e" transform="translate(63.623047 0)"/>
       <use xlink:href="#DejaVuSans-32" transform="translate(95.410156 0)"/>
      </g>
     </g>
    </g>
    <g id="ytick_3">
     <g id="line2d_9">
      <g>
       <use xlink:href="#mf2086815ae" x="57.6" y="198.72" style="stroke: #000000; stroke-width: 0.8"/>
      </g>
     </g>
     <g id="text_10">
      <!-- 0.4 -->
      <g transform="translate(34.696875 202.519219) scale(0.1 -0.1)">
       <use xlink:href="#DejaVuSans-30"/>
       <use xlink:href="#DejaVuSans-2e" transform="translate(63.623047 0)"/>
       <use xlink:href="#DejaVuSans-34" transform="translate(95.410156 0)"/>
      </g>
     </g>
    </g>
    <g id="ytick_4">
     <g id="line2d_10">
      <g>
       <use xlink:href="#mf2086815ae" x="57.6" y="150.336" style="stroke: #000000; stroke-width: 0.8"/>
      </g>
     </g>
     <g id="text_11">
      <!-- 0.6 -->
      <g transform="translate(34.696875 154.135219) scale(0.1 -0.1)">
       <defs>
        <path id="DejaVuSans-36" d="M 2113 2584 
Q 1688 2584 1439 2293 
Q 1191 2003 1191 1497 
Q 1191 994 1439 701 
Q 1688 409 2113 409 
Q 2538 409 2786 701 
Q 3034 994 3034 1497 
Q 3034 2003 2786 2293 
Q 2538 2584 2113 2584 
z
M 3366 4563 
L 3366 3988 
Q 3128 4100 2886 4159 
Q 2644 4219 2406 4219 
Q 1781 4219 1451 3797 
Q 1122 3375 1075 2522 
Q 1259 2794 1537 2939 
Q 1816 3084 2150 3084 
Q 2853 3084 3261 2657 
Q 3669 2231 3669 1497 
Q 3669 778 3244 343 
Q 2819 -91 2113 -91 
Q 1303 -91 875 529 
Q 447 1150 447 2328 
Q 447 3434 972 4092 
Q 1497 4750 2381 4750 
Q 2619 4750 2861 4703 
Q 3103 4656 3366 4563 
z
" transform="scale(0.015625)"/>
       </defs>
       <use xlink:href="#DejaVuSans-30"/>
       <use xlink:href="#DejaVuSans-2e" transform="translate(63.623047 0)"/>
       <use xlink:href="#DejaVuSans-36" transform="translate(95.410156 0)"/>
      </g>
     </g>
    </g>
    <g id="ytick_5">
     <g id="line2d_11">
      <g>
       <use xlink:href="#mf2086815ae" x="57.6" y="101.952" style="stroke: #000000; stroke-width: 0.8"/>
      </g>
     </g>
     <g id="text_12">
      <!-- 0.8 -->
      <g transform="translate(34.696875 105.751219) scale(0.1 -0.1)">
       <defs>
        <path id="DejaVuSans-38" d="M 2034 2216 
Q 1584 2216 1326 1975 
Q 1069 1734 1069 1313 
Q 1069 891 1326 650 
Q 1584 409 2034 409 
Q 2484 409 2743 651 
Q 3003 894 3003 1313 
Q 3003 1734 2745 1975 
Q 2488 2216 2034 2216 
z
M 1403 2484 
Q 997 2584 770 2862 
Q 544 3141 544 3541 
Q 544 4100 942 4425 
Q 1341 4750 2034 4750 
Q 2731 4750 3128 4425 
Q 3525 4100 3525 3541 
Q 3525 3141 3298 2862 
Q 3072 2584 2669 2484 
Q 3125 2378 3379 2068 
Q 3634 1759 3634 1313 
Q 3634 634 3220 271 
Q 2806 -91 2034 -91 
Q 1263 -91 848 271 
Q 434 634 434 1313 
Q 434 1759 690 2068 
Q 947 2378 1403 2484 
z
M 1172 3481 
Q 1172 3119 1398 2916 
Q 1625 2713 2034 2713 
Q 2441 2713 2670 2916 
Q 2900 3119 2900 3481 
Q 2900 3844 2670 4047 
Q 2441 4250 2034 4250 
Q 1625 4250 1398 4047 
Q 1172 3844 1172 3481 
z
" transform="scale(0.015625)"/>
       </defs>
       <use xlink:href="#DejaVuSans-30"/>
       <use xlink:href="#DejaVuSans-2e" transform="translate(63.623047 0)"/>
       <use xlink:href="#DejaVuSans-38" transform="translate(95.410156 0)"/>
      </g>
     </g>
    </g>
    <g id="ytick_6">
     <g id="line2d_12">
      <g>
       <use xlink:href="#mf2086815ae" x="57.6" y="53.568" style="stroke: #000000; stroke-width: 0.8"/>
      </g>
     </g>
     <g id="text_13">
      <!-- 1.0 -->
      <g transform="translate(34.696875 57.367219) scale(0.1 -0.1)">
       <use xlink:href="#DejaVuSans-31"/>
       <use xlink:href="#DejaVuSans-2e" transform="translate(63.623047 0)"/>
       <use xlink:href="#DejaVuSans-30" transform="translate(95.410156 0)"/>
      </g>
     </g>
    </g>
    <g id="text_14">
     <!-- mole fraction -->
     <g transform="translate(28.617187 207.718625) rotate(-90) scale(0.1 -0.1)">
      <defs>
       <path id="DejaVuSans-6d" d="M 3328 2828 
Q 3544 3216 3844 3400 
Q 4144 3584 4550 3584 
Q 5097 3584 5394 3201 
Q 5691 2819 5691 2113 
L 5691 0 
L 5113 0 
L 5113 2094 
Q 5113 2597 4934 2840 
Q 4756 3084 4391 3084 
Q 3944 3084 3684 2787 
Q 3425 2491 3425 1978 
L 3425 0 
L 2847 0 
L 2847 2094 
Q 2847 2600 2669 2842 
Q 2491 3084 2119 3084 
Q 1678 3084 1418 2786 
Q 1159 2488 1159 1978 
L 1159 0 
L 581 0 
L 581 3500 
L 1159 3500 
L 1159 2956 
Q 1356 3278 1631 3431 
Q 1906 3584 2284 3584 
Q 2666 3584 2933 3390 
Q 3200 3197 3328 2828 
z
" transform="scale(0.015625)"/>
       <path id="DejaVuSans-6f" d="M 1959 3097 
Q 1497 3097 1228 2736 
Q 959 2375 959 1747 
Q 959 1119 1226 758 
Q 1494 397 1959 397 
Q 2419 397 2687 759 
Q 2956 1122 2956 1747 
Q 2956 2369 2687 2733 
Q 2419 3097 1959 3097 
z
M 1959 3584 
Q 2709 3584 3137 3096 
Q 3566 2609 3566 1747 
Q 3566 888 3137 398 
Q 2709 -91 1959 -91 
Q 1206 -91 779 398 
Q 353 888 353 1747 
Q 353 2609 779 3096 
Q 1206 3584 1959 3584 
z
" transform="scale(0.015625)"/>
       <path id="DejaVuSans-65" d="M 3597 1894 
L 3597 1613 
L 953 1613 
Q 991 1019 1311 708 
Q 1631 397 2203 397 
Q 2534 397 2845 478 
Q 3156 559 3463 722 
L 3463 178 
Q 3153 47 2828 -22 
Q 2503 -91 2169 -91 
Q 1331 -91 842 396 
Q 353 884 353 1716 
Q 353 2575 817 3079 
Q 1281 3584 2069 3584 
Q 2775 3584 3186 3129 
Q 3597 2675 3597 1894 
z
M 3022 2063 
Q 3016 2534 2758 2815 
Q 2500 3097 2075 3097 
Q 1594 3097 1305 2825 
Q 1016 2553 972 2059 
L 3022 2063 
z
" transform="scale(0.015625)"/>
       <path id="DejaVuSans-66" d="M 2375 4863 
L 2375 4384 
L 1825 4384 
Q 1516 4384 1395 4259 
Q 1275 4134 1275 3809 
L 1275 3500 
L 2222 3500 
L 2222 3053 
L 1275 3053 
L 1275 0 
L 697 0 
L 697 3053 
L 147 3053 
L 147 3500 
L 697 3500 
L 697 3744 
Q 697 4328 969 4595 
Q 1241 4863 1831 4863 
L 2375 4863 
z
" transform="scale(0.015625)"/>
       <path id="DejaVuSans-72" d="M 2631 2963 
Q 2534 3019 2420 3045 
Q 2306 3072 2169 3072 
Q 1681 3072 1420 2755 
Q 1159 2438 1159 1844 
L 1159 0 
L 581 0 
L 581 3500 
L 1159 3500 
L 1159 2956 
Q 1341 3275 1631 3429 
Q 1922 3584 2338 3584 
Q 2397 3584 2469 3576 
Q 2541 3569 2628 3553 
L 2631 2963 
z
" transform="scale(0.015625)"/>
       <path id="DejaVuSans-63" d="M 3122 3366 
L 3122 2828 
Q 2878 2963 2633 3030 
Q 2388 3097 2138 3097 
Q 1578 3097 1268 2742 
Q 959 2388 959 1747 
Q 959 1106 1268 751 
Q 1578 397 2138 397 
Q 2388 397 2633 464 
Q 2878 531 3122 666 
L 3122 134 
Q 2881 22 2623 -34 
Q 2366 -91 2075 -91 
Q 1284 -91 818 406 
Q 353 903 353 1747 
Q 353 2603 823 3093 
Q 1294 3584 2113 3584 
Q 2378 3584 2631 3529 
Q 2884 3475 3122 3366 
z
" transform="scale(0.015625)"/>
       <path id="DejaVuSans-74" d="M 1172 4494 
L 1172 3500 
L 2356 3500 
L 2356 3053 
L 1172 3053 
L 1172 1153 
Q 1172 725 1289 603 
Q 1406 481 1766 481 
L 2356 481 
L 2356 0 
L 1766 0 
Q 1100 0 847 248 
Q 594 497 594 1153 
L 594 3053 
L 172 3053 
L 172 3500 
L 594 3500 
L 594 4494 
L 1172 4494 
z
" transform="scale(0.015625)"/>
      </defs>
      <use xlink:href="#DejaVuSans-6d"/>
      <use xlink:href="#DejaVuSans-6f" transform="translate(97.412109 0)"/>
      <use xlink:href="#DejaVuSans-6c" transform="translate(158.59375 0)"/>
      <use xlink:href="#DejaVuSans-65" transform="translate(186.376953 0)"/>
      <use xlink:href="#DejaVuSans-20" transform="translate(247.900391 0)"/>
      <use xlink:href="#DejaVuSans-66" transform="translate(279.6875 0)"/>
      <use xlink:href="#DejaVuSans-72" transform="translate(314.892578 0)"/>
      <use xlink:href="#DejaVuSans-61" transform="translate(356.005859 0)"/>
      <use xlink:href="#DejaVuSans-63" transform="translate(417.285156 0)"/>
      <use xlink:href="#DejaVuSans-74" transform="translate(472.265625 0)"/>
      <use xlink:href="#DejaVuSans-69" transform="translate(511.474609 0)"/>
      <use xlink:href="#DejaVuSans-6f" transform="translate(539.257812 0)"/>
      <use xlink:href="#DejaVuSans-6e" transform="translate(600.439453 0)"/>
     </g>
    </g>
   </g>
   <g id="line2d_13">
    <defs>
     <path id="mb932bcf497" d="M 0 3 
C 0.795609 3 1.55874 2.683901 2.12132 2.12132 
C 2.683901 1.55874 3 0.795609 3 0 
C 3 -0.795609 2.683901 -1.55874 2.12132 -2.12132 
C 1.55874 -2.683901 0.795609 -3 0 -3 
C -0.795609 -3 -1.55874 -2.683901 -2.12132 -2.12132 
C -2.683901 -1.55874 -3 -0.795609 -3 0 
C -3 0.795609 -2.683901 1.55874 -2.12132 2.12132 
C -1.55874 2.683901 -0.795609 3 0 3 
z
" style="stroke: #808080"/>
    </defs>
    <g clip-path="url(#p7d33b396e7)">
     <use xlink:href="#mb932bcf497" x="73.832727" y="53.568" style="fill: #808080; stroke: #808080"/>
     <use xlink:href="#mb932bcf497" x="82.324848" y="161.391744" style="fill: #808080; stroke: #808080"/>
     <use xlink:href="#mb932bcf497" x="93.357786" y="255.428503" style="fill: #808080; stroke: #808080"/>
     <use xlink:href="#mb932bcf497" x="121.534617" y="288.409669" style="fill: #808080; stroke: #808080"/>
     <use xlink:href="#mb932bcf497" x="186.725208" y="295.488" style="fill: #808080; stroke: #808080"/>
     <use xlink:href="#mb932bcf497" x="244.818379" y="295.488" style="fill: #808080; stroke: #808080"/>
     <use xlink:href="#mb932bcf497" x="333.820724" y="295.488" style="fill: #808080; stroke: #808080"/>
    </g>
   </g>
   <g id="line2d_14">
    <path d="M 73.832727 53.568 
L 75.636364 83.943623 
L 77.44 110.975707 
L 79.243636 134.892325 
L 81.047273 155.950316 
L 82.850909 174.417718 
L 84.654545 190.560965 
L 86.458182 204.636058 
L 88.261818 216.882909 
L 90.065455 227.5221 
L 91.869091 236.753431 
L 93.672727 244.755766 
L 95.476364 251.687747 
L 97.28 257.68908 
L 99.083636 262.882129 
L 100.887273 267.373656 
L 102.690909 271.256575 
L 104.494545 274.611627 
L 106.298182 277.508932 
L 108.101818 280.009386 
L 109.905455 282.165896 
L 111.709091 284.024456 
L 113.512727 285.62507 
L 115.917576 287.417472 
L 118.322424 288.88295 
L 120.727273 290.079863 
L 123.132121 291.056601 
L 126.138182 292.028216 
L 129.144242 292.781002 
L 132.751515 293.464305 
L 136.96 294.038366 
L 142.370909 294.533958 
L 148.984242 294.9055 
L 158.002424 295.180534 
L 172.431515 295.36805 
L 200.688485 295.463444 
L 310.710303 295.487621 
L 398.487273 295.487956 
L 398.487273 295.487956 
" clip-path="url(#p7d33b396e7)" style="fill: none; stroke: #808080; stroke-width: 1.5; stroke-linecap: square"/>
   </g>
   <g id="line2d_15">
    <defs>
     <path id="md7ebd21bd2" d="M 0 3 
C 0.795609 3 1.55874 2.683901 2.12132 2.12132 
C 2.683901 1.55874 3 0.795609 3 0 
C 3 -0.795609 2.683901 -1.55874 2.12132 -2.12132 
C 1.55874 -2.683901 0.795609 -3 0 -3 
C -0.795609 -3 -1.55874 -2.683901 -2.12132 -2.12132 
C -2.683901 -1.55874 -3 -0.795609 -3 0 
C -3 0.795609 -2.683901 1.55874 -2.12132 2.12132 
C -1.55874 2.683901 -0.795609 3 0 3 
z
" style="stroke: #ff9933"/>
    </defs>
    <g clip-path="url(#p7d33b396e7)">
     <use xlink:href="#md7ebd21bd2" x="73.832727" y="295.488" style="fill: #ff9933; stroke: #ff9933"/>
     <use xlink:href="#md7ebd21bd2" x="82.324848" y="215.509248" style="fill: #ff9933; stroke: #ff9933"/>
     <use xlink:href="#md7ebd21bd2" x="93.357786" y="219.752895" style="fill: #ff9933; stroke: #ff9933"/>
     <use xlink:href="#md7ebd21bd2" x="121.534617" y="276.411379" style="fill: #ff9933; stroke: #ff9933"/>
     <use xlink:href="#md7ebd21bd2" x="186.725208" y="295.488" style="fill: #ff9933; stroke: #ff9933"/>
     <use xlink:href="#md7ebd21bd2" x="244.818379" y="295.488" style="fill: #ff9933; stroke: #ff9933"/>
     <use xlink:href="#md7ebd21bd2" x="333.820724" y="295.488" style="fill: #ff9933; stroke: #ff9933"/>
    </g>
   </g>
   <g id="line2d_16">
    <path d="M 73.832727 295.488 
L 75.035152 275.905851 
L 76.237576 259.706814 
L 77.44 246.504598 
L 78.642424 235.937639 
L 79.844848 227.671583 
L 81.047273 221.400465 
L 82.249697 216.846886 
L 82.850909 215.135165 
L 83.452121 213.761425 
L 84.053333 212.698669 
L 84.654545 211.921484 
L 85.255758 211.405983 
L 85.85697 211.12975 
L 86.458182 211.07178 
L 87.059394 211.212415 
L 87.660606 211.533287 
L 88.261818 212.017252 
L 89.464242 213.411653 
L 90.666667 215.280683 
L 91.869091 217.525199 
L 93.672727 221.413228 
L 96.077576 227.216541 
L 105.69697 251.171847 
L 108.70303 257.7025 
L 111.107879 262.424965 
L 113.512727 266.686024 
L 115.917576 270.491892 
L 118.322424 273.8618 
L 120.727273 276.823573 
L 123.132121 279.410183 
L 125.53697 281.657083 
L 127.941818 283.600207 
L 130.346667 285.274527 
L 132.751515 286.713073 
L 135.757576 288.225866 
L 138.763636 289.470894 
L 141.769697 290.494183 
L 145.37697 291.484055 
L 149.585455 292.379822 
L 154.395152 293.145323 
L 159.806061 293.767858 
L 166.419394 294.292401 
L 174.836364 294.718723 
L 186.259394 295.04875 
L 202.492121 295.275763 
L 230.749091 295.41762 
L 299.888485 295.479326 
L 398.487273 295.486959 
L 398.487273 295.486959 
" clip-path="url(#p7d33b396e7)" style="fill: none; stroke: #ff9933; stroke-width: 1.5; stroke-linecap: square"/>
   </g>
   <g id="line2d_17">
    <defs>
     <path id="ma0eab2be02" d="M 0 3 
C 0.795609 3 1.55874 2.683901 2.12132 2.12132 
C 2.683901 1.55874 3 0.795609 3 0 
C 3 -0.795609 2.683901 -1.55874 2.12132 -2.12132 
C 1.55874 -2.683901 0.795609 -3 0 -3 
C -0.795609 -3 -1.55874 -2.683901 -2.12132 -2.12132 
C -2.683901 -1.55874 -3 -0.795609 -3 0 
C -3 0.795609 -2.683901 1.55874 -2.12132 2.12132 
C -1.55874 2.683901 -0.795609 3 0 3 
z
" style="stroke: #ffd700"/>
    </defs>
    <g clip-path="url(#p7d33b396e7)">
     <use xlink:href="#ma0eab2be02" x="73.832727" y="295.488" style="fill: #ffd700; stroke: #ffd700"/>
     <use xlink:href="#ma0eab2be02" x="82.324848" y="274.102272" style="fill: #ffd700; stroke: #ffd700"/>
     <use xlink:href="#ma0eab2be02" x="93.357786" y="229.052697" style="fill: #ffd700; stroke: #ffd700"/>
     <use xlink:href="#ma0eab2be02" x="121.534617" y="259.308135" style="fill: #ffd700; stroke: #ffd700"/>
     <use xlink:href="#ma0eab2be02" x="186.725208" y="295.488" style="fill: #ffd700; stroke: #ffd700"/>
     <use xlink:href="#ma0eab2be02" x="244.818379" y="295.488" style="fill: #ffd700; stroke: #ffd700"/>
     <use xlink:href="#ma0eab2be02" x="333.820724" y="295.488" style="fill: #ffd700; stroke: #ffd700"/>
    </g>
   </g>
   <g id="line2d_18">
    <path d="M 73.832727 295.488 
L 74.433939 295.222385 
L 75.035152 294.472017 
L 75.636364 293.302692 
L 76.838788 289.945107 
L 78.041212 285.577721 
L 79.844848 277.895359 
L 84.654545 256.466766 
L 86.458182 249.500331 
L 88.261818 243.519313 
L 89.464242 240.129086 
L 90.666667 237.228304 
L 91.869091 234.813685 
L 93.071515 232.87301 
L 94.273939 231.387305 
L 95.476364 230.332632 
L 96.678788 229.68156 
L 97.881212 229.404349 
L 99.083636 229.469906 
L 100.286061 229.846548 
L 101.488485 230.502603 
L 102.690909 231.40689 
L 104.494545 233.162755 
L 106.298182 235.312003 
L 108.70303 238.635526 
L 111.709091 243.264187 
L 122.530909 260.415302 
L 125.53697 264.631574 
L 128.54303 268.469182 
L 131.549091 271.912227 
L 134.555152 274.966602 
L 137.561212 277.652509 
L 140.567273 279.998588 
L 143.573333 282.037572 
L 146.579394 283.803253 
L 149.585455 285.328493 
L 153.192727 286.884485 
L 156.8 288.186182 
L 161.008485 289.438606 
L 165.21697 290.456993 
L 170.026667 291.392305 
L 175.437576 292.216926 
L 182.050909 292.978997 
L 189.866667 293.629515 
L 198.884848 294.150629 
L 210.307879 294.58435 
L 225.939394 294.937656 
L 248.184242 295.196681 
L 284.25697 295.368679 
L 359.408485 295.460724 
L 398.487273 295.473418 
L 398.487273 295.473418 
" clip-path="url(#p7d33b396e7)" style="fill: none; stroke: #ffd700; stroke-width: 1.5; stroke-linecap: square"/>
   </g>
   <g id="line2d_19">
    <defs>
     <path id="mff8d29bb71" d="M 0 3 
C 0.795609 3 1.55874 2.683901 2.12132 2.12132 
C 2.683901 1.55874 3 0.795609 3 0 
C 3 -0.795609 2.683901 -1.55874 2.12132 -2.12132 
C 1.55874 -2.683901 0.795609 -3 0 -3 
C -0.795609 -3 -1.55874 -2.683901 -2.12132 -2.12132 
C -2.683901 -1.55874 -3 -0.795609 -3 0 
C -3 0.795609 -2.683901 1.55874 -2.12132 2.12132 
C -1.55874 2.683901 -0.795609 3 0 3 
z
" style="stroke: #7fff00"/>
    </defs>
    <g clip-path="url(#p7d33b396e7)">
     <use xlink:href="#mff8d29bb71" x="73.832727" y="295.488" style="fill: #7fff00; stroke: #7fff00"/>
     <use xlink:href="#mff8d29bb71" x="82.324848" y="289.028736" style="fill: #7fff00; stroke: #7fff00"/>
     <use xlink:href="#mff8d29bb71" x="93.357786" y="262.001577" style="fill: #7fff00; stroke: #7fff00"/>
     <use xlink:href="#mff8d29bb71" x="121.534617" y="251.435719" style="fill: #7fff00; stroke: #7fff00"/>
     <use xlink:href="#mff8d29bb71" x="186.725208" y="282.272855" style="fill: #7fff00; stroke: #7fff00"/>
     <use xlink:href="#mff8d29bb71" x="244.818379" y="295.488" style="fill: #7fff00; stroke: #7fff00"/>
     <use xlink:href="#mff8d29bb71" x="333.820724" y="295.488" style="fill: #7fff00; stroke: #7fff00"/>
    </g>
   </g>
   <g id="line2d_20">
    <path d="M 73.832727 295.488 
L 75.636364 295.381524 
L 76.838788 295.037882 
L 78.041212 294.361312 
L 79.243636 293.305523 
L 80.446061 291.859062 
L 81.648485 290.036447 
L 82.850909 287.870726 
L 84.654545 284.08043 
L 87.059394 278.302468 
L 94.875152 258.720892 
L 96.678788 254.874385 
L 98.482424 251.478066 
L 100.286061 248.579613 
L 102.089697 246.205024 
L 103.292121 244.917203 
L 104.494545 243.863743 
L 105.69697 243.039916 
L 106.899394 242.438601 
L 108.101818 242.050654 
L 109.304242 241.865268 
L 110.506667 241.870308 
L 111.709091 242.052636 
L 112.911515 242.398411 
L 114.715152 243.192262 
L 116.518788 244.27303 
L 118.322424 245.592716 
L 120.727273 247.644856 
L 123.733333 250.540915 
L 128.54303 255.555418 
L 135.156364 262.429445 
L 139.364848 266.47441 
L 142.972121 269.647225 
L 146.579394 272.525227 
L 150.186667 275.107962 
L 153.793939 277.407838 
L 157.401212 279.444653 
L 161.008485 281.241785 
L 165.21697 283.068099 
L 169.425455 284.639222 
L 173.633939 285.990163 
L 178.443636 287.304548 
L 183.854545 288.53868 
L 189.866667 289.662462 
L 196.48 290.659074 
L 203.694545 291.523139 
L 212.111515 292.307465 
L 222.332121 293.022135 
L 234.356364 293.628633 
L 249.386667 294.150382 
L 268.625455 294.580543 
L 294.477576 294.921442 
L 332.353939 295.179008 
L 394.88 295.35443 
L 398.487273 295.360116 
L 398.487273 295.360116 
" clip-path="url(#p7d33b396e7)" style="fill: none; stroke: #7fff00; stroke-width: 1.5; stroke-linecap: square"/>
   </g>
   <g id="line2d_21">
    <defs>
     <path id="m6e01912ca7" d="M 0 3 
C 0.795609 3 1.55874 2.683901 2.12132 2.12132 
C 2.683901 1.55874 3 0.795609 3 0 
C 3 -0.795609 2.683901 -1.55874 2.12132 -2.12132 
C 1.55874 -2.683901 0.795609 -3 0 -3 
C -0.795609 -3 -1.55874 -2.683901 -2.12132 -2.12132 
C -2.683901 -1.55874 -3 -0.795609 -3 0 
C -3 0.795609 -2.683901 1.55874 -2.12132 2.12132 
C -1.55874 2.683901 -0.795609 3 0 3 
z
" style="stroke: #00eeff"/>
    </defs>
    <g clip-path="url(#p7d33b396e7)">
     <use xlink:href="#m6e01912ca7" x="73.832727" y="295.488" style="fill: #00eeff; stroke: #00eeff"/>
     <use xlink:href="#m6e01912ca7" x="82.324848" y="295.488" style="fill: #00eeff; stroke: #00eeff"/>
     <use xlink:href="#m6e01912ca7" x="93.357786" y="279.341506" style="fill: #00eeff; stroke: #00eeff"/>
     <use xlink:href="#m6e01912ca7" x="121.534617" y="257.600725" style="fill: #00eeff; stroke: #00eeff"/>
     <use xlink:href="#m6e01912ca7" x="186.725208" y="274.987572" style="fill: #00eeff; stroke: #00eeff"/>
     <use xlink:href="#m6e01912ca7" x="244.818379" y="279.565448" style="fill: #00eeff; stroke: #00eeff"/>
     <use xlink:href="#m6e01912ca7" x="333.820724" y="287.225333" style="fill: #00eeff; stroke: #00eeff"/>
    </g>
   </g>
   <g id="line2d_22">
    <path d="M 73.832727 295.488 
L 78.041212 295.393041 
L 79.844848 295.143979 
L 81.648485 294.634707 
L 82.850909 294.112296 
L 84.053333 293.424658 
L 85.85697 292.064521 
L 87.660606 290.306223 
L 89.464242 288.17007 
L 91.267879 285.69839 
L 93.672727 281.984004 
L 97.28 275.860709 
L 102.690909 266.616692 
L 105.095758 262.890882 
L 107.500606 259.57099 
L 109.304242 257.395869 
L 111.107879 255.51489 
L 112.911515 253.939338 
L 114.715152 252.671662 
L 116.518788 251.706606 
L 118.322424 251.032496 
L 120.126061 250.632575 
L 121.929697 250.48632 
L 123.733333 250.570669 
L 125.53697 250.861124 
L 127.941818 251.525851 
L 130.346667 252.454452 
L 133.352727 253.903147 
L 136.96 255.93876 
L 142.370909 259.32126 
L 153.192727 266.173821 
L 158.603636 269.311828 
L 163.413333 271.862549 
L 168.22303 274.177099 
L 173.032727 276.260189 
L 178.443636 278.343686 
L 183.854545 280.176148 
L 189.265455 281.784749 
L 195.277576 283.341914 
L 201.890909 284.813862 
L 209.105455 286.176852 
L 216.921212 287.416747 
L 225.338182 288.527735 
L 234.957576 289.569624 
L 245.779394 290.514174 
L 258.404848 291.383931 
L 272.833939 292.150774 
L 290.269091 292.845839 
L 311.311515 293.452498 
L 337.764848 293.979998 
L 372.033939 294.425309 
L 398.487273 294.656532 
L 398.487273 294.656532 
" clip-path="url(#p7d33b396e7)" style="fill: none; stroke: #00eeff; stroke-width: 1.5; stroke-linecap: square"/>
   </g>
   <g id="line2d_23">
    <defs>
     <path id="ma9f132f573" d="M 0 3 
C 0.795609 3 1.55874 2.683901 2.12132 2.12132 
C 2.683901 1.55874 3 0.795609 3 0 
C 3 -0.795609 2.683901 -1.55874 2.12132 -2.12132 
C 1.55874 -2.683901 0.795609 -3 0 -3 
C -0.795609 -3 -1.55874 -2.683901 -2.12132 -2.12132 
C -2.683901 -1.55874 -3 -0.795609 -3 0 
C -3 0.795609 -2.683901 1.55874 -2.12132 2.12132 
C -1.55874 2.683901 -0.795609 3 0 3 
z
" style="stroke: #0331fc"/>
    </defs>
    <g clip-path="url(#p7d33b396e7)">
     <use xlink:href="#ma9f132f573" x="73.832727" y="295.488" style="fill: #0331fc; stroke: #0331fc"/>
     <use xlink:href="#ma9f132f573" x="82.324848" y="295.488" style="fill: #0331fc; stroke: #0331fc"/>
     <use xlink:href="#ma9f132f573" x="93.357786" y="285.430823" style="fill: #0331fc; stroke: #0331fc"/>
     <use xlink:href="#ma9f132f573" x="121.534617" y="268.261705" style="fill: #0331fc; stroke: #0331fc"/>
     <use xlink:href="#ma9f132f573" x="186.725208" y="269.629879" style="fill: #0331fc; stroke: #0331fc"/>
     <use xlink:href="#ma9f132f573" x="244.818379" y="274.885936" style="fill: #0331fc; stroke: #0331fc"/>
     <use xlink:href="#ma9f132f573" x="333.820724" y="283.871896" style="fill: #0331fc; stroke: #0331fc"/>
    </g>
   </g>
   <g id="line2d_24">
    <path d="M 73.832727 295.488 
L 81.047273 295.408002 
L 84.053333 295.127938 
L 86.458182 294.633109 
L 88.261818 294.045928 
L 90.065455 293.241068 
L 91.869091 292.199634 
L 93.672727 290.913604 
L 95.476364 289.386042 
L 97.881212 286.998433 
L 100.286061 284.263998 
L 103.292121 280.481347 
L 114.715152 265.601435 
L 117.12 262.940729 
L 119.524848 260.57577 
L 121.929697 258.532739 
L 124.334545 256.822504 
L 126.739394 255.442978 
L 129.144242 254.381816 
L 131.549091 253.619136 
L 133.953939 253.130039 
L 136.358788 252.886765 
L 138.763636 252.860449 
L 141.769697 253.089142 
L 144.775758 253.55908 
L 148.38303 254.373686 
L 152.591515 255.578822 
L 158.002424 257.388701 
L 167.020606 260.69533 
L 179.646061 265.287665 
L 188.06303 268.09979 
L 195.878788 270.477484 
L 203.694545 272.625307 
L 211.510303 274.553798 
L 219.927273 276.405332 
L 228.945455 278.157242 
L 238.564848 279.794668 
L 248.785455 281.309546 
L 260.208485 282.770799 
L 272.833939 284.149092 
L 286.661818 285.425428 
L 301.692121 286.589781 
L 319.127273 287.709696 
L 338.967273 288.74949 
L 361.212121 289.688923 
L 387.064242 290.556084 
L 398.487273 290.879106 
L 398.487273 290.879106 
" clip-path="url(#p7d33b396e7)" style="fill: none; stroke: #0331fc; stroke-width: 1.5; stroke-linecap: square"/>
   </g>
   <g id="line2d_25">
    <defs>
     <path id="ma3353b16c8" d="M 0 3 
C 0.795609 3 1.55874 2.683901 2.12132 2.12132 
C 2.683901 1.55874 3 0.795609 3 0 
C 3 -0.795609 2.683901 -1.55874 2.12132 -2.12132 
C 1.55874 -2.683901 0.795609 -3 0 -3 
C -0.795609 -3 -1.55874 -2.683901 -2.12132 -2.12132 
C -2.683901 -1.55874 -3 -0.795609 -3 0 
C -3 0.795609 -2.683901 1.55874 -2.12132 2.12132 
C -1.55874 2.683901 -0.795609 3 0 3 
z
" style="stroke: #ba1e8c"/>
    </defs>
    <g clip-path="url(#p7d33b396e7)">
     <use xlink:href="#ma3353b16c8" x="73.832727" y="295.488" style="fill: #ba1e8c; stroke: #ba1e8c"/>
     <use xlink:href="#ma3353b16c8" x="82.324848" y="295.488" style="fill: #ba1e8c; stroke: #ba1e8c"/>
     <use xlink:href="#ma3353b16c8" x="93.357786" y="295.488" style="fill: #ba1e8c; stroke: #ba1e8c"/>
     <use xlink:href="#ma3353b16c8" x="121.534617" y="274.856401" style="fill: #ba1e8c; stroke: #ba1e8c"/>
     <use xlink:href="#ma3353b16c8" x="186.725208" y="273.478333" style="fill: #ba1e8c; stroke: #ba1e8c"/>
     <use xlink:href="#ma3353b16c8" x="244.818379" y="277.977805" style="fill: #ba1e8c; stroke: #ba1e8c"/>
     <use xlink:href="#ma3353b16c8" x="333.820724" y="284.4867" style="fill: #ba1e8c; stroke: #ba1e8c"/>
    </g>
   </g>
   <g id="line2d_26">
    <path d="M 73.832727 295.488 
L 86.458182 295.391962 
L 90.065455 295.163461 
L 93.071515 294.782978 
L 96.077576 294.169231 
L 99.083636 293.282105 
L 102.089697 292.105051 
L 105.095758 290.647875 
L 108.101818 288.945038 
L 111.709091 286.654041 
L 118.322424 282.12021 
L 124.334545 278.113355 
L 128.54303 275.592423 
L 132.150303 273.685977 
L 135.757576 272.036469 
L 139.364848 270.646036 
L 142.972121 269.504119 
L 146.579394 268.592141 
L 150.186667 267.887235 
L 154.395152 267.293962 
L 159.204848 266.87148 
L 164.014545 266.671495 
L 170.026667 266.665464 
L 176.64 266.891218 
L 185.05697 267.417616 
L 196.48 268.383212 
L 217.522424 270.442617 
L 245.779394 273.147479 
L 267.42303 274.986133 
L 289.066667 276.60117 
L 312.513939 278.121058 
L 337.764848 279.529154 
L 365.420606 280.846542 
L 396.683636 282.107704 
L 398.487273 282.174154 
L 398.487273 282.174154 
" clip-path="url(#p7d33b396e7)" style="fill: none; stroke: #ba1e8c; stroke-width: 1.5; stroke-linecap: square"/>
   </g>
   <g id="line2d_27">
    <defs>
     <path id="m66282cdd41" d="M 0 3 
C 0.795609 3 1.55874 2.683901 2.12132 2.12132 
C 2.683901 1.55874 3 0.795609 3 0 
C 3 -0.795609 2.683901 -1.55874 2.12132 -2.12132 
C 1.55874 -2.683901 0.795609 -3 0 -3 
C -0.795609 -3 -1.55874 -2.683901 -2.12132 -2.12132 
C -2.683901 -1.55874 -3 -0.795609 -3 0 
C -3 0.795609 -2.683901 1.55874 -2.12132 2.12132 
C -1.55874 2.683901 -0.795609 3 0 3 
z
" style="stroke: #b30505"/>
    </defs>
    <g clip-path="url(#p7d33b396e7)">
     <use xlink:href="#m66282cdd41" x="73.832727" y="295.488" style="fill: #b30505; stroke: #b30505"/>
     <use xlink:href="#m66282cdd41" x="82.324848" y="295.488" style="fill: #b30505; stroke: #b30505"/>
     <use xlink:href="#m66282cdd41" x="93.357786" y="295.488" style="fill: #b30505; stroke: #b30505"/>
     <use xlink:href="#m66282cdd41" x="121.534617" y="245.700267" style="fill: #b30505; stroke: #b30505"/>
     <use xlink:href="#m66282cdd41" x="186.725208" y="135.151361" style="fill: #b30505; stroke: #b30505"/>
     <use xlink:href="#m66282cdd41" x="244.818379" y="107.602811" style="fill: #b30505; stroke: #b30505"/>
     <use xlink:href="#m66282cdd41" x="333.820724" y="84.448071" style="fill: #b30505; stroke: #b30505"/>
    </g>
   </g>
   <g id="line2d_28">
    <path d="M 73.832727 295.488 
L 87.660606 295.380605 
L 90.666667 295.15401 
L 93.071515 294.788152 
L 95.476364 294.175685 
L 97.28 293.504758 
L 99.083636 292.614012 
L 100.887273 291.47139 
L 102.690909 290.049092 
L 104.494545 288.325076 
L 106.298182 286.284191 
L 108.101818 283.918885 
L 109.905455 281.229441 
L 112.310303 277.154033 
L 114.715152 272.555163 
L 117.12 267.488934 
L 120.126061 260.605414 
L 123.733333 251.738837 
L 129.144242 237.751988 
L 137.561212 215.983834 
L 142.370909 204.214344 
L 146.579394 194.534433 
L 150.186667 186.751406 
L 153.793939 179.459488 
L 157.401212 172.656422 
L 161.008485 166.328206 
L 164.615758 160.453244 
L 168.22303 155.005477 
L 171.830303 149.956632 
L 175.437576 145.277809 
L 179.044848 140.940536 
L 182.652121 136.917452 
L 186.860606 132.586571 
L 191.069091 128.610186 
L 195.277576 124.953609 
L 199.486061 121.585474 
L 203.694545 118.477572 
L 208.504242 115.212042 
L 213.313939 112.220018 
L 218.123636 109.472103 
L 223.534545 106.640472 
L 228.945455 104.053177 
L 234.957576 101.431395 
L 240.969697 99.044435 
L 247.58303 96.656737 
L 254.797576 94.300397 
L 262.613333 92.00137 
L 270.429091 89.930468 
L 278.846061 87.920407 
L 288.465455 85.863279 
L 298.686061 83.916788 
L 309.507879 82.083361 
L 321.532121 80.277678 
L 334.758788 78.527151 
L 349.187879 76.851549 
L 364.819394 75.263958 
L 382.254545 73.722301 
L 398.487273 72.465758 
L 398.487273 72.465758 
" clip-path="url(#p7d33b396e7)" style="fill: none; stroke: #b30505; stroke-width: 1.5; stroke-linecap: square"/>
   </g>
   <g id="patch_3">
    <path d="M 57.6 307.584 
L 57.6 41.472 
" style="fill: none; stroke: #000000; stroke-width: 0.8; stroke-linejoin: miter; stroke-linecap: square"/>
   </g>
   <g id="patch_4">
    <path d="M 414.72 307.584 
L 414.72 41.472 
" style="fill: none; stroke: #000000; stroke-width: 0.8; stroke-linejoin: miter; stroke-linecap: square"/>
   </g>
   <g id="patch_5">
    <path d="M 57.6 307.584 
L 414.72 307.584 
" style="fill: none; stroke: #000000; stroke-width: 0.8; stroke-linejoin: miter; stroke-linecap: square"/>
   </g>
   <g id="patch_6">
    <path d="M 57.6 41.472 
L 414.72 41.472 
" style="fill: none; stroke: #000000; stroke-width: 0.8; stroke-linejoin: miter; stroke-linecap: square"/>
   </g>
  </g>
 </g>
 <defs>
  <clipPath id="p7d33b396e7">
   <rect x="57.6" y="41.472" width="357.12" height="266.112"/>
  </clipPath>
 </defs>
</svg>
