<?xml version="1.0" encoding="utf-8" standalone="no"?>
<!DOCTYPE svg PUBLIC "-//W3C//DTD SVG 1.1//EN"
  "http://www.w3.org/Graphics/SVG/1.1/DTD/svg11.dtd">
<svg xmlns:xlink="http://www.w3.org/1999/xlink" width="460.8pt" height="345.6pt" viewBox="0 0 460.8 345.6" xmlns="http://www.w3.org/2000/svg" version="1.1">
 <metadata>
  <rdf:RDF xmlns:dc="http://purl.org/dc/elements/1.1/" xmlns:cc="http://creativecommons.org/ns#" xmlns:rdf="http://www.w3.org/1999/02/22-rdf-syntax-ns#">
   <cc:Work>
    <dc:type rdf:resource="http://purl.org/dc/dcmitype/StillImage"/>
    <dc:date>2025-05-04T00:37:07.960477</dc:date>
    <dc:format>image/svg+xml</dc:format>
    <dc:creator>
     <cc:Agent>
      <dc:title>Matplotlib v3.10.1, https://matplotlib.org/</dc:title>
     </cc:Agent>
    </dc:creator>
   </cc:Work>
  </rdf:RDF>
 </metadata>
 <defs>
  <style type="text/css">*{stroke-linejoin: round; stroke-linecap: butt}</style>
 </defs>
 <g id="figure_1">
  <g id="patch_1">
   <path d="M 0 345.6 
L 460.8 345.6 
L 460.8 0 
L 0 0 
z
" style="fill: #ffffff"/>
  </g>
  <g id="axes_1">
   <g id="patch_2">
    <path d="M 57.6 307.584 
L 414.72 307.584 
L 414.72 41.472 
L 57.6 41.472 
z
" style="fill: #ffffff"/>
   </g>
   <g id="matplotlib.axis_1">
    <g id="xtick_1">
     <g id="line2d_1">
      <defs>
       <path id="me977fe661c" d="M 0 0 
L 0 3.5 
" style="stroke: #000000; stroke-width: 0.8"/>
      </defs>
      <g>
       <use xlink:href="#me977fe661c" x="73.832727" y="307.584" style="stroke: #000000; stroke-width: 0.8"/>
      </g>
     </g>
     <g id="text_1">
      <!-- 0 -->
      <g transform="translate(70.651477 322.182437) scale(0.1 -0.1)">
       <defs>
        <path id="DejaVuSans-30" d="M 2034 4250 
Q 1547 4250 1301 3770 
Q 1056 3291 1056 2328 
Q 1056 1369 1301 889 
Q 1547 409 2034 409 
Q 2525 409 2770 889 
Q 3016 1369 3016 2328 
Q 3016 3291 2770 3770 
Q 2525 4250 2034 4250 
z
M 2034 4750 
Q 2819 4750 3233 4129 
Q 3647 3509 3647 2328 
Q 3647 1150 3233 529 
Q 2819 -91 2034 -91 
Q 1250 -91 836 529 
Q 422 1150 422 2328 
Q 422 3509 836 4129 
Q 1250 4750 2034 4750 
z
" transform="scale(0.015625)"/>
       </defs>
       <use xlink:href="#DejaVuSans-30"/>
      </g>
     </g>
    </g>
    <g id="xtick_2">
     <g id="line2d_2">
      <g>
       <use xlink:href="#me977fe661c" x="133.402369" y="307.584" style="stroke: #000000; stroke-width: 0.8"/>
      </g>
     </g>
     <g id="text_2">
      <!-- 10 -->
      <g transform="translate(127.039869 322.182437) scale(0.1 -0.1)">
       <defs>
        <path id="DejaVuSans-31" d="M 794 531 
L 1825 531 
L 1825 4091 
L 703 3866 
L 703 4441 
L 1819 4666 
L 2450 4666 
L 2450 531 
L 3481 531 
L 3481 0 
L 794 0 
L 794 531 
z
" transform="scale(0.015625)"/>
       </defs>
       <use xlink:href="#DejaVuSans-31"/>
       <use xlink:href="#DejaVuSans-30" transform="translate(63.623047 0)"/>
      </g>
     </g>
    </g>
    <g id="xtick_3">
     <g id="line2d_3">
      <g>
       <use xlink:href="#me977fe661c" x="192.97201" y="307.584" style="stroke: #000000; stroke-width: 0.8"/>
      </g>
     </g>
     <g id="text_3">
      <!-- 20 -->
      <g transform="translate(186.60951 322.182437) scale(0.1 -0.1)">
       <defs>
        <path id="DejaVuSans-32" d="M 1228 531 
L 3431 531 
L 3431 0 
L 469 0 
L 469 531 
Q 828 903 1448 1529 
Q 2069 2156 2228 2338 
Q 2531 2678 2651 2914 
Q 2772 3150 2772 3378 
Q 2772 3750 2511 3984 
Q 2250 4219 1831 4219 
Q 1534 4219 1204 4116 
Q 875 4013 500 3803 
L 500 4441 
Q 881 4594 1212 4672 
Q 1544 4750 1819 4750 
Q 2544 4750 2975 4387 
Q 3406 4025 3406 3419 
Q 3406 3131 3298 2873 
Q 3191 2616 2906 2266 
Q 2828 2175 2409 1742 
Q 1991 1309 1228 531 
z
" transform="scale(0.015625)"/>
       </defs>
       <use xlink:href="#DejaVuSans-32"/>
       <use xlink:href="#DejaVuSans-30" transform="translate(63.623047 0)"/>
      </g>
     </g>
    </g>
    <g id="xtick_4">
     <g id="line2d_4">
      <g>
       <use xlink:href="#me977fe661c" x="252.541651" y="307.584" style="stroke: #000000; stroke-width: 0.8"/>
      </g>
     </g>
     <g id="text_4">
      <!-- 30 -->
      <g transform="translate(246.179151 322.182437) scale(0.1 -0.1)">
       <defs>
        <path id="DejaVuSans-33" d="M 2597 2516 
Q 3050 2419 3304 2112 
Q 3559 1806 3559 1356 
Q 3559 666 3084 287 
Q 2609 -91 1734 -91 
Q 1441 -91 1130 -33 
Q 819 25 488 141 
L 488 750 
Q 750 597 1062 519 
Q 1375 441 1716 441 
Q 2309 441 2620 675 
Q 2931 909 2931 1356 
Q 2931 1769 2642 2001 
Q 2353 2234 1838 2234 
L 1294 2234 
L 1294 2753 
L 1863 2753 
Q 2328 2753 2575 2939 
Q 2822 3125 2822 3475 
Q 2822 3834 2567 4026 
Q 2313 4219 1838 4219 
Q 1578 4219 1281 4162 
Q 984 4106 628 3988 
L 628 4550 
Q 988 4650 1302 4700 
Q 1616 4750 1894 4750 
Q 2613 4750 3031 4423 
Q 3450 4097 3450 3541 
Q 3450 3153 3228 2886 
Q 3006 2619 2597 2516 
z
" transform="scale(0.015625)"/>
       </defs>
       <use xlink:href="#DejaVuSans-33"/>
       <use xlink:href="#DejaVuSans-30" transform="translate(63.623047 0)"/>
      </g>
     </g>
    </g>
    <g id="xtick_5">
     <g id="line2d_5">
      <g>
       <use xlink:href="#me977fe661c" x="312.111293" y="307.584" style="stroke: #000000; stroke-width: 0.8"/>
      </g>
     </g>
     <g id="text_5">
      <!-- 40 -->
      <g transform="translate(305.748793 322.182437) scale(0.1 -0.1)">
       <defs>
        <path id="DejaVuSans-34" d="M 2419 4116 
L 825 1625 
L 2419 1625 
L 2419 4116 
z
M 2253 4666 
L 3047 4666 
L 3047 1625 
L 3713 1625 
L 3713 1100 
L 3047 1100 
L 3047 0 
L 2419 0 
L 2419 1100 
L 313 1100 
L 313 1709 
L 2253 4666 
z
" transform="scale(0.015625)"/>
       </defs>
       <use xlink:href="#DejaVuSans-34"/>
       <use xlink:href="#DejaVuSans-30" transform="translate(63.623047 0)"/>
      </g>
     </g>
    </g>
    <g id="xtick_6">
     <g id="line2d_6">
      <g>
       <use xlink:href="#me977fe661c" x="371.680934" y="307.584" style="stroke: #000000; stroke-width: 0.8"/>
      </g>
     </g>
     <g id="text_6">
      <!-- 50 -->
      <g transform="translate(365.318434 322.182437) scale(0.1 -0.1)">
       <defs>
        <path id="DejaVuSans-35" d="M 691 4666 
L 3169 4666 
L 3169 4134 
L 1269 4134 
L 1269 2991 
Q 1406 3038 1543 3061 
Q 1681 3084 1819 3084 
Q 2600 3084 3056 2656 
Q 3513 2228 3513 1497 
Q 3513 744 3044 326 
Q 2575 -91 1722 -91 
Q 1428 -91 1123 -41 
Q 819 9 494 109 
L 494 744 
Q 775 591 1075 516 
Q 1375 441 1709 441 
Q 2250 441 2565 725 
Q 2881 1009 2881 1497 
Q 2881 1984 2565 2268 
Q 2250 2553 1709 2553 
Q 1456 2553 1204 2497 
Q 953 2441 691 2322 
L 691 4666 
z
" transform="scale(0.015625)"/>
       </defs>
       <use xlink:href="#DejaVuSans-35"/>
       <use xlink:href="#DejaVuSans-30" transform="translate(63.623047 0)"/>
      </g>
     </g>
    </g>
    <g id="text_7">
     <!-- [ligand] (uM) -->
     <g transform="translate(203.925625 335.860562) scale(0.1 -0.1)">
      <defs>
       <path id="DejaVuSans-5b" d="M 550 4863 
L 1875 4863 
L 1875 4416 
L 1125 4416 
L 1125 -397 
L 1875 -397 
L 1875 -844 
L 550 -844 
L 550 4863 
z
" transform="scale(0.015625)"/>
       <path id="DejaVuSans-6c" d="M 603 4863 
L 1178 4863 
L 1178 0 
L 603 0 
L 603 4863 
z
" transform="scale(0.015625)"/>
       <path id="DejaVuSans-69" d="M 603 3500 
L 1178 3500 
L 1178 0 
L 603 0 
L 603 3500 
z
M 603 4863 
L 1178 4863 
L 1178 4134 
L 603 4134 
L 603 4863 
z
" transform="scale(0.015625)"/>
       <path id="DejaVuSans-67" d="M 2906 1791 
Q 2906 2416 2648 2759 
Q 2391 3103 1925 3103 
Q 1463 3103 1205 2759 
Q 947 2416 947 1791 
Q 947 1169 1205 825 
Q 1463 481 1925 481 
Q 2391 481 2648 825 
Q 2906 1169 2906 1791 
z
M 3481 434 
Q 3481 -459 3084 -895 
Q 2688 -1331 1869 -1331 
Q 1566 -1331 1297 -1286 
Q 1028 -1241 775 -1147 
L 775 -588 
Q 1028 -725 1275 -790 
Q 1522 -856 1778 -856 
Q 2344 -856 2625 -561 
Q 2906 -266 2906 331 
L 2906 616 
Q 2728 306 2450 153 
Q 2172 0 1784 0 
Q 1141 0 747 490 
Q 353 981 353 1791 
Q 353 2603 747 3093 
Q 1141 3584 1784 3584 
Q 2172 3584 2450 3431 
Q 2728 3278 2906 2969 
L 2906 3500 
L 3481 3500 
L 3481 434 
z
" transform="scale(0.015625)"/>
       <path id="DejaVuSans-61" d="M 2194 1759 
Q 1497 1759 1228 1600 
Q 959 1441 959 1056 
Q 959 750 1161 570 
Q 1363 391 1709 391 
Q 2188 391 2477 730 
Q 2766 1069 2766 1631 
L 2766 1759 
L 2194 1759 
z
M 3341 1997 
L 3341 0 
L 2766 0 
L 2766 531 
Q 2569 213 2275 61 
Q 1981 -91 1556 -91 
Q 1019 -91 701 211 
Q 384 513 384 1019 
Q 384 1609 779 1909 
Q 1175 2209 1959 2209 
L 2766 2209 
L 2766 2266 
Q 2766 2663 2505 2880 
Q 2244 3097 1772 3097 
Q 1472 3097 1187 3025 
Q 903 2953 641 2809 
L 641 3341 
Q 956 3463 1253 3523 
Q 1550 3584 1831 3584 
Q 2591 3584 2966 3190 
Q 3341 2797 3341 1997 
z
" transform="scale(0.015625)"/>
       <path id="DejaVuSans-6e" d="M 3513 2113 
L 3513 0 
L 2938 0 
L 2938 2094 
Q 2938 2591 2744 2837 
Q 2550 3084 2163 3084 
Q 1697 3084 1428 2787 
Q 1159 2491 1159 1978 
L 1159 0 
L 581 0 
L 581 3500 
L 1159 3500 
L 1159 2956 
Q 1366 3272 1645 3428 
Q 1925 3584 2291 3584 
Q 2894 3584 3203 3211 
Q 3513 2838 3513 2113 
z
" transform="scale(0.015625)"/>
       <path id="DejaVuSans-64" d="M 2906 2969 
L 2906 4863 
L 3481 4863 
L 3481 0 
L 2906 0 
L 2906 525 
Q 2725 213 2448 61 
Q 2172 -91 1784 -91 
Q 1150 -91 751 415 
Q 353 922 353 1747 
Q 353 2572 751 3078 
Q 1150 3584 1784 3584 
Q 2172 3584 2448 3432 
Q 2725 3281 2906 2969 
z
M 947 1747 
Q 947 1113 1208 752 
Q 1469 391 1925 391 
Q 2381 391 2643 752 
Q 2906 1113 2906 1747 
Q 2906 2381 2643 2742 
Q 2381 3103 1925 3103 
Q 1469 3103 1208 2742 
Q 947 2381 947 1747 
z
" transform="scale(0.015625)"/>
       <path id="DejaVuSans-5d" d="M 1947 4863 
L 1947 -844 
L 622 -844 
L 622 -397 
L 1369 -397 
L 1369 4416 
L 622 4416 
L 622 4863 
L 1947 4863 
z
" transform="scale(0.015625)"/>
       <path id="DejaVuSans-20" transform="scale(0.015625)"/>
       <path id="DejaVuSans-28" d="M 1984 4856 
Q 1566 4138 1362 3434 
Q 1159 2731 1159 2009 
Q 1159 1288 1364 580 
Q 1569 -128 1984 -844 
L 1484 -844 
Q 1016 -109 783 600 
Q 550 1309 550 2009 
Q 550 2706 781 3412 
Q 1013 4119 1484 4856 
L 1984 4856 
z
" transform="scale(0.015625)"/>
       <path id="DejaVuSans-75" d="M 544 1381 
L 544 3500 
L 1119 3500 
L 1119 1403 
Q 1119 906 1312 657 
Q 1506 409 1894 409 
Q 2359 409 2629 706 
Q 2900 1003 2900 1516 
L 2900 3500 
L 3475 3500 
L 3475 0 
L 2900 0 
L 2900 538 
Q 2691 219 2414 64 
Q 2138 -91 1772 -91 
Q 1169 -91 856 284 
Q 544 659 544 1381 
z
M 1991 3584 
L 1991 3584 
z
" transform="scale(0.015625)"/>
       <path id="DejaVuSans-4d" d="M 628 4666 
L 1569 4666 
L 2759 1491 
L 3956 4666 
L 4897 4666 
L 4897 0 
L 4281 0 
L 4281 4097 
L 3078 897 
L 2444 897 
L 1241 4097 
L 1241 0 
L 628 0 
L 628 4666 
z
" transform="scale(0.015625)"/>
       <path id="DejaVuSans-29" d="M 513 4856 
L 1013 4856 
Q 1481 4119 1714 3412 
Q 1947 2706 1947 2009 
Q 1947 1309 1714 600 
Q 1481 -109 1013 -844 
L 513 -844 
Q 928 -128 1133 580 
Q 1338 1288 1338 2009 
Q 1338 2731 1133 3434 
Q 928 4138 513 4856 
z
" transform="scale(0.015625)"/>
      </defs>
      <use xlink:href="#DejaVuSans-5b"/>
      <use xlink:href="#DejaVuSans-6c" transform="translate(39.013672 0)"/>
      <use xlink:href="#DejaVuSans-69" transform="translate(66.796875 0)"/>
      <use xlink:href="#DejaVuSans-67" transform="translate(94.580078 0)"/>
      <use xlink:href="#DejaVuSans-61" transform="translate(158.056641 0)"/>
      <use xlink:href="#DejaVuSans-6e" transform="translate(219.335938 0)"/>
      <use xlink:href="#DejaVuSans-64" transform="translate(282.714844 0)"/>
      <use xlink:href="#DejaVuSans-5d" transform="translate(346.191406 0)"/>
      <use xlink:href="#DejaVuSans-20" transform="translate(385.205078 0)"/>
      <use xlink:href="#DejaVuSans-28" transform="translate(416.992188 0)"/>
      <use xlink:href="#DejaVuSans-75" transform="translate(456.005859 0)"/>
      <use xlink:href="#DejaVuSans-4d" transform="translate(519.384766 0)"/>
      <use xlink:href="#DejaVuSans-29" transform="translate(605.664062 0)"/>
     </g>
    </g>
   </g>
   <g id="matplotlib.axis_2">
    <g id="ytick_1">
     <g id="line2d_7">
      <defs>
       <path id="m69144dadfd" d="M 0 0 
L -3.5 0 
" style="stroke: #000000; stroke-width: 0.8"/>
      </defs>
      <g>
       <use xlink:href="#m69144dadfd" x="57.6" y="295.488" style="stroke: #000000; stroke-width: 0.8"/>
      </g>
     </g>
     <g id="text_8">
      <!-- 0.0 -->
      <g transform="translate(34.696875 299.287219) scale(0.1 -0.1)">
       <defs>
        <path id="DejaVuSans-2e" d="M 684 794 
L 1344 794 
L 1344 0 
L 684 0 
L 684 794 
z
" transform="scale(0.015625)"/>
       </defs>
       <use xlink:href="#DejaVuSans-30"/>
       <use xlink:href="#DejaVuSans-2e" transform="translate(63.623047 0)"/>
       <use xlink:href="#DejaVuSans-30" transform="translate(95.410156 0)"/>
      </g>
     </g>
    </g>
    <g id="ytick_2">
     <g id="line2d_8">
      <g>
       <use xlink:href="#m69144dadfd" x="57.6" y="247.104" style="stroke: #000000; stroke-width: 0.8"/>
      </g>
     </g>
     <g id="text_9">
      <!-- 0.2 -->
      <g transform="translate(34.696875 250.903219) scale(0.1 -0.1)">
       <use xlink:href="#DejaVuSans-30"/>
       <use xlink:href="#DejaVuSans-2e" transform="translate(63.623047 0)"/>
       <use xlink:href="#DejaVuSans-32" transform="translate(95.410156 0)"/>
      </g>
     </g>
    </g>
    <g id="ytick_3">
     <g id="line2d_9">
      <g>
       <use xlink:href="#m69144dadfd" x="57.6" y="198.72" style="stroke: #000000; stroke-width: 0.8"/>
      </g>
     </g>
     <g id="text_10">
      <!-- 0.4 -->
      <g transform="translate(34.696875 202.519219) scale(0.1 -0.1)">
       <use xlink:href="#DejaVuSans-30"/>
       <use xlink:href="#DejaVuSans-2e" transform="translate(63.623047 0)"/>
       <use xlink:href="#DejaVuSans-34" transform="translate(95.410156 0)"/>
      </g>
     </g>
    </g>
    <g id="ytick_4">
     <g id="line2d_10">
      <g>
       <use xlink:href="#m69144dadfd" x="57.6" y="150.336" style="stroke: #000000; stroke-width: 0.8"/>
      </g>
     </g>
     <g id="text_11">
      <!-- 0.6 -->
      <g transform="translate(34.696875 154.135219) scale(0.1 -0.1)">
       <defs>
        <path id="DejaVuSans-36" d="M 2113 2584 
Q 1688 2584 1439 2293 
Q 1191 2003 1191 1497 
Q 1191 994 1439 701 
Q 1688 409 2113 409 
Q 2538 409 2786 701 
Q 3034 994 3034 1497 
Q 3034 2003 2786 2293 
Q 2538 2584 2113 2584 
z
M 3366 4563 
L 3366 3988 
Q 3128 4100 2886 4159 
Q 2644 4219 2406 4219 
Q 1781 4219 1451 3797 
Q 1122 3375 1075 2522 
Q 1259 2794 1537 2939 
Q 1816 3084 2150 3084 
Q 2853 3084 3261 2657 
Q 3669 2231 3669 1497 
Q 3669 778 3244 343 
Q 2819 -91 2113 -91 
Q 1303 -91 875 529 
Q 447 1150 447 2328 
Q 447 3434 972 4092 
Q 1497 4750 2381 4750 
Q 2619 4750 2861 4703 
Q 3103 4656 3366 4563 
z
" transform="scale(0.015625)"/>
       </defs>
       <use xlink:href="#DejaVuSans-30"/>
       <use xlink:href="#DejaVuSans-2e" transform="translate(63.623047 0)"/>
       <use xlink:href="#DejaVuSans-36" transform="translate(95.410156 0)"/>
      </g>
     </g>
    </g>
    <g id="ytick_5">
     <g id="line2d_11">
      <g>
       <use xlink:href="#m69144dadfd" x="57.6" y="101.952" style="stroke: #000000; stroke-width: 0.8"/>
      </g>
     </g>
     <g id="text_12">
      <!-- 0.8 -->
      <g transform="translate(34.696875 105.751219) scale(0.1 -0.1)">
       <defs>
        <path id="DejaVuSans-38" d="M 2034 2216 
Q 1584 2216 1326 1975 
Q 1069 1734 1069 1313 
Q 1069 891 1326 650 
Q 1584 409 2034 409 
Q 2484 409 2743 651 
Q 3003 894 3003 1313 
Q 3003 1734 2745 1975 
Q 2488 2216 2034 2216 
z
M 1403 2484 
Q 997 2584 770 2862 
Q 544 3141 544 3541 
Q 544 4100 942 4425 
Q 1341 4750 2034 4750 
Q 2731 4750 3128 4425 
Q 3525 4100 3525 3541 
Q 3525 3141 3298 2862 
Q 3072 2584 2669 2484 
Q 3125 2378 3379 2068 
Q 3634 1759 3634 1313 
Q 3634 634 3220 271 
Q 2806 -91 2034 -91 
Q 1263 -91 848 271 
Q 434 634 434 1313 
Q 434 1759 690 2068 
Q 947 2378 1403 2484 
z
M 1172 3481 
Q 1172 3119 1398 2916 
Q 1625 2713 2034 2713 
Q 2441 2713 2670 2916 
Q 2900 3119 2900 3481 
Q 2900 3844 2670 4047 
Q 2441 4250 2034 4250 
Q 1625 4250 1398 4047 
Q 1172 3844 1172 3481 
z
" transform="scale(0.015625)"/>
       </defs>
       <use xlink:href="#DejaVuSans-30"/>
       <use xlink:href="#DejaVuSans-2e" transform="translate(63.623047 0)"/>
       <use xlink:href="#DejaVuSans-38" transform="translate(95.410156 0)"/>
      </g>
     </g>
    </g>
    <g id="ytick_6">
     <g id="line2d_12">
      <g>
       <use xlink:href="#m69144dadfd" x="57.6" y="53.568" style="stroke: #000000; stroke-width: 0.8"/>
      </g>
     </g>
     <g id="text_13">
      <!-- 1.0 -->
      <g transform="translate(34.696875 57.367219) scale(0.1 -0.1)">
       <use xlink:href="#DejaVuSans-31"/>
       <use xlink:href="#DejaVuSans-2e" transform="translate(63.623047 0)"/>
       <use xlink:href="#DejaVuSans-30" transform="translate(95.410156 0)"/>
      </g>
     </g>
    </g>
    <g id="text_14">
     <!-- mole fraction -->
     <g transform="translate(28.617187 207.718625) rotate(-90) scale(0.1 -0.1)">
      <defs>
       <path id="DejaVuSans-6d" d="M 3328 2828 
Q 3544 3216 3844 3400 
Q 4144 3584 4550 3584 
Q 5097 3584 5394 3201 
Q 5691 2819 5691 2113 
L 5691 0 
L 5113 0 
L 5113 2094 
Q 5113 2597 4934 2840 
Q 4756 3084 4391 3084 
Q 3944 3084 3684 2787 
Q 3425 2491 3425 1978 
L 3425 0 
L 2847 0 
L 2847 2094 
Q 2847 2600 2669 2842 
Q 2491 3084 2119 3084 
Q 1678 3084 1418 2786 
Q 1159 2488 1159 1978 
L 1159 0 
L 581 0 
L 581 3500 
L 1159 3500 
L 1159 2956 
Q 1356 3278 1631 3431 
Q 1906 3584 2284 3584 
Q 2666 3584 2933 3390 
Q 3200 3197 3328 2828 
z
" transform="scale(0.015625)"/>
       <path id="DejaVuSans-6f" d="M 1959 3097 
Q 1497 3097 1228 2736 
Q 959 2375 959 1747 
Q 959 1119 1226 758 
Q 1494 397 1959 397 
Q 2419 397 2687 759 
Q 2956 1122 2956 1747 
Q 2956 2369 2687 2733 
Q 2419 3097 1959 3097 
z
M 1959 3584 
Q 2709 3584 3137 3096 
Q 3566 2609 3566 1747 
Q 3566 888 3137 398 
Q 2709 -91 1959 -91 
Q 1206 -91 779 398 
Q 353 888 353 1747 
Q 353 2609 779 3096 
Q 1206 3584 1959 3584 
z
" transform="scale(0.015625)"/>
       <path id="DejaVuSans-65" d="M 3597 1894 
L 3597 1613 
L 953 1613 
Q 991 1019 1311 708 
Q 1631 397 2203 397 
Q 2534 397 2845 478 
Q 3156 559 3463 722 
L 3463 178 
Q 3153 47 2828 -22 
Q 2503 -91 2169 -91 
Q 1331 -91 842 396 
Q 353 884 353 1716 
Q 353 2575 817 3079 
Q 1281 3584 2069 3584 
Q 2775 3584 3186 3129 
Q 3597 2675 3597 1894 
z
M 3022 2063 
Q 3016 2534 2758 2815 
Q 2500 3097 2075 3097 
Q 1594 3097 1305 2825 
Q 1016 2553 972 2059 
L 3022 2063 
z
" transform="scale(0.015625)"/>
       <path id="DejaVuSans-66" d="M 2375 4863 
L 2375 4384 
L 1825 4384 
Q 1516 4384 1395 4259 
Q 1275 4134 1275 3809 
L 1275 3500 
L 2222 3500 
L 2222 3053 
L 1275 3053 
L 1275 0 
L 697 0 
L 697 3053 
L 147 3053 
L 147 3500 
L 697 3500 
L 697 3744 
Q 697 4328 969 4595 
Q 1241 4863 1831 4863 
L 2375 4863 
z
" transform="scale(0.015625)"/>
       <path id="DejaVuSans-72" d="M 2631 2963 
Q 2534 3019 2420 3045 
Q 2306 3072 2169 3072 
Q 1681 3072 1420 2755 
Q 1159 2438 1159 1844 
L 1159 0 
L 581 0 
L 581 3500 
L 1159 3500 
L 1159 2956 
Q 1341 3275 1631 3429 
Q 1922 3584 2338 3584 
Q 2397 3584 2469 3576 
Q 2541 3569 2628 3553 
L 2631 2963 
z
" transform="scale(0.015625)"/>
       <path id="DejaVuSans-63" d="M 3122 3366 
L 3122 2828 
Q 2878 2963 2633 3030 
Q 2388 3097 2138 3097 
Q 1578 3097 1268 2742 
Q 959 2388 959 1747 
Q 959 1106 1268 751 
Q 1578 397 2138 397 
Q 2388 397 2633 464 
Q 2878 531 3122 666 
L 3122 134 
Q 2881 22 2623 -34 
Q 2366 -91 2075 -91 
Q 1284 -91 818 406 
Q 353 903 353 1747 
Q 353 2603 823 3093 
Q 1294 3584 2113 3584 
Q 2378 3584 2631 3529 
Q 2884 3475 3122 3366 
z
" transform="scale(0.015625)"/>
       <path id="DejaVuSans-74" d="M 1172 4494 
L 1172 3500 
L 2356 3500 
L 2356 3053 
L 1172 3053 
L 1172 1153 
Q 1172 725 1289 603 
Q 1406 481 1766 481 
L 2356 481 
L 2356 0 
L 1766 0 
Q 1100 0 847 248 
Q 594 497 594 1153 
L 594 3053 
L 172 3053 
L 172 3500 
L 594 3500 
L 594 4494 
L 1172 4494 
z
" transform="scale(0.015625)"/>
      </defs>
      <use xlink:href="#DejaVuSans-6d"/>
      <use xlink:href="#DejaVuSans-6f" transform="translate(97.412109 0)"/>
      <use xlink:href="#DejaVuSans-6c" transform="translate(158.59375 0)"/>
      <use xlink:href="#DejaVuSans-65" transform="translate(186.376953 0)"/>
      <use xlink:href="#DejaVuSans-20" transform="translate(247.900391 0)"/>
      <use xlink:href="#DejaVuSans-66" transform="translate(279.6875 0)"/>
      <use xlink:href="#DejaVuSans-72" transform="translate(314.892578 0)"/>
      <use xlink:href="#DejaVuSans-61" transform="translate(356.005859 0)"/>
      <use xlink:href="#DejaVuSans-63" transform="translate(417.285156 0)"/>
      <use xlink:href="#DejaVuSans-74" transform="translate(472.265625 0)"/>
      <use xlink:href="#DejaVuSans-69" transform="translate(511.474609 0)"/>
      <use xlink:href="#DejaVuSans-6f" transform="translate(539.257812 0)"/>
      <use xlink:href="#DejaVuSans-6e" transform="translate(600.439453 0)"/>
     </g>
    </g>
   </g>
   <g id="line2d_13">
    <defs>
     <path id="m00bce1df43" d="M 0 3 
C 0.795609 3 1.55874 2.683901 2.12132 2.12132 
C 2.683901 1.55874 3 0.795609 3 0 
C 3 -0.795609 2.683901 -1.55874 2.12132 -2.12132 
C 1.55874 -2.683901 0.795609 -3 0 -3 
C -0.795609 -3 -1.55874 -2.683901 -2.12132 -2.12132 
C -2.683901 -1.55874 -3 -0.795609 -3 0 
C -3 0.795609 -2.683901 1.55874 -2.12132 2.12132 
C -1.55874 2.683901 -0.795609 3 0 3 
z
" style="stroke: #808080"/>
    </defs>
    <g clip-path="url(#p0a23f61dc5)">
     <use xlink:href="#m00bce1df43" x="73.832727" y="53.568" style="fill: #808080; stroke: #808080"/>
     <use xlink:href="#m00bce1df43" x="82.385736" y="158.125824" style="fill: #808080; stroke: #808080"/>
     <use xlink:href="#m00bce1df43" x="97.335919" y="213.939931" style="fill: #808080; stroke: #808080"/>
     <use xlink:href="#m00bce1df43" x="131.31035" y="271.941606" style="fill: #808080; stroke: #808080"/>
     <use xlink:href="#m00bce1df43" x="194.71888" y="291.344579" style="fill: #808080; stroke: #808080"/>
     <use xlink:href="#m00bce1df43" x="247.742365" y="295.488" style="fill: #808080; stroke: #808080"/>
     <use xlink:href="#m00bce1df43" x="333.732789" y="295.488" style="fill: #808080; stroke: #808080"/>
    </g>
   </g>
   <g id="line2d_14">
    <path d="M 73.832727 53.568 
L 75.619817 77.629955 
L 77.406906 98.683007 
L 79.193995 117.200441 
L 80.981084 133.564804 
L 82.768173 148.088349 
L 84.555263 161.028236 
L 86.342352 172.597975 
L 88.129441 182.976158 
L 89.91653 192.313188 
L 91.70362 200.736529 
L 94.086405 210.73184 
L 96.469191 219.509932 
L 98.851977 227.247903 
L 101.234762 234.092265 
L 103.617548 240.165088 
L 106.000334 245.568734 
L 108.383119 250.389542 
L 110.765905 254.700725 
L 113.148691 258.56467 
L 115.531476 262.034777 
L 117.914262 265.156947 
L 120.297048 267.970786 
L 123.27553 271.106316 
L 126.254012 273.870673 
L 129.232494 276.312211 
L 132.210976 278.471934 
L 135.189458 280.384784 
L 138.763636 282.396174 
L 142.337815 284.138883 
L 145.911993 285.649872 
L 150.081868 287.161332 
L 154.251743 288.441727 
L 159.017314 289.666829 
L 164.378582 290.792907 
L 170.335546 291.790021 
L 176.888207 292.642196 
L 184.036564 293.34624 
L 192.376314 293.945818 
L 202.503153 294.446425 
L 215.608474 294.852866 
L 232.88367 295.147996 
L 259.094312 295.347463 
L 307.345721 295.454343 
L 398.487273 295.484076 
L 398.487273 295.484076 
" clip-path="url(#p0a23f61dc5)" style="fill: none; stroke: #808080; stroke-width: 1.5; stroke-linecap: square"/>
   </g>
   <g id="line2d_15">
    <defs>
     <path id="m48832004c4" d="M 0 3 
C 0.795609 3 1.55874 2.683901 2.12132 2.12132 
C 2.683901 1.55874 3 0.795609 3 0 
C 3 -0.795609 2.683901 -1.55874 2.12132 -2.12132 
C 1.55874 -2.683901 0.795609 -3 0 -3 
C -0.795609 -3 -1.55874 -2.683901 -2.12132 -2.12132 
C -2.683901 -1.55874 -3 -0.795609 -3 0 
C -3 0.795609 -2.683901 1.55874 -2.12132 2.12132 
C -1.55874 2.683901 -0.795609 3 0 3 
z
" style="stroke: #ff9933"/>
    </defs>
    <g clip-path="url(#p0a23f61dc5)">
     <use xlink:href="#m48832004c4" x="73.832727" y="295.488" style="fill: #ff9933; stroke: #ff9933"/>
     <use xlink:href="#m48832004c4" x="82.385736" y="216.597888" style="fill: #ff9933; stroke: #ff9933"/>
     <use xlink:href="#m48832004c4" x="97.335919" y="202.916329" style="fill: #ff9933; stroke: #ff9933"/>
     <use xlink:href="#m48832004c4" x="131.31035" y="236.087134" style="fill: #ff9933; stroke: #ff9933"/>
     <use xlink:href="#m48832004c4" x="194.71888" y="285.03851" style="fill: #ff9933; stroke: #ff9933"/>
     <use xlink:href="#m48832004c4" x="247.742365" y="295.488" style="fill: #ff9933; stroke: #ff9933"/>
     <use xlink:href="#m48832004c4" x="333.732789" y="295.488" style="fill: #ff9933; stroke: #ff9933"/>
    </g>
   </g>
   <g id="line2d_16">
    <path d="M 73.832727 295.488 
L 75.02412 279.48391 
L 76.215513 265.606861 
L 77.406906 253.588645 
L 78.598299 243.199292 
L 79.789691 234.240758 
L 80.981084 226.541808 
L 82.172477 219.953827 
L 83.36387 214.347392 
L 84.555263 209.609426 
L 85.746656 205.64084 
L 86.938048 202.354565 
L 88.129441 199.673894 
L 89.320834 197.531091 
L 90.512227 195.86621 
L 91.70362 194.626089 
L 92.895013 193.763495 
L 94.086405 193.236388 
L 95.277798 193.007293 
L 96.469191 193.042752 
L 97.660584 193.312853 
L 98.851977 193.790822 
L 100.043369 194.452666 
L 101.830459 195.743717 
L 103.617548 197.336937 
L 106.000334 199.838672 
L 108.383119 202.674819 
L 111.361601 206.55916 
L 115.531476 212.396619 
L 132.806672 237.1234 
L 137.572244 243.358002 
L 141.742118 248.474082 
L 145.911993 253.248593 
L 150.081868 257.66977 
L 154.251743 261.734937 
L 158.421618 265.448629 
L 162.591493 268.821069 
L 166.761368 271.866886 
L 170.931243 274.60398 
L 175.101118 277.052523 
L 179.270992 279.234064 
L 183.440867 281.170759 
L 187.610742 282.884735 
L 192.376314 284.598482 
L 197.141885 286.080142 
L 202.503153 287.505034 
L 207.86442 288.709172 
L 213.821384 289.827956 
L 220.374045 290.836983 
L 228.118098 291.787689 
L 236.457848 292.581799 
L 245.988991 293.268437 
L 257.307223 293.86082 
L 271.603937 294.371717 
L 289.474829 294.77423 
L 313.898382 295.084498 
L 350.235863 295.301204 
L 398.487273 295.412108 
L 398.487273 295.412108 
" clip-path="url(#p0a23f61dc5)" style="fill: none; stroke: #ff9933; stroke-width: 1.5; stroke-linecap: square"/>
   </g>
   <g id="line2d_17">
    <defs>
     <path id="m5a8e2e1ccd" d="M 0 3 
C 0.795609 3 1.55874 2.683901 2.12132 2.12132 
C 2.683901 1.55874 3 0.795609 3 0 
C 3 -0.795609 2.683901 -1.55874 2.12132 -2.12132 
C 1.55874 -2.683901 0.795609 -3 0 -3 
C -0.795609 -3 -1.55874 -2.683901 -2.12132 -2.12132 
C -2.683901 -1.55874 -3 -0.795609 -3 0 
C -3 0.795609 -2.683901 1.55874 -2.12132 2.12132 
C -1.55874 2.683901 -0.795609 3 0 3 
z
" style="stroke: #ffd700"/>
    </defs>
    <g clip-path="url(#p0a23f61dc5)">
     <use xlink:href="#m5a8e2e1ccd" x="73.832727" y="295.488" style="fill: #ffd700; stroke: #ffd700"/>
     <use xlink:href="#m5a8e2e1ccd" x="82.385736" y="276.086016" style="fill: #ffd700; stroke: #ffd700"/>
     <use xlink:href="#m5a8e2e1ccd" x="97.335919" y="248.393568" style="fill: #ffd700; stroke: #ffd700"/>
     <use xlink:href="#m5a8e2e1ccd" x="131.31035" y="228.21241" style="fill: #ffd700; stroke: #ffd700"/>
     <use xlink:href="#m5a8e2e1ccd" x="194.71888" y="271.723598" style="fill: #ffd700; stroke: #ffd700"/>
     <use xlink:href="#m5a8e2e1ccd" x="247.742365" y="285.304124" style="fill: #ffd700; stroke: #ffd700"/>
     <use xlink:href="#m5a8e2e1ccd" x="333.732789" y="295.488" style="fill: #ffd700; stroke: #ffd700"/>
    </g>
   </g>
   <g id="line2d_18">
    <path d="M 73.832727 295.488 
L 74.428424 295.386391 
L 75.02412 295.095512 
L 75.619817 294.634897 
L 76.811209 293.274235 
L 78.002602 291.429339 
L 79.193995 289.20465 
L 80.981084 285.34289 
L 83.36387 279.568718 
L 92.895013 255.572572 
L 95.873495 248.986623 
L 98.25628 244.22767 
L 100.639066 239.954099 
L 103.021852 236.177433 
L 105.404637 232.896965 
L 107.191726 230.756776 
L 108.978816 228.88406 
L 110.765905 227.270897 
L 112.552994 225.908241 
L 114.340083 224.786205 
L 116.127173 223.894307 
L 117.914262 223.221649 
L 119.701351 222.757073 
L 121.48844 222.489275 
L 123.27553 222.406899 
L 125.062619 222.498615 
L 127.445405 222.872288 
L 129.82819 223.509186 
L 132.210976 224.383593 
L 134.593761 225.47048 
L 137.572244 227.091054 
L 140.550726 228.960447 
L 144.124904 231.471787 
L 148.294779 234.68418 
L 153.656047 239.108992 
L 173.909725 256.127217 
L 179.270992 260.210561 
L 184.63226 264.000468 
L 189.397832 267.104741 
L 194.163403 269.95494 
L 198.928974 272.554228 
L 203.694545 274.911445 
L 208.460117 277.039332 
L 213.821384 279.17804 
L 219.182652 281.069232 
L 224.54392 282.736936 
L 230.500884 284.356374 
L 237.053545 285.888817 
L 243.606205 287.19624 
L 250.754562 288.404376 
L 259.094312 289.5738 
L 268.029758 290.592753 
L 278.156597 291.51516 
L 289.474829 292.319659 
L 302.58015 293.027155 
L 318.068257 293.639449 
L 337.130542 294.164798 
L 361.554095 294.60263 
L 393.721701 294.944725 
L 398.487273 294.980827 
L 398.487273 294.980827 
" clip-path="url(#p0a23f61dc5)" style="fill: none; stroke: #ffd700; stroke-width: 1.5; stroke-linecap: square"/>
   </g>
   <g id="line2d_19">
    <defs>
     <path id="ma44d7a3baa" d="M 0 3 
C 0.795609 3 1.55874 2.683901 2.12132 2.12132 
C 2.683901 1.55874 3 0.795609 3 0 
C 3 -0.795609 2.683901 -1.55874 2.12132 -2.12132 
C 1.55874 -2.683901 0.795609 -3 0 -3 
C -0.795609 -3 -1.55874 -2.683901 -2.12132 -2.12132 
C -2.683901 -1.55874 -3 -0.795609 -3 0 
C -3 0.795609 -2.683901 1.55874 -2.12132 2.12132 
C -1.55874 2.683901 -0.795609 3 0 3 
z
" style="stroke: #7fff00"/>
    </defs>
    <g clip-path="url(#p0a23f61dc5)">
     <use xlink:href="#ma44d7a3baa" x="73.832727" y="295.488" style="fill: #7fff00; stroke: #7fff00"/>
     <use xlink:href="#ma44d7a3baa" x="82.385736" y="289.222272" style="fill: #7fff00; stroke: #7fff00"/>
     <use xlink:href="#ma44d7a3baa" x="97.335919" y="281.009201" style="fill: #7fff00; stroke: #7fff00"/>
     <use xlink:href="#ma44d7a3baa" x="131.31035" y="252.51396" style="fill: #7fff00; stroke: #7fff00"/>
     <use xlink:href="#ma44d7a3baa" x="194.71888" y="259.806134" style="fill: #7fff00; stroke: #7fff00"/>
     <use xlink:href="#ma44d7a3baa" x="247.742365" y="277.556121" style="fill: #7fff00; stroke: #7fff00"/>
     <use xlink:href="#ma44d7a3baa" x="333.732789" y="287.473351" style="fill: #7fff00; stroke: #7fff00"/>
    </g>
   </g>
   <g id="line2d_20">
    <path d="M 73.832727 295.488 
L 76.811209 295.410995 
L 79.193995 295.094587 
L 80.981084 294.64106 
L 82.768173 293.982191 
L 84.555263 293.114389 
L 86.342352 292.043119 
L 88.725138 290.31905 
L 91.107923 288.292823 
L 94.086405 285.404582 
L 97.660584 281.542149 
L 102.426155 275.982091 
L 112.552994 264.024225 
L 116.722869 259.50281 
L 120.297048 255.961531 
L 123.27553 253.289431 
L 126.254012 250.896737 
L 129.232494 248.800369 
L 132.210976 247.010842 
L 135.189458 245.532783 
L 137.572244 244.574255 
L 139.955029 243.812045 
L 142.337815 243.241721 
L 144.720601 242.857248 
L 147.699083 242.626548 
L 150.677565 242.657374 
L 153.656047 242.930248 
L 156.634529 243.42397 
L 160.208707 244.276463 
L 163.782886 245.375204 
L 167.952761 246.915618 
L 172.718332 248.942992 
L 178.675296 251.755421 
L 187.610742 256.266014 
L 200.716063 262.855363 
L 208.460117 266.481988 
L 215.608474 269.570328 
L 222.161134 272.160994 
L 228.713795 274.518012 
L 235.266455 276.647442 
L 242.414812 278.725123 
L 249.563169 280.566418 
L 257.307223 282.320093 
L 265.051276 283.850733 
L 273.391026 285.280751 
L 282.326472 286.595967 
L 292.453311 287.856822 
L 303.771543 289.026682 
L 316.281168 290.08191 
L 329.982185 291.010916 
L 346.065988 291.868327 
L 364.532577 292.620468 
L 386.573344 293.284494 
L 398.487273 293.565055 
L 398.487273 293.565055 
" clip-path="url(#p0a23f61dc5)" style="fill: none; stroke: #7fff00; stroke-width: 1.5; stroke-linecap: square"/>
   </g>
   <g id="line2d_21">
    <defs>
     <path id="m5532ea3ff5" d="M 0 3 
C 0.795609 3 1.55874 2.683901 2.12132 2.12132 
C 2.683901 1.55874 3 0.795609 3 0 
C 3 -0.795609 2.683901 -1.55874 2.12132 -2.12132 
C 1.55874 -2.683901 0.795609 -3 0 -3 
C -0.795609 -3 -1.55874 -2.683901 -2.12132 -2.12132 
C -2.683901 -1.55874 -3 -0.795609 -3 0 
C -3 0.795609 -2.683901 1.55874 -2.12132 2.12132 
C -1.55874 2.683901 -0.795609 3 0 3 
z
" style="stroke: #00eeff"/>
    </defs>
    <g clip-path="url(#p0a23f61dc5)">
     <use xlink:href="#m5532ea3ff5" x="73.832727" y="295.488" style="fill: #00eeff; stroke: #00eeff"/>
     <use xlink:href="#m5532ea3ff5" x="82.385736" y="295.488" style="fill: #00eeff; stroke: #00eeff"/>
     <use xlink:href="#m5532ea3ff5" x="97.335919" y="289.260971" style="fill: #00eeff; stroke: #00eeff"/>
     <use xlink:href="#m5532ea3ff5" x="131.31035" y="273.724451" style="fill: #00eeff; stroke: #00eeff"/>
     <use xlink:href="#m5532ea3ff5" x="194.71888" y="259.065365" style="fill: #00eeff; stroke: #00eeff"/>
     <use xlink:href="#m5532ea3ff5" x="247.742365" y="269.574268" style="fill: #00eeff; stroke: #00eeff"/>
     <use xlink:href="#m5532ea3ff5" x="333.732789" y="279.627626" style="fill: #00eeff; stroke: #00eeff"/>
    </g>
   </g>
   <g id="line2d_22">
    <path d="M 73.832727 295.488 
L 82.172477 295.391362 
L 86.342352 295.092603 
L 89.91653 294.580873 
L 92.895013 293.933843 
L 95.873495 293.067398 
L 98.851977 291.975016 
L 101.830459 290.659625 
L 105.404637 288.802743 
L 108.978816 286.672272 
L 113.148691 283.89713 
L 117.914262 280.440866 
L 126.254012 274.040726 
L 133.402369 268.648605 
L 138.16794 265.311005 
L 142.337815 262.648778 
L 145.911993 260.598611 
L 149.486172 258.786952 
L 153.06035 257.229284 
L 156.634529 255.933833 
L 160.208707 254.902073 
L 163.782886 254.129456 
L 167.357064 253.60629 
L 170.931243 253.318704 
L 174.505421 253.249643 
L 178.675296 253.419462 
L 182.845171 253.827624 
L 187.610742 254.542837 
L 192.97201 255.605942 
L 198.928974 257.031629 
L 206.673028 259.144011 
L 218.586956 262.668069 
L 235.862152 267.750279 
L 246.584687 270.664106 
L 256.711526 273.180494 
L 266.242669 275.327484 
L 276.369508 277.377667 
L 286.496347 279.203748 
L 297.218882 280.914009 
L 308.537114 282.496651 
L 321.046739 284.013231 
L 334.15206 285.377069 
L 348.448774 286.643533 
L 364.532577 287.83965 
L 382.40347 288.938319 
L 398.487273 289.759999 
L 398.487273 289.759999 
" clip-path="url(#p0a23f61dc5)" style="fill: none; stroke: #00eeff; stroke-width: 1.5; stroke-linecap: square"/>
   </g>
   <g id="line2d_23">
    <defs>
     <path id="m77a2231989" d="M 0 3 
C 0.795609 3 1.55874 2.683901 2.12132 2.12132 
C 2.683901 1.55874 3 0.795609 3 0 
C 3 -0.795609 2.683901 -1.55874 2.12132 -2.12132 
C 1.55874 -2.683901 0.795609 -3 0 -3 
C -0.795609 -3 -1.55874 -2.683901 -2.12132 -2.12132 
C -2.683901 -1.55874 -3 -0.795609 -3 0 
C -3 0.795609 -2.683901 1.55874 -2.12132 2.12132 
C -1.55874 2.683901 -0.795609 3 0 3 
z
" style="stroke: #0331fc"/>
    </defs>
    <g clip-path="url(#p0a23f61dc5)">
     <use xlink:href="#m77a2231989" x="73.832727" y="295.488" style="fill: #0331fc; stroke: #0331fc"/>
     <use xlink:href="#m77a2231989" x="82.385736" y="295.488" style="fill: #0331fc; stroke: #0331fc"/>
     <use xlink:href="#m77a2231989" x="97.335919" y="295.488" style="fill: #0331fc; stroke: #0331fc"/>
     <use xlink:href="#m77a2231989" x="131.31035" y="284.308332" style="fill: #0331fc; stroke: #0331fc"/>
     <use xlink:href="#m77a2231989" x="194.71888" y="264.269427" style="fill: #0331fc; stroke: #0331fc"/>
     <use xlink:href="#m77a2231989" x="247.742365" y="266.252029" style="fill: #0331fc; stroke: #0331fc"/>
     <use xlink:href="#m77a2231989" x="333.732789" y="274.715567" style="fill: #0331fc; stroke: #0331fc"/>
    </g>
   </g>
   <g id="line2d_24">
    <path d="M 73.832727 295.488 
L 89.91653 295.382993 
L 95.873495 295.104019 
L 100.639066 294.663036 
L 104.808941 294.071041 
L 108.978816 293.25805 
L 113.148691 292.208219 
L 117.318565 290.917782 
L 121.48844 289.395096 
L 126.254012 287.396302 
L 131.615279 284.873217 
L 138.16794 281.515161 
L 155.443136 272.491794 
L 160.804404 269.991608 
L 165.569975 267.988415 
L 170.335546 266.221965 
L 175.101118 264.709007 
L 179.866689 263.45532 
L 184.63226 262.457391 
L 189.397832 261.704349 
L 194.163403 261.179945 
L 198.928974 260.864378 
L 204.290242 260.731857 
L 210.247206 260.823466 
L 216.799867 261.165354 
L 223.948224 261.766479 
L 232.287973 262.690965 
L 243.010509 264.112706 
L 260.285705 266.667158 
L 290.070525 271.070073 
L 307.941418 273.467204 
L 325.216614 275.554477 
L 342.49181 277.415567 
L 360.362702 279.118769 
L 379.424987 280.712265 
L 398.487273 282.104045 
L 398.487273 282.104045 
" clip-path="url(#p0a23f61dc5)" style="fill: none; stroke: #0331fc; stroke-width: 1.5; stroke-linecap: square"/>
   </g>
   <g id="line2d_25">
    <defs>
     <path id="m730986dd5f" d="M 0 3 
C 0.795609 3 1.55874 2.683901 2.12132 2.12132 
C 2.683901 1.55874 3 0.795609 3 0 
C 3 -0.795609 2.683901 -1.55874 2.12132 -2.12132 
C 1.55874 -2.683901 0.795609 -3 0 -3 
C -0.795609 -3 -1.55874 -2.683901 -2.12132 -2.12132 
C -2.683901 -1.55874 -3 -0.795609 -3 0 
C -3 0.795609 -2.683901 1.55874 -2.12132 2.12132 
C -1.55874 2.683901 -0.795609 3 0 3 
z
" style="stroke: #ba1e8c"/>
    </defs>
    <g clip-path="url(#p0a23f61dc5)">
     <use xlink:href="#m730986dd5f" x="73.832727" y="295.488" style="fill: #ba1e8c; stroke: #ba1e8c"/>
     <use xlink:href="#m730986dd5f" x="82.385736" y="295.488" style="fill: #ba1e8c; stroke: #ba1e8c"/>
     <use xlink:href="#m730986dd5f" x="97.335919" y="295.488" style="fill: #ba1e8c; stroke: #ba1e8c"/>
     <use xlink:href="#m730986dd5f" x="131.31035" y="288.001643" style="fill: #ba1e8c; stroke: #ba1e8c"/>
     <use xlink:href="#m730986dd5f" x="194.71888" y="265.660785" style="fill: #ba1e8c; stroke: #ba1e8c"/>
     <use xlink:href="#m730986dd5f" x="247.742365" y="265.413256" style="fill: #ba1e8c; stroke: #ba1e8c"/>
     <use xlink:href="#m730986dd5f" x="333.732789" y="264.355735" style="fill: #ba1e8c; stroke: #ba1e8c"/>
    </g>
   </g>
   <g id="line2d_26">
    <path d="M 73.832727 295.488 
L 98.851977 295.382868 
L 106.59603 295.109932 
L 112.552994 294.686781 
L 117.914262 294.090095 
L 122.679833 293.35677 
L 127.445405 292.414626 
L 132.210976 291.257267 
L 136.976547 289.889614 
L 142.337815 288.120008 
L 148.294779 285.911965 
L 156.038832 282.772412 
L 179.270992 273.152025 
L 185.823653 270.758739 
L 192.376314 268.606464 
L 198.333278 266.876963 
L 204.290242 265.36825 
L 210.247206 264.075932 
L 216.799867 262.891748 
L 223.352527 261.937475 
L 230.500884 261.132491 
L 238.244937 260.504332 
L 246.584687 260.069801 
L 255.520133 259.834989 
L 265.646972 259.800116 
L 276.965204 259.984872 
L 290.666222 260.437278 
L 307.941418 261.24268 
L 332.364971 262.623212 
L 398.487273 266.623991 
L 398.487273 266.623991 
" clip-path="url(#p0a23f61dc5)" style="fill: none; stroke: #ba1e8c; stroke-width: 1.5; stroke-linecap: square"/>
   </g>
   <g id="line2d_27">
    <defs>
     <path id="m9825d2aef1" d="M 0 3 
C 0.795609 3 1.55874 2.683901 2.12132 2.12132 
C 2.683901 1.55874 3 0.795609 3 0 
C 3 -0.795609 2.683901 -1.55874 2.12132 -2.12132 
C 1.55874 -2.683901 0.795609 -3 0 -3 
C -0.795609 -3 -1.55874 -2.683901 -2.12132 -2.12132 
C -2.683901 -1.55874 -3 -0.795609 -3 0 
C -3 0.795609 -2.683901 1.55874 -2.12132 2.12132 
C -1.55874 2.683901 -0.795609 3 0 3 
z
" style="stroke: #b30505"/>
    </defs>
    <g clip-path="url(#p0a23f61dc5)">
     <use xlink:href="#m9825d2aef1" x="73.832727" y="295.488" style="fill: #b30505; stroke: #b30505"/>
     <use xlink:href="#m9825d2aef1" x="82.385736" y="295.488" style="fill: #b30505; stroke: #b30505"/>
     <use xlink:href="#m9825d2aef1" x="97.335919" y="295.488" style="fill: #b30505; stroke: #b30505"/>
     <use xlink:href="#m9825d2aef1" x="131.31035" y="287.194464" style="fill: #b30505; stroke: #b30505"/>
     <use xlink:href="#m9825d2aef1" x="194.71888" y="225.075601" style="fill: #b30505; stroke: #b30505"/>
     <use xlink:href="#m9825d2aef1" x="247.742365" y="166.908202" style="fill: #b30505; stroke: #b30505"/>
     <use xlink:href="#m9825d2aef1" x="333.732789" y="129.34772" style="fill: #b30505; stroke: #b30505"/>
    </g>
   </g>
   <g id="line2d_28">
    <path d="M 73.832727 295.488 
L 101.830459 295.384505 
L 108.978816 295.114199 
L 114.340083 294.681033 
L 118.509958 294.138452 
L 122.679833 293.36128 
L 126.254012 292.470503 
L 129.82819 291.341087 
L 133.402369 289.946856 
L 136.380851 288.567074 
L 139.359333 286.979076 
L 142.337815 285.176707 
L 145.911993 282.72725 
L 149.486172 279.967119 
L 153.06035 276.905162 
L 156.634529 273.55675 
L 160.804404 269.316642 
L 164.974279 264.756979 
L 169.73985 259.215947 
L 175.696814 251.907402 
L 183.440867 242.00541 
L 203.098849 216.699997 
L 210.247206 207.949691 
L 216.799867 200.286221 
L 222.756831 193.653037 
L 228.713795 187.355069 
L 234.670759 181.398242 
L 240.627723 175.780414 
L 246.584687 170.49358 
L 252.541651 165.525683 
L 258.498616 160.862028 
L 264.45558 156.486382 
L 270.412544 152.38178 
L 276.369508 148.531123 
L 282.922168 144.568655 
L 289.474829 140.871549 
L 296.02749 137.419343 
L 303.175847 133.910093 
L 310.324204 130.646388 
L 318.068257 127.36327 
L 325.81231 124.318996 
L 334.15206 121.282361 
L 343.087506 118.279767 
L 352.022952 115.510435 
L 361.554095 112.786805 
L 371.680934 110.125731 
L 382.40347 107.540681 
L 393.721701 105.041987 
L 398.487273 104.053899 
L 398.487273 104.053899 
" clip-path="url(#p0a23f61dc5)" style="fill: none; stroke: #b30505; stroke-width: 1.5; stroke-linecap: square"/>
   </g>
   <g id="patch_3">
    <path d="M 57.6 307.584 
L 57.6 41.472 
" style="fill: none; stroke: #000000; stroke-width: 0.8; stroke-linejoin: miter; stroke-linecap: square"/>
   </g>
   <g id="patch_4">
    <path d="M 414.72 307.584 
L 414.72 41.472 
" style="fill: none; stroke: #000000; stroke-width: 0.8; stroke-linejoin: miter; stroke-linecap: square"/>
   </g>
   <g id="patch_5">
    <path d="M 57.6 307.584 
L 414.72 307.584 
" style="fill: none; stroke: #000000; stroke-width: 0.8; stroke-linejoin: miter; stroke-linecap: square"/>
   </g>
   <g id="patch_6">
    <path d="M 57.6 41.472 
L 414.72 41.472 
" style="fill: none; stroke: #000000; stroke-width: 0.8; stroke-linejoin: miter; stroke-linecap: square"/>
   </g>
  </g>
 </g>
 <defs>
  <clipPath id="p0a23f61dc5">
   <rect x="57.6" y="41.472" width="357.12" height="266.112"/>
  </clipPath>
 </defs>
</svg>
