<?xml version="1.0" encoding="utf-8" standalone="no"?>
<!DOCTYPE svg PUBLIC "-//W3C//DTD SVG 1.1//EN"
  "http://www.w3.org/Graphics/SVG/1.1/DTD/svg11.dtd">
<svg xmlns:xlink="http://www.w3.org/1999/xlink" width="460.8pt" height="345.6pt" viewBox="0 0 460.8 345.6" xmlns="http://www.w3.org/2000/svg" version="1.1">
 <metadata>
  <rdf:RDF xmlns:dc="http://purl.org/dc/elements/1.1/" xmlns:cc="http://creativecommons.org/ns#" xmlns:rdf="http://www.w3.org/1999/02/22-rdf-syntax-ns#">
   <cc:Work>
    <dc:type rdf:resource="http://purl.org/dc/dcmitype/StillImage"/>
    <dc:date>2025-05-02T17:57:30.017724</dc:date>
    <dc:format>image/svg+xml</dc:format>
    <dc:creator>
     <cc:Agent>
      <dc:title>Matplotlib v3.10.1, https://matplotlib.org/</dc:title>
     </cc:Agent>
    </dc:creator>
   </cc:Work>
  </rdf:RDF>
 </metadata>
 <defs>
  <style type="text/css">*{stroke-linejoin: round; stroke-linecap: butt}</style>
 </defs>
 <g id="figure_1">
  <g id="patch_1">
   <path d="M 0 345.6 
L 460.8 345.6 
L 460.8 0 
L 0 0 
z
" style="fill: #ffffff"/>
  </g>
  <g id="axes_1">
   <g id="patch_2">
    <path d="M 57.6 307.584 
L 414.72 307.584 
L 414.72 41.472 
L 57.6 41.472 
z
" style="fill: #ffffff"/>
   </g>
   <g id="matplotlib.axis_1">
    <g id="xtick_1">
     <g id="line2d_1">
      <defs>
       <path id="mc71e0868fe" d="M 0 0 
L 0 3.5 
" style="stroke: #000000; stroke-width: 0.8"/>
      </defs>
      <g>
       <use xlink:href="#mc71e0868fe" x="73.832727" y="307.584" style="stroke: #000000; stroke-width: 0.8"/>
      </g>
     </g>
     <g id="text_1">
      <!-- 0 -->
      <g transform="translate(70.651477 322.182437) scale(0.1 -0.1)">
       <defs>
        <path id="DejaVuSans-30" d="M 2034 4250 
Q 1547 4250 1301 3770 
Q 1056 3291 1056 2328 
Q 1056 1369 1301 889 
Q 1547 409 2034 409 
Q 2525 409 2770 889 
Q 3016 1369 3016 2328 
Q 3016 3291 2770 3770 
Q 2525 4250 2034 4250 
z
M 2034 4750 
Q 2819 4750 3233 4129 
Q 3647 3509 3647 2328 
Q 3647 1150 3233 529 
Q 2819 -91 2034 -91 
Q 1250 -91 836 529 
Q 422 1150 422 2328 
Q 422 3509 836 4129 
Q 1250 4750 2034 4750 
z
" transform="scale(0.015625)"/>
       </defs>
       <use xlink:href="#DejaVuSans-30"/>
      </g>
     </g>
    </g>
    <g id="xtick_2">
     <g id="line2d_2">
      <g>
       <use xlink:href="#mc71e0868fe" x="133.84281" y="307.584" style="stroke: #000000; stroke-width: 0.8"/>
      </g>
     </g>
     <g id="text_2">
      <!-- 10 -->
      <g transform="translate(127.48031 322.182437) scale(0.1 -0.1)">
       <defs>
        <path id="DejaVuSans-31" d="M 794 531 
L 1825 531 
L 1825 4091 
L 703 3866 
L 703 4441 
L 1819 4666 
L 2450 4666 
L 2450 531 
L 3481 531 
L 3481 0 
L 794 0 
L 794 531 
z
" transform="scale(0.015625)"/>
       </defs>
       <use xlink:href="#DejaVuSans-31"/>
       <use xlink:href="#DejaVuSans-30" transform="translate(63.623047 0)"/>
      </g>
     </g>
    </g>
    <g id="xtick_3">
     <g id="line2d_3">
      <g>
       <use xlink:href="#mc71e0868fe" x="193.852892" y="307.584" style="stroke: #000000; stroke-width: 0.8"/>
      </g>
     </g>
     <g id="text_3">
      <!-- 20 -->
      <g transform="translate(187.490392 322.182437) scale(0.1 -0.1)">
       <defs>
        <path id="DejaVuSans-32" d="M 1228 531 
L 3431 531 
L 3431 0 
L 469 0 
L 469 531 
Q 828 903 1448 1529 
Q 2069 2156 2228 2338 
Q 2531 2678 2651 2914 
Q 2772 3150 2772 3378 
Q 2772 3750 2511 3984 
Q 2250 4219 1831 4219 
Q 1534 4219 1204 4116 
Q 875 4013 500 3803 
L 500 4441 
Q 881 4594 1212 4672 
Q 1544 4750 1819 4750 
Q 2544 4750 2975 4387 
Q 3406 4025 3406 3419 
Q 3406 3131 3298 2873 
Q 3191 2616 2906 2266 
Q 2828 2175 2409 1742 
Q 1991 1309 1228 531 
z
" transform="scale(0.015625)"/>
       </defs>
       <use xlink:href="#DejaVuSans-32"/>
       <use xlink:href="#DejaVuSans-30" transform="translate(63.623047 0)"/>
      </g>
     </g>
    </g>
    <g id="xtick_4">
     <g id="line2d_4">
      <g>
       <use xlink:href="#mc71e0868fe" x="253.862974" y="307.584" style="stroke: #000000; stroke-width: 0.8"/>
      </g>
     </g>
     <g id="text_4">
      <!-- 30 -->
      <g transform="translate(247.500474 322.182437) scale(0.1 -0.1)">
       <defs>
        <path id="DejaVuSans-33" d="M 2597 2516 
Q 3050 2419 3304 2112 
Q 3559 1806 3559 1356 
Q 3559 666 3084 287 
Q 2609 -91 1734 -91 
Q 1441 -91 1130 -33 
Q 819 25 488 141 
L 488 750 
Q 750 597 1062 519 
Q 1375 441 1716 441 
Q 2309 441 2620 675 
Q 2931 909 2931 1356 
Q 2931 1769 2642 2001 
Q 2353 2234 1838 2234 
L 1294 2234 
L 1294 2753 
L 1863 2753 
Q 2328 2753 2575 2939 
Q 2822 3125 2822 3475 
Q 2822 3834 2567 4026 
Q 2313 4219 1838 4219 
Q 1578 4219 1281 4162 
Q 984 4106 628 3988 
L 628 4550 
Q 988 4650 1302 4700 
Q 1616 4750 1894 4750 
Q 2613 4750 3031 4423 
Q 3450 4097 3450 3541 
Q 3450 3153 3228 2886 
Q 3006 2619 2597 2516 
z
" transform="scale(0.015625)"/>
       </defs>
       <use xlink:href="#DejaVuSans-33"/>
       <use xlink:href="#DejaVuSans-30" transform="translate(63.623047 0)"/>
      </g>
     </g>
    </g>
    <g id="xtick_5">
     <g id="line2d_5">
      <g>
       <use xlink:href="#mc71e0868fe" x="313.873057" y="307.584" style="stroke: #000000; stroke-width: 0.8"/>
      </g>
     </g>
     <g id="text_5">
      <!-- 40 -->
      <g transform="translate(307.510557 322.182437) scale(0.1 -0.1)">
       <defs>
        <path id="DejaVuSans-34" d="M 2419 4116 
L 825 1625 
L 2419 1625 
L 2419 4116 
z
M 2253 4666 
L 3047 4666 
L 3047 1625 
L 3713 1625 
L 3713 1100 
L 3047 1100 
L 3047 0 
L 2419 0 
L 2419 1100 
L 313 1100 
L 313 1709 
L 2253 4666 
z
" transform="scale(0.015625)"/>
       </defs>
       <use xlink:href="#DejaVuSans-34"/>
       <use xlink:href="#DejaVuSans-30" transform="translate(63.623047 0)"/>
      </g>
     </g>
    </g>
    <g id="xtick_6">
     <g id="line2d_6">
      <g>
       <use xlink:href="#mc71e0868fe" x="373.883139" y="307.584" style="stroke: #000000; stroke-width: 0.8"/>
      </g>
     </g>
     <g id="text_6">
      <!-- 50 -->
      <g transform="translate(367.520639 322.182437) scale(0.1 -0.1)">
       <defs>
        <path id="DejaVuSans-35" d="M 691 4666 
L 3169 4666 
L 3169 4134 
L 1269 4134 
L 1269 2991 
Q 1406 3038 1543 3061 
Q 1681 3084 1819 3084 
Q 2600 3084 3056 2656 
Q 3513 2228 3513 1497 
Q 3513 744 3044 326 
Q 2575 -91 1722 -91 
Q 1428 -91 1123 -41 
Q 819 9 494 109 
L 494 744 
Q 775 591 1075 516 
Q 1375 441 1709 441 
Q 2250 441 2565 725 
Q 2881 1009 2881 1497 
Q 2881 1984 2565 2268 
Q 2250 2553 1709 2553 
Q 1456 2553 1204 2497 
Q 953 2441 691 2322 
L 691 4666 
z
" transform="scale(0.015625)"/>
       </defs>
       <use xlink:href="#DejaVuSans-35"/>
       <use xlink:href="#DejaVuSans-30" transform="translate(63.623047 0)"/>
      </g>
     </g>
    </g>
    <g id="text_7">
     <!-- [ligand] (uM) -->
     <g transform="translate(203.925625 335.860562) scale(0.1 -0.1)">
      <defs>
       <path id="DejaVuSans-5b" d="M 550 4863 
L 1875 4863 
L 1875 4416 
L 1125 4416 
L 1125 -397 
L 1875 -397 
L 1875 -844 
L 550 -844 
L 550 4863 
z
" transform="scale(0.015625)"/>
       <path id="DejaVuSans-6c" d="M 603 4863 
L 1178 4863 
L 1178 0 
L 603 0 
L 603 4863 
z
" transform="scale(0.015625)"/>
       <path id="DejaVuSans-69" d="M 603 3500 
L 1178 3500 
L 1178 0 
L 603 0 
L 603 3500 
z
M 603 4863 
L 1178 4863 
L 1178 4134 
L 603 4134 
L 603 4863 
z
" transform="scale(0.015625)"/>
       <path id="DejaVuSans-67" d="M 2906 1791 
Q 2906 2416 2648 2759 
Q 2391 3103 1925 3103 
Q 1463 3103 1205 2759 
Q 947 2416 947 1791 
Q 947 1169 1205 825 
Q 1463 481 1925 481 
Q 2391 481 2648 825 
Q 2906 1169 2906 1791 
z
M 3481 434 
Q 3481 -459 3084 -895 
Q 2688 -1331 1869 -1331 
Q 1566 -1331 1297 -1286 
Q 1028 -1241 775 -1147 
L 775 -588 
Q 1028 -725 1275 -790 
Q 1522 -856 1778 -856 
Q 2344 -856 2625 -561 
Q 2906 -266 2906 331 
L 2906 616 
Q 2728 306 2450 153 
Q 2172 0 1784 0 
Q 1141 0 747 490 
Q 353 981 353 1791 
Q 353 2603 747 3093 
Q 1141 3584 1784 3584 
Q 2172 3584 2450 3431 
Q 2728 3278 2906 2969 
L 2906 3500 
L 3481 3500 
L 3481 434 
z
" transform="scale(0.015625)"/>
       <path id="DejaVuSans-61" d="M 2194 1759 
Q 1497 1759 1228 1600 
Q 959 1441 959 1056 
Q 959 750 1161 570 
Q 1363 391 1709 391 
Q 2188 391 2477 730 
Q 2766 1069 2766 1631 
L 2766 1759 
L 2194 1759 
z
M 3341 1997 
L 3341 0 
L 2766 0 
L 2766 531 
Q 2569 213 2275 61 
Q 1981 -91 1556 -91 
Q 1019 -91 701 211 
Q 384 513 384 1019 
Q 384 1609 779 1909 
Q 1175 2209 1959 2209 
L 2766 2209 
L 2766 2266 
Q 2766 2663 2505 2880 
Q 2244 3097 1772 3097 
Q 1472 3097 1187 3025 
Q 903 2953 641 2809 
L 641 3341 
Q 956 3463 1253 3523 
Q 1550 3584 1831 3584 
Q 2591 3584 2966 3190 
Q 3341 2797 3341 1997 
z
" transform="scale(0.015625)"/>
       <path id="DejaVuSans-6e" d="M 3513 2113 
L 3513 0 
L 2938 0 
L 2938 2094 
Q 2938 2591 2744 2837 
Q 2550 3084 2163 3084 
Q 1697 3084 1428 2787 
Q 1159 2491 1159 1978 
L 1159 0 
L 581 0 
L 581 3500 
L 1159 3500 
L 1159 2956 
Q 1366 3272 1645 3428 
Q 1925 3584 2291 3584 
Q 2894 3584 3203 3211 
Q 3513 2838 3513 2113 
z
" transform="scale(0.015625)"/>
       <path id="DejaVuSans-64" d="M 2906 2969 
L 2906 4863 
L 3481 4863 
L 3481 0 
L 2906 0 
L 2906 525 
Q 2725 213 2448 61 
Q 2172 -91 1784 -91 
Q 1150 -91 751 415 
Q 353 922 353 1747 
Q 353 2572 751 3078 
Q 1150 3584 1784 3584 
Q 2172 3584 2448 3432 
Q 2725 3281 2906 2969 
z
M 947 1747 
Q 947 1113 1208 752 
Q 1469 391 1925 391 
Q 2381 391 2643 752 
Q 2906 1113 2906 1747 
Q 2906 2381 2643 2742 
Q 2381 3103 1925 3103 
Q 1469 3103 1208 2742 
Q 947 2381 947 1747 
z
" transform="scale(0.015625)"/>
       <path id="DejaVuSans-5d" d="M 1947 4863 
L 1947 -844 
L 622 -844 
L 622 -397 
L 1369 -397 
L 1369 4416 
L 622 4416 
L 622 4863 
L 1947 4863 
z
" transform="scale(0.015625)"/>
       <path id="DejaVuSans-20" transform="scale(0.015625)"/>
       <path id="DejaVuSans-28" d="M 1984 4856 
Q 1566 4138 1362 3434 
Q 1159 2731 1159 2009 
Q 1159 1288 1364 580 
Q 1569 -128 1984 -844 
L 1484 -844 
Q 1016 -109 783 600 
Q 550 1309 550 2009 
Q 550 2706 781 3412 
Q 1013 4119 1484 4856 
L 1984 4856 
z
" transform="scale(0.015625)"/>
       <path id="DejaVuSans-75" d="M 544 1381 
L 544 3500 
L 1119 3500 
L 1119 1403 
Q 1119 906 1312 657 
Q 1506 409 1894 409 
Q 2359 409 2629 706 
Q 2900 1003 2900 1516 
L 2900 3500 
L 3475 3500 
L 3475 0 
L 2900 0 
L 2900 538 
Q 2691 219 2414 64 
Q 2138 -91 1772 -91 
Q 1169 -91 856 284 
Q 544 659 544 1381 
z
M 1991 3584 
L 1991 3584 
z
" transform="scale(0.015625)"/>
       <path id="DejaVuSans-4d" d="M 628 4666 
L 1569 4666 
L 2759 1491 
L 3956 4666 
L 4897 4666 
L 4897 0 
L 4281 0 
L 4281 4097 
L 3078 897 
L 2444 897 
L 1241 4097 
L 1241 0 
L 628 0 
L 628 4666 
z
" transform="scale(0.015625)"/>
       <path id="DejaVuSans-29" d="M 513 4856 
L 1013 4856 
Q 1481 4119 1714 3412 
Q 1947 2706 1947 2009 
Q 1947 1309 1714 600 
Q 1481 -109 1013 -844 
L 513 -844 
Q 928 -128 1133 580 
Q 1338 1288 1338 2009 
Q 1338 2731 1133 3434 
Q 928 4138 513 4856 
z
" transform="scale(0.015625)"/>
      </defs>
      <use xlink:href="#DejaVuSans-5b"/>
      <use xlink:href="#DejaVuSans-6c" transform="translate(39.013672 0)"/>
      <use xlink:href="#DejaVuSans-69" transform="translate(66.796875 0)"/>
      <use xlink:href="#DejaVuSans-67" transform="translate(94.580078 0)"/>
      <use xlink:href="#DejaVuSans-61" transform="translate(158.056641 0)"/>
      <use xlink:href="#DejaVuSans-6e" transform="translate(219.335938 0)"/>
      <use xlink:href="#DejaVuSans-64" transform="translate(282.714844 0)"/>
      <use xlink:href="#DejaVuSans-5d" transform="translate(346.191406 0)"/>
      <use xlink:href="#DejaVuSans-20" transform="translate(385.205078 0)"/>
      <use xlink:href="#DejaVuSans-28" transform="translate(416.992188 0)"/>
      <use xlink:href="#DejaVuSans-75" transform="translate(456.005859 0)"/>
      <use xlink:href="#DejaVuSans-4d" transform="translate(519.384766 0)"/>
      <use xlink:href="#DejaVuSans-29" transform="translate(605.664062 0)"/>
     </g>
    </g>
   </g>
   <g id="matplotlib.axis_2">
    <g id="ytick_1">
     <g id="line2d_7">
      <defs>
       <path id="m115f0eec80" d="M 0 0 
L -3.5 0 
" style="stroke: #000000; stroke-width: 0.8"/>
      </defs>
      <g>
       <use xlink:href="#m115f0eec80" x="57.6" y="295.488" style="stroke: #000000; stroke-width: 0.8"/>
      </g>
     </g>
     <g id="text_8">
      <!-- 0.0 -->
      <g transform="translate(34.696875 299.287219) scale(0.1 -0.1)">
       <defs>
        <path id="DejaVuSans-2e" d="M 684 794 
L 1344 794 
L 1344 0 
L 684 0 
L 684 794 
z
" transform="scale(0.015625)"/>
       </defs>
       <use xlink:href="#DejaVuSans-30"/>
       <use xlink:href="#DejaVuSans-2e" transform="translate(63.623047 0)"/>
       <use xlink:href="#DejaVuSans-30" transform="translate(95.410156 0)"/>
      </g>
     </g>
    </g>
    <g id="ytick_2">
     <g id="line2d_8">
      <g>
       <use xlink:href="#m115f0eec80" x="57.6" y="247.104" style="stroke: #000000; stroke-width: 0.8"/>
      </g>
     </g>
     <g id="text_9">
      <!-- 0.2 -->
      <g transform="translate(34.696875 250.903219) scale(0.1 -0.1)">
       <use xlink:href="#DejaVuSans-30"/>
       <use xlink:href="#DejaVuSans-2e" transform="translate(63.623047 0)"/>
       <use xlink:href="#DejaVuSans-32" transform="translate(95.410156 0)"/>
      </g>
     </g>
    </g>
    <g id="ytick_3">
     <g id="line2d_9">
      <g>
       <use xlink:href="#m115f0eec80" x="57.6" y="198.72" style="stroke: #000000; stroke-width: 0.8"/>
      </g>
     </g>
     <g id="text_10">
      <!-- 0.4 -->
      <g transform="translate(34.696875 202.519219) scale(0.1 -0.1)">
       <use xlink:href="#DejaVuSans-30"/>
       <use xlink:href="#DejaVuSans-2e" transform="translate(63.623047 0)"/>
       <use xlink:href="#DejaVuSans-34" transform="translate(95.410156 0)"/>
      </g>
     </g>
    </g>
    <g id="ytick_4">
     <g id="line2d_10">
      <g>
       <use xlink:href="#m115f0eec80" x="57.6" y="150.336" style="stroke: #000000; stroke-width: 0.8"/>
      </g>
     </g>
     <g id="text_11">
      <!-- 0.6 -->
      <g transform="translate(34.696875 154.135219) scale(0.1 -0.1)">
       <defs>
        <path id="DejaVuSans-36" d="M 2113 2584 
Q 1688 2584 1439 2293 
Q 1191 2003 1191 1497 
Q 1191 994 1439 701 
Q 1688 409 2113 409 
Q 2538 409 2786 701 
Q 3034 994 3034 1497 
Q 3034 2003 2786 2293 
Q 2538 2584 2113 2584 
z
M 3366 4563 
L 3366 3988 
Q 3128 4100 2886 4159 
Q 2644 4219 2406 4219 
Q 1781 4219 1451 3797 
Q 1122 3375 1075 2522 
Q 1259 2794 1537 2939 
Q 1816 3084 2150 3084 
Q 2853 3084 3261 2657 
Q 3669 2231 3669 1497 
Q 3669 778 3244 343 
Q 2819 -91 2113 -91 
Q 1303 -91 875 529 
Q 447 1150 447 2328 
Q 447 3434 972 4092 
Q 1497 4750 2381 4750 
Q 2619 4750 2861 4703 
Q 3103 4656 3366 4563 
z
" transform="scale(0.015625)"/>
       </defs>
       <use xlink:href="#DejaVuSans-30"/>
       <use xlink:href="#DejaVuSans-2e" transform="translate(63.623047 0)"/>
       <use xlink:href="#DejaVuSans-36" transform="translate(95.410156 0)"/>
      </g>
     </g>
    </g>
    <g id="ytick_5">
     <g id="line2d_11">
      <g>
       <use xlink:href="#m115f0eec80" x="57.6" y="101.952" style="stroke: #000000; stroke-width: 0.8"/>
      </g>
     </g>
     <g id="text_12">
      <!-- 0.8 -->
      <g transform="translate(34.696875 105.751219) scale(0.1 -0.1)">
       <defs>
        <path id="DejaVuSans-38" d="M 2034 2216 
Q 1584 2216 1326 1975 
Q 1069 1734 1069 1313 
Q 1069 891 1326 650 
Q 1584 409 2034 409 
Q 2484 409 2743 651 
Q 3003 894 3003 1313 
Q 3003 1734 2745 1975 
Q 2488 2216 2034 2216 
z
M 1403 2484 
Q 997 2584 770 2862 
Q 544 3141 544 3541 
Q 544 4100 942 4425 
Q 1341 4750 2034 4750 
Q 2731 4750 3128 4425 
Q 3525 4100 3525 3541 
Q 3525 3141 3298 2862 
Q 3072 2584 2669 2484 
Q 3125 2378 3379 2068 
Q 3634 1759 3634 1313 
Q 3634 634 3220 271 
Q 2806 -91 2034 -91 
Q 1263 -91 848 271 
Q 434 634 434 1313 
Q 434 1759 690 2068 
Q 947 2378 1403 2484 
z
M 1172 3481 
Q 1172 3119 1398 2916 
Q 1625 2713 2034 2713 
Q 2441 2713 2670 2916 
Q 2900 3119 2900 3481 
Q 2900 3844 2670 4047 
Q 2441 4250 2034 4250 
Q 1625 4250 1398 4047 
Q 1172 3844 1172 3481 
z
" transform="scale(0.015625)"/>
       </defs>
       <use xlink:href="#DejaVuSans-30"/>
       <use xlink:href="#DejaVuSans-2e" transform="translate(63.623047 0)"/>
       <use xlink:href="#DejaVuSans-38" transform="translate(95.410156 0)"/>
      </g>
     </g>
    </g>
    <g id="ytick_6">
     <g id="line2d_12">
      <g>
       <use xlink:href="#m115f0eec80" x="57.6" y="53.568" style="stroke: #000000; stroke-width: 0.8"/>
      </g>
     </g>
     <g id="text_13">
      <!-- 1.0 -->
      <g transform="translate(34.696875 57.367219) scale(0.1 -0.1)">
       <use xlink:href="#DejaVuSans-31"/>
       <use xlink:href="#DejaVuSans-2e" transform="translate(63.623047 0)"/>
       <use xlink:href="#DejaVuSans-30" transform="translate(95.410156 0)"/>
      </g>
     </g>
    </g>
    <g id="text_14">
     <!-- mole fraction -->
     <g transform="translate(28.617187 207.718625) rotate(-90) scale(0.1 -0.1)">
      <defs>
       <path id="DejaVuSans-6d" d="M 3328 2828 
Q 3544 3216 3844 3400 
Q 4144 3584 4550 3584 
Q 5097 3584 5394 3201 
Q 5691 2819 5691 2113 
L 5691 0 
L 5113 0 
L 5113 2094 
Q 5113 2597 4934 2840 
Q 4756 3084 4391 3084 
Q 3944 3084 3684 2787 
Q 3425 2491 3425 1978 
L 3425 0 
L 2847 0 
L 2847 2094 
Q 2847 2600 2669 2842 
Q 2491 3084 2119 3084 
Q 1678 3084 1418 2786 
Q 1159 2488 1159 1978 
L 1159 0 
L 581 0 
L 581 3500 
L 1159 3500 
L 1159 2956 
Q 1356 3278 1631 3431 
Q 1906 3584 2284 3584 
Q 2666 3584 2933 3390 
Q 3200 3197 3328 2828 
z
" transform="scale(0.015625)"/>
       <path id="DejaVuSans-6f" d="M 1959 3097 
Q 1497 3097 1228 2736 
Q 959 2375 959 1747 
Q 959 1119 1226 758 
Q 1494 397 1959 397 
Q 2419 397 2687 759 
Q 2956 1122 2956 1747 
Q 2956 2369 2687 2733 
Q 2419 3097 1959 3097 
z
M 1959 3584 
Q 2709 3584 3137 3096 
Q 3566 2609 3566 1747 
Q 3566 888 3137 398 
Q 2709 -91 1959 -91 
Q 1206 -91 779 398 
Q 353 888 353 1747 
Q 353 2609 779 3096 
Q 1206 3584 1959 3584 
z
" transform="scale(0.015625)"/>
       <path id="DejaVuSans-65" d="M 3597 1894 
L 3597 1613 
L 953 1613 
Q 991 1019 1311 708 
Q 1631 397 2203 397 
Q 2534 397 2845 478 
Q 3156 559 3463 722 
L 3463 178 
Q 3153 47 2828 -22 
Q 2503 -91 2169 -91 
Q 1331 -91 842 396 
Q 353 884 353 1716 
Q 353 2575 817 3079 
Q 1281 3584 2069 3584 
Q 2775 3584 3186 3129 
Q 3597 2675 3597 1894 
z
M 3022 2063 
Q 3016 2534 2758 2815 
Q 2500 3097 2075 3097 
Q 1594 3097 1305 2825 
Q 1016 2553 972 2059 
L 3022 2063 
z
" transform="scale(0.015625)"/>
       <path id="DejaVuSans-66" d="M 2375 4863 
L 2375 4384 
L 1825 4384 
Q 1516 4384 1395 4259 
Q 1275 4134 1275 3809 
L 1275 3500 
L 2222 3500 
L 2222 3053 
L 1275 3053 
L 1275 0 
L 697 0 
L 697 3053 
L 147 3053 
L 147 3500 
L 697 3500 
L 697 3744 
Q 697 4328 969 4595 
Q 1241 4863 1831 4863 
L 2375 4863 
z
" transform="scale(0.015625)"/>
       <path id="DejaVuSans-72" d="M 2631 2963 
Q 2534 3019 2420 3045 
Q 2306 3072 2169 3072 
Q 1681 3072 1420 2755 
Q 1159 2438 1159 1844 
L 1159 0 
L 581 0 
L 581 3500 
L 1159 3500 
L 1159 2956 
Q 1341 3275 1631 3429 
Q 1922 3584 2338 3584 
Q 2397 3584 2469 3576 
Q 2541 3569 2628 3553 
L 2631 2963 
z
" transform="scale(0.015625)"/>
       <path id="DejaVuSans-63" d="M 3122 3366 
L 3122 2828 
Q 2878 2963 2633 3030 
Q 2388 3097 2138 3097 
Q 1578 3097 1268 2742 
Q 959 2388 959 1747 
Q 959 1106 1268 751 
Q 1578 397 2138 397 
Q 2388 397 2633 464 
Q 2878 531 3122 666 
L 3122 134 
Q 2881 22 2623 -34 
Q 2366 -91 2075 -91 
Q 1284 -91 818 406 
Q 353 903 353 1747 
Q 353 2603 823 3093 
Q 1294 3584 2113 3584 
Q 2378 3584 2631 3529 
Q 2884 3475 3122 3366 
z
" transform="scale(0.015625)"/>
       <path id="DejaVuSans-74" d="M 1172 4494 
L 1172 3500 
L 2356 3500 
L 2356 3053 
L 1172 3053 
L 1172 1153 
Q 1172 725 1289 603 
Q 1406 481 1766 481 
L 2356 481 
L 2356 0 
L 1766 0 
Q 1100 0 847 248 
Q 594 497 594 1153 
L 594 3053 
L 172 3053 
L 172 3500 
L 594 3500 
L 594 4494 
L 1172 4494 
z
" transform="scale(0.015625)"/>
      </defs>
      <use xlink:href="#DejaVuSans-6d"/>
      <use xlink:href="#DejaVuSans-6f" transform="translate(97.412109 0)"/>
      <use xlink:href="#DejaVuSans-6c" transform="translate(158.59375 0)"/>
      <use xlink:href="#DejaVuSans-65" transform="translate(186.376953 0)"/>
      <use xlink:href="#DejaVuSans-20" transform="translate(247.900391 0)"/>
      <use xlink:href="#DejaVuSans-66" transform="translate(279.6875 0)"/>
      <use xlink:href="#DejaVuSans-72" transform="translate(314.892578 0)"/>
      <use xlink:href="#DejaVuSans-61" transform="translate(356.005859 0)"/>
      <use xlink:href="#DejaVuSans-63" transform="translate(417.285156 0)"/>
      <use xlink:href="#DejaVuSans-74" transform="translate(472.265625 0)"/>
      <use xlink:href="#DejaVuSans-69" transform="translate(511.474609 0)"/>
      <use xlink:href="#DejaVuSans-6f" transform="translate(539.257812 0)"/>
      <use xlink:href="#DejaVuSans-6e" transform="translate(600.439453 0)"/>
     </g>
    </g>
   </g>
   <g id="line2d_13">
    <defs>
     <path id="m259e536386" d="M 0 3 
C 0.795609 3 1.55874 2.683901 2.12132 2.12132 
C 2.683901 1.55874 3 0.795609 3 0 
C 3 -0.795609 2.683901 -1.55874 2.12132 -2.12132 
C 1.55874 -2.683901 0.795609 -3 0 -3 
C -0.795609 -3 -1.55874 -2.683901 -2.12132 -2.12132 
C -2.683901 -1.55874 -3 -0.795609 -3 0 
C -3 0.795609 -2.683901 1.55874 -2.12132 2.12132 
C -1.55874 2.683901 -0.795609 3 0 3 
z
" style="stroke: #808080"/>
    </defs>
    <g clip-path="url(#p4042fbe3db)">
     <use xlink:href="#m259e536386" x="73.832727" y="53.568" style="fill: #808080; stroke: #808080"/>
     <use xlink:href="#m259e536386" x="81.966494" y="171.189504" style="fill: #808080; stroke: #808080"/>
     <use xlink:href="#m259e536386" x="88.49463" y="275.189716" style="fill: #808080; stroke: #808080"/>
     <use xlink:href="#m259e536386" x="122.041164" y="287.463545" style="fill: #808080; stroke: #808080"/>
     <use xlink:href="#m259e536386" x="186.949941" y="295.488" style="fill: #808080; stroke: #808080"/>
     <use xlink:href="#m259e536386" x="244.117225" y="295.488" style="fill: #808080; stroke: #808080"/>
     <use xlink:href="#m259e536386" x="333.741509" y="295.488" style="fill: #808080; stroke: #808080"/>
    </g>
   </g>
   <g id="line2d_14">
    <path d="M 73.832727 53.568 
L 74.432828 54.215953 
L 75.032929 56.175789 
L 75.63303 59.493192 
L 76.233131 64.166686 
L 76.833231 70.144493 
L 78.033433 85.566523 
L 79.233635 104.49378 
L 84.034441 185.383364 
L 85.234643 201.896347 
L 86.434845 216.227874 
L 87.635046 228.474166 
L 88.835248 238.833092 
L 90.03545 247.542034 
L 91.235651 254.840395 
L 92.435853 260.94987 
L 93.636054 266.065998 
L 94.836256 270.356215 
L 96.036458 273.961284 
L 97.236659 276.998212 
L 98.436861 279.563618 
L 99.637063 281.737005 
L 100.837264 283.583711 
L 102.637567 285.856086 
L 104.437869 287.655088 
L 106.238172 289.088038 
L 108.038474 290.235958 
L 109.838777 291.160442 
L 112.23918 292.125422 
L 114.639583 292.858985 
L 117.640087 293.539565 
L 121.240692 294.113034 
L 125.441398 294.559644 
L 131.442406 294.945343 
L 139.243717 295.207107 
L 151.845834 295.38229 
L 177.65017 295.468986 
L 293.469629 295.487863 
L 398.487273 295.487991 
L 398.487273 295.487991 
" clip-path="url(#p4042fbe3db)" style="fill: none; stroke: #808080; stroke-width: 1.5; stroke-linecap: square"/>
   </g>
   <g id="line2d_15">
    <defs>
     <path id="ma42d14f69c" d="M 0 3 
C 0.795609 3 1.55874 2.683901 2.12132 2.12132 
C 2.683901 1.55874 3 0.795609 3 0 
C 3 -0.795609 2.683901 -1.55874 2.12132 -2.12132 
C 1.55874 -2.683901 0.795609 -3 0 -3 
C -0.795609 -3 -1.55874 -2.683901 -2.12132 -2.12132 
C -2.683901 -1.55874 -3 -0.795609 -3 0 
C -3 0.795609 -2.683901 1.55874 -2.12132 2.12132 
C -1.55874 2.683901 -0.795609 3 0 3 
z
" style="stroke: #ff9933"/>
    </defs>
    <g clip-path="url(#p4042fbe3db)">
     <use xlink:href="#ma42d14f69c" x="73.832727" y="295.488" style="fill: #ff9933; stroke: #ff9933"/>
     <use xlink:href="#ma42d14f69c" x="81.966494" y="209.824128" style="fill: #ff9933; stroke: #ff9933"/>
     <use xlink:href="#ma42d14f69c" x="88.49463" y="239.35193" style="fill: #ff9933; stroke: #ff9933"/>
     <use xlink:href="#ma42d14f69c" x="122.041164" y="274.943145" style="fill: #ff9933; stroke: #ff9933"/>
     <use xlink:href="#ma42d14f69c" x="186.949941" y="295.488" style="fill: #ff9933; stroke: #ff9933"/>
     <use xlink:href="#ma42d14f69c" x="244.117225" y="295.488" style="fill: #ff9933; stroke: #ff9933"/>
     <use xlink:href="#ma42d14f69c" x="333.741509" y="295.488" style="fill: #ff9933; stroke: #ff9933"/>
    </g>
   </g>
   <g id="line2d_16">
    <path d="M 73.832727 295.488 
L 82.234139 295.345506 
L 271.865999 295.487993 
L 398.487273 295.488 
L 398.487273 295.488 
" clip-path="url(#p4042fbe3db)" style="fill: none; stroke: #ff9933; stroke-width: 1.5; stroke-linecap: square"/>
   </g>
   <g id="line2d_17">
    <defs>
     <path id="md73b4fd0ac" d="M 0 3 
C 0.795609 3 1.55874 2.683901 2.12132 2.12132 
C 2.683901 1.55874 3 0.795609 3 0 
C 3 -0.795609 2.683901 -1.55874 2.12132 -2.12132 
C 1.55874 -2.683901 0.795609 -3 0 -3 
C -0.795609 -3 -1.55874 -2.683901 -2.12132 -2.12132 
C -2.683901 -1.55874 -3 -0.795609 -3 0 
C -3 0.795609 -2.683901 1.55874 -2.12132 2.12132 
C -1.55874 2.683901 -0.795609 3 0 3 
z
" style="stroke: #ffd700"/>
    </defs>
    <g clip-path="url(#p4042fbe3db)">
     <use xlink:href="#md73b4fd0ac" x="73.832727" y="295.488" style="fill: #ffd700; stroke: #ffd700"/>
     <use xlink:href="#md73b4fd0ac" x="81.966494" y="269.892864" style="fill: #ffd700; stroke: #ffd700"/>
     <use xlink:href="#md73b4fd0ac" x="88.49463" y="231.740661" style="fill: #ffd700; stroke: #ffd700"/>
     <use xlink:href="#md73b4fd0ac" x="122.041164" y="254.628108" style="fill: #ffd700; stroke: #ffd700"/>
     <use xlink:href="#md73b4fd0ac" x="186.949941" y="289.455171" style="fill: #ffd700; stroke: #ffd700"/>
     <use xlink:href="#md73b4fd0ac" x="244.117225" y="295.488" style="fill: #ffd700; stroke: #ffd700"/>
     <use xlink:href="#md73b4fd0ac" x="333.741509" y="295.488" style="fill: #ffd700; stroke: #ffd700"/>
    </g>
   </g>
   <g id="line2d_18">
    <path d="M 73.832727 295.488 
L 74.432828 294.875407 
L 75.032929 293.057531 
L 75.63303 290.095252 
L 76.233131 286.090749 
L 77.433332 275.546987 
L 79.233635 256.208094 
L 81.033937 237.159591 
L 82.234139 226.476602 
L 83.43434 218.035628 
L 84.634542 211.927688 
L 85.234643 209.703363 
L 85.834744 207.987547 
L 86.434845 206.740006 
L 87.034945 205.918186 
L 87.635046 205.479124 
L 88.235147 205.380828 
L 88.835248 205.583226 
L 89.435349 206.048779 
L 90.03545 206.742814 
L 91.235651 208.69271 
L 92.435853 211.215204 
L 94.236155 215.703013 
L 97.236659 224.083377 
L 102.037466 237.547197 
L 105.03797 245.23905 
L 107.438373 250.84189 
L 109.838777 255.932158 
L 112.23918 260.517851 
L 114.639583 264.622298 
L 117.039987 268.277228 
L 119.44039 271.518468 
L 121.840793 274.383236 
L 124.241196 276.908414 
L 126.6416 279.129455 
L 129.042003 281.079713 
L 131.442406 282.790061 
L 134.44291 284.633347 
L 137.443415 286.194855 
L 140.443919 287.517435 
L 144.044524 288.840767 
L 147.645129 289.926709 
L 151.845834 290.952058 
L 156.646641 291.873147 
L 162.047548 292.665993 
L 168.048557 293.323904 
L 175.249766 293.8933 
L 184.251279 294.377809 
L 196.253295 294.781126 
L 212.456017 295.083554 
L 237.060151 295.297504 
L 281.467612 295.426895 
L 398.487273 295.480987 
L 398.487273 295.480987 
" clip-path="url(#p4042fbe3db)" style="fill: none; stroke: #ffd700; stroke-width: 1.5; stroke-linecap: square"/>
   </g>
   <g id="line2d_19">
    <defs>
     <path id="m417c52a456" d="M 0 3 
C 0.795609 3 1.55874 2.683901 2.12132 2.12132 
C 2.683901 1.55874 3 0.795609 3 0 
C 3 -0.795609 2.683901 -1.55874 2.12132 -2.12132 
C 1.55874 -2.683901 0.795609 -3 0 -3 
C -0.795609 -3 -1.55874 -2.683901 -2.12132 -2.12132 
C -2.683901 -1.55874 -3 -0.795609 -3 0 
C -3 0.795609 -2.683901 1.55874 -2.12132 2.12132 
C -1.55874 2.683901 -0.795609 3 0 3 
z
" style="stroke: #7fff00"/>
    </defs>
    <g clip-path="url(#p4042fbe3db)">
     <use xlink:href="#m417c52a456" x="73.832727" y="295.488" style="fill: #7fff00; stroke: #7fff00"/>
     <use xlink:href="#m417c52a456" x="81.966494" y="289.125504" style="fill: #7fff00; stroke: #7fff00"/>
     <use xlink:href="#m417c52a456" x="88.49463" y="252.123588" style="fill: #7fff00; stroke: #7fff00"/>
     <use xlink:href="#m417c52a456" x="122.041164" y="251.624809" style="fill: #7fff00; stroke: #7fff00"/>
     <use xlink:href="#m417c52a456" x="186.949941" y="285.094366" style="fill: #7fff00; stroke: #7fff00"/>
     <use xlink:href="#m417c52a456" x="244.117225" y="295.488" style="fill: #7fff00; stroke: #7fff00"/>
     <use xlink:href="#m417c52a456" x="333.741509" y="295.488" style="fill: #7fff00; stroke: #7fff00"/>
    </g>
   </g>
   <g id="line2d_20">
    <path d="M 73.832727 295.488 
L 75.032929 295.350023 
L 75.63303 295.028783 
L 76.233131 294.421041 
L 76.833231 293.457948 
L 77.433332 292.091862 
L 78.033433 290.298768 
L 79.233635 285.453406 
L 80.433836 279.165021 
L 82.234139 268.063689 
L 85.234643 249.223275 
L 87.034945 239.554601 
L 88.235147 234.103678 
L 89.435349 229.48127 
L 90.63555 225.663465 
L 91.835752 222.600946 
L 93.035954 220.23161 
L 94.236155 218.488668 
L 95.436357 217.305532 
L 96.636559 216.618548 
L 97.83676 216.368374 
L 99.036962 216.500521 
L 100.237164 216.965423 
L 101.437365 217.718243 
L 102.637567 218.718559 
L 104.437869 220.60455 
L 106.238172 222.858884 
L 108.638575 226.28165 
L 111.639079 230.985302 
L 123.641096 250.298604 
L 127.241701 255.454858 
L 130.242205 259.401032 
L 133.242709 263.015742 
L 136.243213 266.301863 
L 139.243717 269.271671 
L 142.244221 271.943427 
L 145.244725 274.338791 
L 148.245229 276.480954 
L 151.845834 278.750227 
L 155.446439 280.727587 
L 159.047044 282.449398 
L 162.647649 283.948684 
L 166.848355 285.455717 
L 171.049061 286.740617 
L 175.849867 287.98143 
L 181.250775 289.138345 
L 187.251783 290.185048 
L 193.852892 291.107881 
L 201.654203 291.961851 
L 210.655715 292.710416 
L 221.45753 293.369856 
L 234.659748 293.935331 
L 250.86247 294.39757 
L 272.4661 294.778746 
L 303.071242 295.075844 
L 350.479207 295.287697 
L 398.487273 295.380306 
L 398.487273 295.380306 
" clip-path="url(#p4042fbe3db)" style="fill: none; stroke: #7fff00; stroke-width: 1.5; stroke-linecap: square"/>
   </g>
   <g id="line2d_21">
    <defs>
     <path id="ma569deff68" d="M 0 3 
C 0.795609 3 1.55874 2.683901 2.12132 2.12132 
C 2.683901 1.55874 3 0.795609 3 0 
C 3 -0.795609 2.683901 -1.55874 2.12132 -2.12132 
C 1.55874 -2.683901 0.795609 -3 0 -3 
C -0.795609 -3 -1.55874 -2.683901 -2.12132 -2.12132 
C -2.683901 -1.55874 -3 -0.795609 -3 0 
C -3 0.795609 -2.683901 1.55874 -2.12132 2.12132 
C -1.55874 2.683901 -0.795609 3 0 3 
z
" style="stroke: #00eeff"/>
    </defs>
    <g clip-path="url(#p4042fbe3db)">
     <use xlink:href="#ma569deff68" x="73.832727" y="295.488" style="fill: #00eeff; stroke: #00eeff"/>
     <use xlink:href="#ma569deff68" x="81.966494" y="295.488" style="fill: #00eeff; stroke: #00eeff"/>
     <use xlink:href="#ma569deff68" x="88.49463" y="272.887664" style="fill: #00eeff; stroke: #00eeff"/>
     <use xlink:href="#ma569deff68" x="122.041164" y="259.698618" style="fill: #00eeff; stroke: #00eeff"/>
     <use xlink:href="#ma569deff68" x="186.949941" y="276.929162" style="fill: #00eeff; stroke: #00eeff"/>
     <use xlink:href="#ma569deff68" x="244.117225" y="280.327412" style="fill: #00eeff; stroke: #00eeff"/>
     <use xlink:href="#ma569deff68" x="333.741509" y="283.638061" style="fill: #00eeff; stroke: #00eeff"/>
    </g>
   </g>
   <g id="line2d_22">
    <path d="M 73.832727 295.488 
L 76.233131 295.424162 
L 77.433332 295.183206 
L 78.633534 294.601368 
L 79.833736 293.539881 
L 81.033937 291.921853 
L 82.234139 289.74507 
L 83.43434 287.069566 
L 85.234643 282.339587 
L 88.235147 273.451712 
L 91.835752 262.780949 
L 94.236155 256.328637 
L 96.036458 251.99629 
L 97.83676 248.149558 
L 99.637063 244.808799 
L 101.437365 241.977585 
L 103.237668 239.647113 
L 105.03797 237.799362 
L 106.238172 236.823651 
L 107.438373 236.04287 
L 108.638575 235.447586 
L 109.838777 235.027777 
L 111.038978 234.773 
L 112.839281 234.676776 
L 114.639583 234.891075 
L 116.439886 235.3794 
L 118.240188 236.106136 
L 120.040491 237.037132 
L 122.440894 238.540809 
L 125.441398 240.744783 
L 129.042003 243.71008 
L 135.043011 249.012389 
L 142.844322 255.848543 
L 147.645129 259.765449 
L 151.845834 262.941014 
L 156.04654 265.863061 
L 160.247246 268.53014 
L 164.447952 270.950665 
L 168.648657 273.138877 
L 173.449464 275.377446 
L 178.250271 277.362711 
L 183.051077 279.121992 
L 188.451985 280.863166 
L 194.452993 282.541357 
L 200.454001 283.988675 
L 207.05511 285.355521 
L 214.25632 286.621813 
L 222.057631 287.775701 
L 231.059143 288.879401 
L 241.260857 289.896718 
L 252.662773 290.806567 
L 265.864991 291.633914 
L 281.467612 292.382112 
L 300.070738 293.044145 
L 322.874569 293.624422 
L 351.679409 294.123803 
L 389.48576 294.54274 
L 398.487273 294.616514 
L 398.487273 294.616514 
" clip-path="url(#p4042fbe3db)" style="fill: none; stroke: #00eeff; stroke-width: 1.5; stroke-linecap: square"/>
   </g>
   <g id="line2d_23">
    <defs>
     <path id="m1d9630e996" d="M 0 3 
C 0.795609 3 1.55874 2.683901 2.12132 2.12132 
C 2.683901 1.55874 3 0.795609 3 0 
C 3 -0.795609 2.683901 -1.55874 2.12132 -2.12132 
C 1.55874 -2.683901 0.795609 -3 0 -3 
C -0.795609 -3 -1.55874 -2.683901 -2.12132 -2.12132 
C -2.683901 -1.55874 -3 -0.795609 -3 0 
C -3 0.795609 -2.683901 1.55874 -2.12132 2.12132 
C -1.55874 2.683901 -0.795609 3 0 3 
z
" style="stroke: #0331fc"/>
    </defs>
    <g clip-path="url(#p4042fbe3db)">
     <use xlink:href="#m1d9630e996" x="73.832727" y="295.488" style="fill: #0331fc; stroke: #0331fc"/>
     <use xlink:href="#m1d9630e996" x="81.966494" y="295.488" style="fill: #0331fc; stroke: #0331fc"/>
     <use xlink:href="#m1d9630e996" x="88.49463" y="281.742095" style="fill: #0331fc; stroke: #0331fc"/>
     <use xlink:href="#m1d9630e996" x="122.041164" y="270.637753" style="fill: #0331fc; stroke: #0331fc"/>
     <use xlink:href="#m1d9630e996" x="186.949941" y="269.64065" style="fill: #0331fc; stroke: #0331fc"/>
     <use xlink:href="#m1d9630e996" x="244.117225" y="278.492821" style="fill: #0331fc; stroke: #0331fc"/>
     <use xlink:href="#m1d9630e996" x="333.741509" y="281.228001" style="fill: #0331fc; stroke: #0331fc"/>
    </g>
   </g>
   <g id="line2d_24">
    <path d="M 73.832727 295.488 
L 78.633534 295.413886 
L 80.433836 295.17931 
L 81.634038 294.864891 
L 82.83424 294.387129 
L 84.034441 293.727077 
L 85.234643 292.877671 
L 87.034945 291.256887 
L 88.835248 289.255996 
L 90.63555 286.932169 
L 93.035954 283.443704 
L 96.636559 277.688242 
L 103.837768 265.965132 
L 106.838273 261.536361 
L 109.238676 258.331642 
L 111.639079 255.475372 
L 114.039482 252.993169 
L 116.439886 250.895347 
L 118.240188 249.573073 
L 120.040491 248.460701 
L 121.840793 247.550496 
L 123.641096 246.832626 
L 126.041499 246.154804 
L 128.441902 245.768781 
L 130.842305 245.643148 
L 133.242709 245.74626 
L 135.643112 246.047299 
L 138.643616 246.657609 
L 142.244221 247.664801 
L 146.444927 249.119985 
L 151.845834 251.2778 
L 160.247246 254.926289 
L 172.249262 260.109881 
L 180.050573 263.232729 
L 187.251783 265.882022 
L 194.452993 268.297225 
L 201.654203 270.484666 
L 209.455513 272.614128 
L 217.256824 274.515979 
L 225.658236 276.336985 
L 234.659748 278.058437 
L 244.261361 279.668128 
L 255.063176 281.240984 
L 266.465092 282.671423 
L 279.067209 284.024951 
L 292.869528 285.282967 
L 308.472149 286.477269 
L 325.875073 287.582953 
L 345.6784 288.614653 
L 368.482232 289.574196 
L 394.886668 290.456623 
L 398.487273 290.561643 
L 398.487273 290.561643 
" clip-path="url(#p4042fbe3db)" style="fill: none; stroke: #0331fc; stroke-width: 1.5; stroke-linecap: square"/>
   </g>
   <g id="line2d_25">
    <defs>
     <path id="m74a628aff5" d="M 0 3 
C 0.795609 3 1.55874 2.683901 2.12132 2.12132 
C 2.683901 1.55874 3 0.795609 3 0 
C 3 -0.795609 2.683901 -1.55874 2.12132 -2.12132 
C 1.55874 -2.683901 0.795609 -3 0 -3 
C -0.795609 -3 -1.55874 -2.683901 -2.12132 -2.12132 
C -2.683901 -1.55874 -3 -0.795609 -3 0 
C -3 0.795609 -2.683901 1.55874 -2.12132 2.12132 
C -1.55874 2.683901 -0.795609 3 0 3 
z
" style="stroke: #ba1e8c"/>
    </defs>
    <g clip-path="url(#p4042fbe3db)">
     <use xlink:href="#m74a628aff5" x="73.832727" y="295.488" style="fill: #ba1e8c; stroke: #ba1e8c"/>
     <use xlink:href="#m74a628aff5" x="81.966494" y="295.488" style="fill: #ba1e8c; stroke: #ba1e8c"/>
     <use xlink:href="#m74a628aff5" x="88.49463" y="286.970972" style="fill: #ba1e8c; stroke: #ba1e8c"/>
     <use xlink:href="#m74a628aff5" x="122.041164" y="277.911562" style="fill: #ba1e8c; stroke: #ba1e8c"/>
     <use xlink:href="#m74a628aff5" x="186.949941" y="269.038113" style="fill: #ba1e8c; stroke: #ba1e8c"/>
     <use xlink:href="#m74a628aff5" x="244.117225" y="284.002701" style="fill: #ba1e8c; stroke: #ba1e8c"/>
     <use xlink:href="#m74a628aff5" x="333.741509" y="284.356392" style="fill: #ba1e8c; stroke: #ba1e8c"/>
    </g>
   </g>
   <g id="line2d_26">
    <path d="M 73.832727 295.488 
L 83.43434 295.37719 
L 86.434845 295.111209 
L 89.435349 294.59575 
L 91.835752 293.974464 
L 94.236155 293.160433 
L 97.236659 291.881797 
L 100.237164 290.343643 
L 103.837768 288.224115 
L 108.638575 285.102954 
L 118.240188 278.768395 
L 122.440894 276.27695 
L 126.041499 274.367758 
L 129.642104 272.691796 
L 133.242709 271.255592 
L 136.843314 270.053869 
L 140.443919 269.073258 
L 144.644624 268.184112 
L 148.84533 267.537905 
L 153.646137 267.053446 
L 158.446943 266.79407 
L 163.847851 266.717905 
L 170.44896 266.862134 
L 178.250271 267.272211 
L 188.451985 268.055433 
L 204.054606 269.515876 
L 246.061664 273.539237 
L 267.665293 275.337022 
L 289.869024 276.956464 
L 313.272956 278.437308 
L 339.077291 279.840822 
L 367.28203 281.148335 
L 398.487273 282.373143 
L 398.487273 282.373143 
" clip-path="url(#p4042fbe3db)" style="fill: none; stroke: #ba1e8c; stroke-width: 1.5; stroke-linecap: square"/>
   </g>
   <g id="line2d_27">
    <defs>
     <path id="m48b1d126a6" d="M 0 3 
C 0.795609 3 1.55874 2.683901 2.12132 2.12132 
C 2.683901 1.55874 3 0.795609 3 0 
C 3 -0.795609 2.683901 -1.55874 2.12132 -2.12132 
C 1.55874 -2.683901 0.795609 -3 0 -3 
C -0.795609 -3 -1.55874 -2.683901 -2.12132 -2.12132 
C -2.683901 -1.55874 -3 -0.795609 -3 0 
C -3 0.795609 -2.683901 1.55874 -2.12132 2.12132 
C -1.55874 2.683901 -0.795609 3 0 3 
z
" style="stroke: #b30505"/>
    </defs>
    <g clip-path="url(#p4042fbe3db)">
     <use xlink:href="#m48b1d126a6" x="73.832727" y="295.488" style="fill: #b30505; stroke: #b30505"/>
     <use xlink:href="#m48b1d126a6" x="81.966494" y="295.488" style="fill: #b30505; stroke: #b30505"/>
     <use xlink:href="#m48b1d126a6" x="88.49463" y="281.977374" style="fill: #b30505; stroke: #b30505"/>
     <use xlink:href="#m48b1d126a6" x="122.041164" y="245.076459" style="fill: #b30505; stroke: #b30505"/>
     <use xlink:href="#m48b1d126a6" x="186.949941" y="140.850539" style="fill: #b30505; stroke: #b30505"/>
     <use xlink:href="#m48b1d126a6" x="244.117225" y="97.209066" style="fill: #b30505; stroke: #b30505"/>
     <use xlink:href="#m48b1d126a6" x="333.741509" y="90.809546" style="fill: #b30505; stroke: #b30505"/>
    </g>
   </g>
   <g id="line2d_28">
    <path d="M 73.832727 295.488 
L 84.634542 295.379716 
L 87.635046 295.090694 
L 90.03545 294.614699 
L 91.835752 294.061576 
L 93.636054 293.304591 
L 95.436357 292.315273 
L 97.236659 291.069758 
L 99.036962 289.54961 
L 100.837264 287.742376 
L 102.637567 285.641846 
L 104.437869 283.248045 
L 106.838273 279.611261 
L 109.238676 275.493417 
L 111.639079 270.937895 
L 114.639583 264.711385 
L 118.240188 256.619971 
L 123.040995 245.140474 
L 136.843314 211.59205 
L 141.64412 200.722108 
L 145.844826 191.774496 
L 150.045532 183.398349 
L 153.646137 176.683513 
L 157.246742 170.393024 
L 160.847347 164.514194 
L 164.447952 159.029132 
L 168.048557 153.916781 
L 171.649161 149.154431 
L 175.249766 144.71881 
L 179.450472 139.926127 
L 183.651178 135.511429 
L 187.851884 131.441343 
L 192.052589 127.684844 
L 196.253295 124.213391 
L 200.454001 121.00093 
L 205.254808 117.616435 
L 210.055614 114.507665 
L 214.856421 111.646414 
L 220.257328 108.692319 
L 225.658236 105.988522 
L 231.659244 103.244663 
L 237.660252 100.743468 
L 244.261361 98.238995 
L 251.462571 95.765423 
L 258.663781 93.527433 
L 266.465092 91.334276 
L 274.866503 89.20593 
L 283.868015 87.15748 
L 293.469629 85.199612 
L 304.271443 83.236102 
L 315.673359 81.396439 
L 328.275476 79.597399 
L 342.077795 77.863183 
L 357.080316 76.210766 
L 373.283038 74.650918 
L 391.286063 73.142407 
L 398.487273 72.595417 
L 398.487273 72.595417 
" clip-path="url(#p4042fbe3db)" style="fill: none; stroke: #b30505; stroke-width: 1.5; stroke-linecap: square"/>
   </g>
   <g id="patch_3">
    <path d="M 57.6 307.584 
L 57.6 41.472 
" style="fill: none; stroke: #000000; stroke-width: 0.8; stroke-linejoin: miter; stroke-linecap: square"/>
   </g>
   <g id="patch_4">
    <path d="M 414.72 307.584 
L 414.72 41.472 
" style="fill: none; stroke: #000000; stroke-width: 0.8; stroke-linejoin: miter; stroke-linecap: square"/>
   </g>
   <g id="patch_5">
    <path d="M 57.6 307.584 
L 414.72 307.584 
" style="fill: none; stroke: #000000; stroke-width: 0.8; stroke-linejoin: miter; stroke-linecap: square"/>
   </g>
   <g id="patch_6">
    <path d="M 57.6 41.472 
L 414.72 41.472 
" style="fill: none; stroke: #000000; stroke-width: 0.8; stroke-linejoin: miter; stroke-linecap: square"/>
   </g>
  </g>
 </g>
 <defs>
  <clipPath id="p4042fbe3db">
   <rect x="57.6" y="41.472" width="357.12" height="266.112"/>
  </clipPath>
 </defs>
</svg>
